<svg xmlns="http://www.w3.org/2000/svg" xmlns:xlink="http://www.w3.org/1999/xlink" width="500" zoomAndPan="magnify" viewBox="0 0 375 374.999991" height="500" preserveAspectRatio="xMidYMid meet" version="1.0"><defs><clipPath id="id1"><path d="M 49.21875 17 L 325.96875 17 L 325.96875 195 L 49.21875 195 Z M 49.21875 17 " clip-rule="nonzero"/></clipPath></defs><path fill="#ec7e33" d="M 206.726562 227.886719 L 206.726562 196.148438 L 168.46875 196.148438 L 168.46875 227.886719 C 168.46875 257.566406 151.839844 264.324219 151.839844 264.324219 L 223.351562 264.324219 C 223.351562 264.324219 206.726562 257.566406 206.726562 227.886719 Z M 206.726562 227.886719 " fill-opacity="1" fill-rule="nonzero"/><path fill="#2d3444" d="M 107.96875 359.273438 L 267.226562 359.273438 L 267.226562 374.992188 L 107.96875 374.992188 Z M 107.96875 359.273438 " fill-opacity="1" fill-rule="nonzero"/><path fill="#464d5d" d="M 257.726562 349.777344 L 117.46875 349.777344 C 116.847656 349.777344 116.226562 349.839844 115.617188 349.960938 C 115.003906 350.082031 114.410156 350.265625 113.835938 350.503906 C 113.257812 350.742188 112.710938 351.035156 112.191406 351.378906 C 111.671875 351.726562 111.195312 352.121094 110.753906 352.5625 C 110.3125 353.003906 109.917969 353.480469 109.570312 354 C 109.222656 354.519531 108.933594 355.066406 108.691406 355.640625 C 108.453125 356.21875 108.273438 356.8125 108.152344 357.421875 C 108.03125 358.035156 107.96875 358.652344 107.96875 359.273438 L 267.226562 359.273438 C 267.226562 358.652344 267.164062 358.035156 267.042969 357.421875 C 266.921875 356.8125 266.742188 356.21875 266.503906 355.640625 C 266.265625 355.066406 265.972656 354.519531 265.625 354 C 265.277344 353.480469 264.886719 353 264.445312 352.558594 C 264.003906 352.121094 263.523438 351.726562 263.003906 351.378906 C 262.484375 351.03125 261.9375 350.742188 261.363281 350.5 C 260.785156 350.261719 260.191406 350.082031 259.578125 349.960938 C 258.96875 349.839844 258.351562 349.777344 257.726562 349.777344 Z M 257.726562 349.777344 " fill-opacity="1" fill-rule="nonzero"/><path fill="#2d3444" d="M 241.257812 284.191406 L 133.929688 284.191406 C 133.390625 284.191406 132.855469 284.21875 132.316406 284.269531 C 131.78125 284.324219 131.246094 284.402344 130.71875 284.507812 C 130.191406 284.613281 129.667969 284.742188 129.152344 284.898438 C 128.636719 285.054688 128.128906 285.238281 127.632812 285.441406 C 127.132812 285.648438 126.644531 285.878906 126.171875 286.132812 C 125.695312 286.386719 125.234375 286.664062 124.785156 286.960938 C 124.335938 287.261719 123.90625 287.582031 123.488281 287.925781 C 123.070312 288.265625 122.671875 288.628906 122.289062 289.007812 C 121.910156 289.390625 121.546875 289.789062 121.207031 290.203125 C 120.863281 290.621094 120.542969 291.054688 120.242188 291.5 C 119.945312 291.949219 119.667969 292.410156 119.414062 292.886719 C 119.160156 293.359375 118.929688 293.847656 118.722656 294.34375 C 118.515625 294.84375 118.335938 295.351562 118.179688 295.867188 C 118.023438 296.378906 117.890625 296.902344 117.785156 297.429688 C 117.679688 297.960938 117.601562 298.492188 117.550781 299.027344 C 117.496094 299.5625 117.46875 300.101562 117.46875 300.640625 L 117.46875 349.789062 L 257.726562 349.789062 L 257.726562 300.640625 C 257.726562 300.101562 257.699219 299.5625 257.648438 299.027344 C 257.59375 298.492188 257.515625 297.957031 257.410156 297.429688 C 257.304688 296.902344 257.171875 296.378906 257.015625 295.863281 C 256.859375 295.347656 256.679688 294.839844 256.472656 294.34375 C 256.265625 293.847656 256.035156 293.359375 255.78125 292.882812 C 255.527344 292.410156 255.25 291.949219 254.949219 291.5 C 254.652344 291.050781 254.332031 290.621094 253.988281 290.203125 C 253.644531 289.785156 253.285156 289.386719 252.902344 289.007812 C 252.523438 288.625 252.121094 288.265625 251.707031 287.921875 C 251.289062 287.582031 250.855469 287.261719 250.40625 286.960938 C 249.960938 286.660156 249.496094 286.386719 249.023438 286.132812 C 248.546875 285.878906 248.058594 285.648438 247.5625 285.441406 C 247.0625 285.234375 246.554688 285.054688 246.039062 284.898438 C 245.523438 284.742188 245 284.609375 244.472656 284.503906 C 243.941406 284.402344 243.410156 284.320312 242.875 284.269531 C 242.335938 284.214844 241.800781 284.191406 241.257812 284.191406 Z M 241.257812 284.191406 " fill-opacity="1" fill-rule="nonzero"/><path fill="#e85f0f" d="M 151.84375 264.324219 L 223.351562 264.324219 L 223.351562 275.097656 L 151.84375 275.097656 Z M 151.84375 264.324219 " fill-opacity="1" fill-rule="nonzero"/><g clip-path="url(#id1)"><path fill="#ec7e33" d="M 277.867188 37.964844 L 277.867188 17.746094 L 97.328125 17.746094 L 97.328125 37.964844 L 49.304688 37.964844 L 49.304688 78.148438 C 49.304688 80.140625 49.390625 82.128906 49.566406 84.113281 C 49.742188 86.097656 50.007812 88.070312 50.359375 90.03125 C 50.710938 91.992188 51.148438 93.933594 51.671875 95.855469 C 52.195312 97.777344 52.804688 99.671875 53.5 101.542969 C 54.191406 103.410156 54.96875 105.242188 55.824219 107.042969 C 56.683594 108.839844 57.617188 110.597656 58.628906 112.3125 C 59.644531 114.027344 60.730469 115.695312 61.894531 117.316406 C 63.054688 118.933594 64.285156 120.496094 65.589844 122.007812 C 66.890625 123.515625 68.253906 124.964844 69.6875 126.351562 C 71.117188 127.742188 72.605469 129.0625 74.152344 130.316406 C 75.703125 131.574219 77.304688 132.757812 78.957031 133.871094 C 80.609375 134.980469 82.308594 136.019531 84.054688 136.980469 C 85.800781 137.941406 87.585938 138.824219 89.414062 139.628906 C 91.238281 140.429688 93.09375 141.148438 94.980469 141.789062 C 96.871094 142.425781 98.785156 142.976562 100.722656 143.445312 C 102.660156 143.910156 104.617188 144.292969 106.585938 144.585938 C 121.308594 174.425781 152.054688 194.957031 187.597656 194.957031 C 223.144531 194.957031 253.886719 174.425781 268.609375 144.585938 C 270.582031 144.292969 272.539062 143.910156 274.476562 143.445312 C 276.414062 142.976562 278.328125 142.425781 280.214844 141.785156 C 282.105469 141.148438 283.960938 140.429688 285.785156 139.625 C 287.609375 138.824219 289.394531 137.941406 291.140625 136.980469 C 292.886719 136.019531 294.585938 134.980469 296.242188 133.867188 C 297.894531 132.753906 299.496094 131.570312 301.042969 130.316406 C 302.589844 129.0625 304.082031 127.738281 305.511719 126.351562 C 306.941406 124.964844 308.308594 123.515625 309.609375 122.007812 C 310.910156 120.496094 312.140625 118.933594 313.304688 117.3125 C 314.464844 115.695312 315.554688 114.027344 316.566406 112.3125 C 317.578125 110.597656 318.515625 108.839844 319.371094 107.039062 C 320.226562 105.242188 321.003906 103.410156 321.695312 101.539062 C 322.390625 99.671875 323 97.777344 323.523438 95.855469 C 324.046875 93.933594 324.488281 91.992188 324.839844 90.03125 C 325.191406 88.070312 325.453125 86.097656 325.628906 84.113281 C 325.804688 82.128906 325.894531 80.140625 325.890625 78.148438 L 325.890625 37.964844 Z M 66.058594 78.148438 L 66.058594 54.707031 L 97.328125 54.707031 L 97.328125 104.757812 C 97.324219 111.847656 98.140625 118.835938 99.78125 125.730469 C 80.160156 118.800781 66.058594 100.089844 66.058594 78.148438 Z M 309.136719 78.148438 C 309.136719 100.089844 295.039062 118.800781 275.414062 125.71875 C 277.054688 118.828125 277.871094 111.839844 277.867188 104.757812 L 277.867188 54.707031 L 309.136719 54.707031 Z M 309.136719 78.148438 " fill-opacity="1" fill-rule="nonzero"/></g><path fill="#e85f0f" d="M 250.277344 17.738281 L 250.277344 95.160156 C 250.277344 144.980469 209.859375 185.371094 160.003906 185.371094 C 154.8125 185.371094 149.660156 184.929688 144.546875 184.050781 C 151.152344 187.640625 158.101562 190.359375 165.390625 192.203125 C 172.683594 194.050781 180.085938 194.96875 187.609375 194.957031 C 237.460938 194.957031 277.878906 154.566406 277.878906 104.746094 L 277.878906 17.738281 Z M 250.277344 17.738281 " fill-opacity="1" fill-rule="nonzero"/><path fill="#e85f0f" d="M 163.289062 187.863281 L 163.289062 195.027344 C 163.289062 195.367188 163.320312 195.703125 163.386719 196.039062 C 163.453125 196.371094 163.554688 196.695312 163.683594 197.007812 C 163.8125 197.324219 163.972656 197.621094 164.160156 197.902344 C 164.351562 198.1875 164.566406 198.449219 164.804688 198.6875 C 165.046875 198.929688 165.308594 199.144531 165.589844 199.332031 C 165.875 199.523438 166.171875 199.683594 166.484375 199.8125 C 166.800781 199.941406 167.125 200.042969 167.457031 200.109375 C 167.792969 200.175781 168.128906 200.207031 168.46875 200.207031 L 206.71875 200.207031 C 207.058594 200.207031 207.394531 200.175781 207.730469 200.109375 C 208.0625 200.042969 208.386719 199.945312 208.703125 199.8125 C 209.015625 199.683594 209.316406 199.523438 209.597656 199.335938 C 209.882812 199.144531 210.144531 198.929688 210.382812 198.691406 C 210.625 198.449219 210.839844 198.1875 211.027344 197.90625 C 211.21875 197.621094 211.375 197.324219 211.507812 197.007812 C 211.636719 196.695312 211.734375 196.371094 211.800781 196.039062 C 211.867188 195.703125 211.902344 195.367188 211.902344 195.027344 L 211.902344 187.863281 Z M 163.289062 187.863281 " fill-opacity="1" fill-rule="nonzero"/><path fill="#ec7e33" d="M 282.476562 0 L 92.71875 0 C 92.136719 0 91.5625 0.0585938 90.988281 0.171875 C 90.417969 0.285156 89.863281 0.453125 89.324219 0.675781 C 88.785156 0.898438 88.273438 1.171875 87.789062 1.496094 C 87.304688 1.816406 86.855469 2.1875 86.445312 2.597656 C 86.03125 3.007812 85.664062 3.457031 85.339844 3.941406 C 85.015625 4.425781 84.742188 4.9375 84.519531 5.476562 C 84.296875 6.011719 84.128906 6.566406 84.015625 7.140625 C 83.902344 7.710938 83.84375 8.285156 83.84375 8.871094 C 83.84375 9.453125 83.902344 10.027344 84.015625 10.601562 C 84.128906 11.171875 84.296875 11.726562 84.519531 12.261719 C 84.742188 12.800781 85.015625 13.3125 85.339844 13.796875 C 85.664062 14.28125 86.03125 14.730469 86.445312 15.140625 C 86.855469 15.554688 87.304688 15.921875 87.789062 16.242188 C 88.273438 16.566406 88.785156 16.839844 89.324219 17.0625 C 89.863281 17.285156 90.417969 17.453125 90.988281 17.570312 C 91.5625 17.683594 92.136719 17.738281 92.71875 17.738281 L 282.476562 17.738281 C 283.0625 17.738281 283.636719 17.683594 284.210938 17.570312 C 284.78125 17.453125 285.335938 17.285156 285.875 17.0625 C 286.414062 16.839844 286.925781 16.566406 287.410156 16.242188 C 287.894531 15.921875 288.34375 15.554688 288.753906 15.140625 C 289.167969 14.730469 289.535156 14.28125 289.859375 13.796875 C 290.179688 13.3125 290.453125 12.800781 290.679688 12.261719 C 290.902344 11.726562 291.070312 11.171875 291.183594 10.601562 C 291.296875 10.027344 291.355469 9.453125 291.355469 8.871094 C 291.355469 8.285156 291.296875 7.710938 291.183594 7.140625 C 291.070312 6.566406 290.902344 6.011719 290.679688 5.476562 C 290.453125 4.9375 290.179688 4.425781 289.859375 3.941406 C 289.535156 3.457031 289.167969 3.007812 288.753906 2.597656 C 288.34375 2.1875 287.894531 1.816406 287.410156 1.496094 C 286.925781 1.171875 286.414062 0.898438 285.875 0.675781 C 285.335938 0.453125 284.78125 0.285156 284.210938 0.171875 C 283.636719 0.0585938 283.0625 0 282.476562 0 Z M 282.476562 0 " fill-opacity="1" fill-rule="nonzero"/><path fill="#ffffff" d="M 108.722656 6.3125 L 94.171875 6.3125 C 93.828125 6.300781 93.492188 6.355469 93.167969 6.480469 C 92.84375 6.605469 92.554688 6.789062 92.304688 7.03125 C 92.058594 7.269531 91.863281 7.550781 91.730469 7.871094 C 91.59375 8.191406 91.527344 8.523438 91.527344 8.871094 C 91.527344 9.21875 91.59375 9.550781 91.730469 9.871094 C 91.863281 10.191406 92.058594 10.46875 92.304688 10.710938 C 92.554688 10.953125 92.84375 11.136719 93.167969 11.261719 C 93.492188 11.386719 93.828125 11.441406 94.171875 11.429688 L 108.722656 11.429688 C 109.070312 11.441406 109.40625 11.386719 109.730469 11.261719 C 110.054688 11.136719 110.339844 10.953125 110.589844 10.710938 C 110.839844 10.46875 111.03125 10.191406 111.167969 9.871094 C 111.304688 9.550781 111.371094 9.21875 111.371094 8.871094 C 111.371094 8.523438 111.304688 8.191406 111.167969 7.871094 C 111.03125 7.550781 110.839844 7.269531 110.589844 7.03125 C 110.339844 6.789062 110.054688 6.605469 109.730469 6.480469 C 109.40625 6.355469 109.070312 6.300781 108.722656 6.3125 Z M 108.722656 6.3125 " fill-opacity="1" fill-rule="nonzero"/><path fill="#ffffff" d="M 126.722656 6.3125 L 121.636719 6.3125 C 121.300781 6.320312 120.984375 6.394531 120.679688 6.53125 C 120.375 6.664062 120.109375 6.851562 119.878906 7.089844 C 119.644531 7.328125 119.46875 7.601562 119.34375 7.910156 C 119.21875 8.21875 119.15625 8.539062 119.15625 8.871094 C 119.15625 9.203125 119.21875 9.523438 119.34375 9.832031 C 119.46875 10.140625 119.644531 10.414062 119.878906 10.652344 C 120.109375 10.890625 120.375 11.078125 120.679688 11.210938 C 120.984375 11.347656 121.300781 11.417969 121.636719 11.429688 L 126.722656 11.429688 C 127.070312 11.441406 127.40625 11.386719 127.730469 11.261719 C 128.054688 11.136719 128.34375 10.953125 128.589844 10.710938 C 128.839844 10.46875 129.035156 10.191406 129.167969 9.871094 C 129.304688 9.550781 129.371094 9.21875 129.371094 8.871094 C 129.371094 8.523438 129.304688 8.191406 129.167969 7.871094 C 129.035156 7.550781 128.839844 7.269531 128.589844 7.03125 C 128.34375 6.789062 128.054688 6.605469 127.730469 6.480469 C 127.40625 6.355469 127.070312 6.300781 126.722656 6.3125 Z M 126.722656 6.3125 " fill-opacity="1" fill-rule="nonzero"/><path fill="#ec7e33" d="M 229.386719 275.097656 L 145.808594 275.097656 C 145.214844 275.097656 144.621094 275.15625 144.035156 275.273438 C 143.449219 275.390625 142.878906 275.5625 142.328125 275.789062 C 141.777344 276.019531 141.25 276.296875 140.753906 276.628906 C 140.257812 276.960938 139.796875 277.339844 139.375 277.761719 C 138.953125 278.183594 138.574219 278.640625 138.242188 279.140625 C 137.910156 279.636719 137.632812 280.160156 137.402344 280.710938 C 137.175781 281.261719 137 281.832031 136.886719 282.417969 C 136.769531 283.003906 136.710938 283.59375 136.710938 284.191406 L 238.484375 284.191406 C 238.484375 283.59375 238.425781 283.003906 238.308594 282.417969 C 238.191406 281.832031 238.019531 281.261719 237.789062 280.710938 C 237.5625 280.160156 237.28125 279.636719 236.949219 279.140625 C 236.617188 278.644531 236.242188 278.183594 235.816406 277.761719 C 235.394531 277.339844 234.9375 276.964844 234.441406 276.632812 C 233.941406 276.300781 233.417969 276.019531 232.867188 275.792969 C 232.316406 275.5625 231.746094 275.390625 231.160156 275.273438 C 230.574219 275.15625 229.984375 275.097656 229.386719 275.097656 Z M 229.386719 275.097656 " fill-opacity="1" fill-rule="nonzero"/><path fill="#464d5d" d="M 239.945312 288.734375 L 239.945312 304.875 C 239.945312 305.957031 239.890625 307.035156 239.785156 308.109375 C 239.679688 309.183594 239.519531 310.253906 239.308594 311.3125 C 239.097656 312.371094 238.835938 313.417969 238.523438 314.453125 C 238.207031 315.488281 237.84375 316.503906 237.429688 317.503906 C 237.015625 318.5 236.554688 319.476562 236.042969 320.429688 C 235.535156 321.382812 234.980469 322.308594 234.378906 323.207031 C 233.777344 324.105469 233.132812 324.972656 232.449219 325.808594 C 231.761719 326.644531 231.035156 327.441406 230.273438 328.207031 C 229.507812 328.972656 228.707031 329.695312 227.871094 330.382812 C 227.035156 331.066406 226.167969 331.710938 225.269531 332.308594 C 224.371094 332.910156 223.441406 333.464844 222.488281 333.976562 C 221.535156 334.484375 220.558594 334.945312 219.558594 335.359375 C 218.5625 335.773438 217.542969 336.136719 216.507812 336.449219 C 215.472656 336.765625 214.425781 337.027344 213.367188 337.238281 C 212.304688 337.449219 211.238281 337.605469 210.160156 337.710938 C 209.085938 337.816406 208.003906 337.871094 206.925781 337.871094 L 117.46875 337.871094 L 117.46875 300.640625 C 117.46875 300.101562 117.496094 299.5625 117.550781 299.027344 C 117.601562 298.492188 117.679688 297.960938 117.785156 297.429688 C 117.890625 296.902344 118.023438 296.378906 118.179688 295.863281 C 118.335938 295.347656 118.519531 294.84375 118.722656 294.34375 C 118.929688 293.847656 119.160156 293.359375 119.414062 292.886719 C 119.667969 292.410156 119.945312 291.949219 120.246094 291.5 C 120.546875 291.054688 120.867188 290.621094 121.207031 290.203125 C 121.550781 289.789062 121.910156 289.390625 122.292969 289.007812 C 122.675781 288.628906 123.074219 288.265625 123.488281 287.925781 C 123.90625 287.582031 124.339844 287.261719 124.789062 286.960938 C 125.234375 286.664062 125.695312 286.386719 126.171875 286.132812 C 126.648438 285.878906 127.132812 285.648438 127.632812 285.441406 C 128.128906 285.238281 128.636719 285.054688 129.152344 284.898438 C 129.667969 284.742188 130.191406 284.613281 130.71875 284.507812 C 131.25 284.402344 131.78125 284.324219 132.316406 284.269531 C 132.855469 284.21875 133.390625 284.191406 133.929688 284.191406 L 239.304688 284.191406 C 239.730469 285.675781 239.945312 287.191406 239.945312 288.734375 Z M 239.945312 288.734375 " fill-opacity="1" fill-rule="nonzero"/><path fill="#000000" d="M 97.328125 17.738281 L 277.867188 17.738281 L 277.867188 27.757812 L 97.328125 27.757812 Z M 97.328125 17.738281 " fill-opacity="0.098" fill-rule="nonzero"/><path fill="#ec7e33" d="M 222.429688 326.253906 L 222.429688 307.71875 C 222.097656 307.71875 221.769531 307.683594 221.441406 307.621094 C 221.117188 307.554688 220.800781 307.460938 220.492188 307.332031 C 220.1875 307.207031 219.894531 307.050781 219.617188 306.867188 C 219.34375 306.679688 219.085938 306.472656 218.851562 306.238281 C 218.617188 306.003906 218.40625 305.746094 218.222656 305.472656 C 218.039062 305.195312 217.882812 304.902344 217.753906 304.597656 C 217.628906 304.289062 217.53125 303.972656 217.46875 303.648438 C 217.402344 303.324219 217.371094 302.996094 217.371094 302.664062 L 157.835938 302.664062 C 157.835938 302.996094 157.804688 303.324219 157.738281 303.648438 C 157.675781 303.972656 157.578125 304.289062 157.453125 304.597656 C 157.324219 304.902344 157.167969 305.195312 156.984375 305.472656 C 156.800781 305.746094 156.589844 306.003906 156.355469 306.238281 C 156.121094 306.472656 155.863281 306.679688 155.589844 306.867188 C 155.3125 307.050781 155.019531 307.207031 154.714844 307.332031 C 154.40625 307.460938 154.089844 307.554688 153.765625 307.621094 C 153.4375 307.683594 153.109375 307.71875 152.777344 307.71875 L 152.777344 326.253906 C 153.109375 326.253906 153.4375 326.285156 153.765625 326.351562 C 154.089844 326.417969 154.40625 326.511719 154.714844 326.640625 C 155.019531 326.765625 155.3125 326.921875 155.589844 327.105469 C 155.863281 327.289062 156.121094 327.5 156.355469 327.734375 C 156.589844 327.96875 156.800781 328.226562 156.984375 328.5 C 157.167969 328.777344 157.324219 329.070312 157.453125 329.375 C 157.578125 329.683594 157.675781 330 157.738281 330.324219 C 157.804688 330.648438 157.835938 330.976562 157.835938 331.308594 L 217.371094 331.308594 C 217.371094 330.976562 217.402344 330.648438 217.46875 330.324219 C 217.53125 330 217.628906 329.683594 217.753906 329.375 C 217.882812 329.070312 218.039062 328.777344 218.222656 328.5 C 218.40625 328.226562 218.617188 327.96875 218.851562 327.734375 C 219.085938 327.5 219.34375 327.289062 219.617188 327.105469 C 219.894531 326.921875 220.1875 326.765625 220.492188 326.640625 C 220.800781 326.511719 221.117188 326.417969 221.441406 326.351562 C 221.769531 326.285156 222.097656 326.253906 222.429688 326.253906 Z M 222.429688 326.253906 " fill-opacity="1" fill-rule="nonzero"/><path fill="#e85f0f" d="M 219.757812 316.984375 C 219.757812 317.234375 219.710938 317.46875 219.613281 317.699219 C 219.519531 317.925781 219.386719 318.125 219.210938 318.300781 C 219.039062 318.476562 218.835938 318.609375 218.609375 318.703125 C 218.378906 318.796875 218.144531 318.84375 217.894531 318.84375 C 217.648438 318.84375 217.414062 318.796875 217.183594 318.703125 C 216.957031 318.609375 216.753906 318.476562 216.582031 318.300781 C 216.40625 318.125 216.273438 317.925781 216.175781 317.699219 C 216.082031 317.46875 216.035156 317.234375 216.035156 316.984375 C 216.035156 316.738281 216.082031 316.503906 216.175781 316.273438 C 216.273438 316.046875 216.40625 315.847656 216.582031 315.671875 C 216.753906 315.496094 216.957031 315.363281 217.183594 315.269531 C 217.414062 315.175781 217.648438 315.125 217.894531 315.125 C 218.144531 315.125 218.378906 315.175781 218.609375 315.269531 C 218.835938 315.363281 219.039062 315.496094 219.210938 315.671875 C 219.386719 315.847656 219.519531 316.046875 219.613281 316.273438 C 219.710938 316.503906 219.757812 316.738281 219.757812 316.984375 Z M 219.757812 316.984375 " fill-opacity="1" fill-rule="nonzero"/><path fill="#e85f0f" d="M 159.183594 316.984375 C 159.183594 317.234375 159.136719 317.46875 159.042969 317.699219 C 158.945312 317.925781 158.8125 318.125 158.636719 318.300781 C 158.464844 318.476562 158.261719 318.609375 158.035156 318.703125 C 157.804688 318.796875 157.570312 318.84375 157.320312 318.84375 C 157.074219 318.84375 156.839844 318.796875 156.609375 318.703125 C 156.382812 318.609375 156.179688 318.476562 156.007812 318.300781 C 155.832031 318.125 155.699219 317.925781 155.601562 317.699219 C 155.507812 317.46875 155.460938 317.234375 155.460938 316.984375 C 155.460938 316.738281 155.507812 316.503906 155.601562 316.273438 C 155.699219 316.046875 155.832031 315.847656 156.007812 315.671875 C 156.179688 315.496094 156.382812 315.363281 156.609375 315.269531 C 156.839844 315.175781 157.074219 315.125 157.320312 315.125 C 157.570312 315.125 157.804688 315.175781 158.035156 315.269531 C 158.261719 315.363281 158.464844 315.496094 158.636719 315.671875 C 158.8125 315.847656 158.945312 316.046875 159.042969 316.273438 C 159.136719 316.503906 159.183594 316.738281 159.183594 316.984375 Z M 159.183594 316.984375 " fill-opacity="1" fill-rule="nonzero"/></svg>