<svg xmlns="http://www.w3.org/2000/svg" xmlns:xlink="http://www.w3.org/1999/xlink" width="500" zoomAndPan="magnify" viewBox="0 0 375 374.999991" height="500" preserveAspectRatio="xMidYMid meet" version="1.0"><defs><clipPath id="id1"><path d="M 50.292969 19 L 324.792969 19 L 324.792969 196 L 50.292969 196 Z M 50.292969 19 " clip-rule="nonzero"/></clipPath><clipPath id="id2"><path d="M 84 1.296875 L 291 1.296875 L 291 20 L 84 20 Z M 84 1.296875 " clip-rule="nonzero"/></clipPath></defs><path fill="#fbd55d" d="M 206.527344 227.800781 L 206.527344 196.269531 L 168.566406 196.269531 L 168.566406 227.800781 C 168.566406 257.285156 152.0625 264.003906 152.0625 264.003906 L 223.023438 264.003906 C 223.023438 264.003906 206.527344 257.285156 206.527344 227.800781 Z M 206.527344 227.800781 " fill-opacity="1" fill-rule="nonzero"/><path fill="#2d3444" d="M 108.535156 358.339844 L 266.558594 358.339844 L 266.558594 373.957031 L 108.535156 373.957031 Z M 108.535156 358.339844 " fill-opacity="1" fill-rule="nonzero"/><path fill="#464d5d" d="M 257.132812 348.90625 L 117.960938 348.90625 C 117.339844 348.90625 116.726562 348.96875 116.121094 349.089844 C 115.511719 349.210938 114.925781 349.386719 114.351562 349.625 C 113.78125 349.863281 113.238281 350.152344 112.722656 350.496094 C 112.207031 350.839844 111.730469 351.234375 111.292969 351.671875 C 110.855469 352.109375 110.464844 352.585938 110.121094 353.101562 C 109.777344 353.613281 109.488281 354.160156 109.25 354.730469 C 109.015625 355.304688 108.835938 355.894531 108.714844 356.5 C 108.59375 357.109375 108.535156 357.722656 108.535156 358.339844 L 266.558594 358.339844 C 266.558594 357.722656 266.5 357.109375 266.378906 356.5 C 266.257812 355.894531 266.078125 355.304688 265.84375 354.730469 C 265.605469 354.160156 265.316406 353.613281 264.972656 353.097656 C 264.628906 352.585938 264.238281 352.109375 263.800781 351.667969 C 263.363281 351.230469 262.886719 350.839844 262.371094 350.496094 C 261.855469 350.152344 261.3125 349.863281 260.742188 349.625 C 260.167969 349.386719 259.582031 349.207031 258.972656 349.085938 C 258.367188 348.964844 257.753906 348.90625 257.132812 348.90625 Z M 257.132812 348.90625 " fill-opacity="1" fill-rule="nonzero"/><path fill="#2d3444" d="M 240.792969 283.742188 L 134.292969 283.742188 C 133.757812 283.742188 133.226562 283.765625 132.691406 283.820312 C 132.160156 283.871094 131.632812 283.949219 131.105469 284.054688 C 130.582031 284.160156 130.0625 284.289062 129.550781 284.445312 C 129.039062 284.601562 128.535156 284.78125 128.042969 284.984375 C 127.546875 285.191406 127.066406 285.417969 126.59375 285.671875 C 126.121094 285.921875 125.664062 286.199219 125.21875 286.496094 C 124.773438 286.792969 124.34375 287.109375 123.929688 287.449219 C 123.519531 287.789062 123.121094 288.148438 122.742188 288.527344 C 122.367188 288.90625 122.007812 289.300781 121.667969 289.714844 C 121.328125 290.128906 121.007812 290.558594 120.710938 291.003906 C 120.414062 291.449219 120.140625 291.90625 119.886719 292.378906 C 119.636719 292.851562 119.40625 293.335938 119.203125 293.828125 C 119 294.324219 118.816406 294.828125 118.664062 295.339844 C 118.507812 295.851562 118.378906 296.371094 118.273438 296.894531 C 118.167969 297.421875 118.089844 297.949219 118.039062 298.480469 C 117.984375 299.015625 117.960938 299.550781 117.960938 300.085938 L 117.960938 348.917969 L 257.132812 348.917969 L 257.132812 300.085938 C 257.132812 299.550781 257.109375 299.015625 257.054688 298.480469 C 257.003906 297.949219 256.925781 297.421875 256.820312 296.894531 C 256.714844 296.371094 256.585938 295.851562 256.429688 295.339844 C 256.273438 294.828125 256.09375 294.324219 255.890625 293.828125 C 255.683594 293.332031 255.457031 292.851562 255.203125 292.378906 C 254.953125 291.90625 254.675781 291.449219 254.378906 291.003906 C 254.082031 290.558594 253.765625 290.128906 253.425781 289.714844 C 253.085938 289.300781 252.726562 288.902344 252.347656 288.527344 C 251.96875 288.148438 251.574219 287.789062 251.160156 287.449219 C 250.746094 287.109375 250.316406 286.789062 249.871094 286.492188 C 249.425781 286.195312 248.96875 285.921875 248.496094 285.667969 C 248.023438 285.417969 247.542969 285.1875 247.046875 284.984375 C 246.550781 284.777344 246.050781 284.597656 245.539062 284.441406 C 245.023438 284.289062 244.507812 284.15625 243.980469 284.054688 C 243.457031 283.949219 242.929688 283.871094 242.394531 283.820312 C 241.863281 283.765625 241.328125 283.742188 240.792969 283.742188 Z M 240.792969 283.742188 " fill-opacity="1" fill-rule="nonzero"/><path fill="#fbbb26" d="M 152.070312 264.003906 L 223.023438 264.003906 L 223.023438 274.707031 L 152.070312 274.707031 Z M 152.070312 264.003906 " fill-opacity="1" fill-rule="nonzero"/><g clip-path="url(#id1)"><path fill="#fbd55d" d="M 277.121094 39.101562 L 277.121094 19.011719 L 97.972656 19.011719 L 97.972656 39.101562 L 50.320312 39.101562 L 50.320312 79.027344 C 50.320312 81.007812 50.40625 82.980469 50.582031 84.953125 C 50.753906 86.925781 51.015625 88.886719 51.367188 90.832031 C 51.714844 92.78125 52.148438 94.710938 52.671875 96.621094 C 53.191406 98.53125 53.796875 100.414062 54.484375 102.269531 C 55.171875 104.125 55.941406 105.945312 56.789062 107.734375 C 57.640625 109.519531 58.570312 111.265625 59.574219 112.972656 C 60.578125 114.675781 61.660156 116.332031 62.8125 117.941406 C 63.964844 119.550781 65.1875 121.101562 66.480469 122.601562 C 67.769531 124.101562 69.125 125.542969 70.542969 126.921875 C 71.964844 128.300781 73.441406 129.613281 74.976562 130.859375 C 76.515625 132.105469 78.101562 133.28125 79.742188 134.386719 C 81.382812 135.492188 83.070312 136.523438 84.804688 137.480469 C 86.535156 138.433594 88.308594 139.3125 90.117188 140.109375 C 91.929688 140.90625 93.773438 141.621094 95.644531 142.253906 C 97.519531 142.890625 99.417969 143.4375 101.34375 143.902344 C 103.265625 144.367188 105.203125 144.742188 107.160156 145.035156 C 121.769531 174.683594 152.277344 195.082031 187.546875 195.082031 C 222.816406 195.082031 253.324219 174.683594 267.933594 145.035156 C 269.890625 144.742188 271.832031 144.367188 273.753906 143.902344 C 275.675781 143.4375 277.574219 142.886719 279.449219 142.253906 C 281.324219 141.621094 283.167969 140.90625 284.976562 140.109375 C 286.789062 139.3125 288.558594 138.433594 290.292969 137.480469 C 292.023438 136.523438 293.710938 135.492188 295.351562 134.386719 C 296.992188 133.28125 298.582031 132.105469 300.117188 130.859375 C 301.652344 129.609375 303.128906 128.296875 304.550781 126.917969 C 305.96875 125.539062 307.324219 124.101562 308.617188 122.601562 C 309.90625 121.101562 311.128906 119.546875 312.28125 117.941406 C 313.433594 116.332031 314.515625 114.675781 315.519531 112.96875 C 316.527344 111.265625 317.453125 109.519531 318.304688 107.734375 C 319.152344 105.945312 319.921875 104.125 320.609375 102.269531 C 321.300781 100.414062 321.902344 98.53125 322.425781 96.621094 C 322.945312 94.710938 323.378906 92.78125 323.726562 90.832031 C 324.078125 88.886719 324.339844 86.925781 324.511719 84.953125 C 324.6875 82.980469 324.773438 81.007812 324.773438 79.027344 L 324.773438 39.101562 Z M 66.945312 79.027344 L 66.945312 55.738281 L 97.972656 55.738281 L 97.972656 105.464844 C 97.96875 112.507812 98.78125 119.453125 100.40625 126.300781 C 80.9375 119.417969 66.945312 100.828125 66.945312 79.027344 Z M 308.148438 79.027344 C 308.148438 100.828125 294.15625 119.417969 274.683594 126.289062 C 276.3125 119.445312 277.125 112.503906 277.121094 105.464844 L 277.121094 55.738281 L 308.148438 55.738281 Z M 308.148438 79.027344 " fill-opacity="1" fill-rule="nonzero"/></g><path fill="#fbbb26" d="M 249.742188 19.007812 L 249.742188 95.929688 C 249.742188 145.429688 209.636719 185.558594 160.164062 185.558594 C 155.015625 185.558594 149.902344 185.121094 144.828125 184.246094 C 151.382812 187.8125 158.277344 190.511719 165.511719 192.347656 C 172.746094 194.183594 180.09375 195.09375 187.554688 195.082031 C 237.027344 195.082031 277.128906 154.953125 277.128906 105.453125 L 277.128906 19.007812 Z M 249.742188 19.007812 " fill-opacity="1" fill-rule="nonzero"/><path fill="#fbbb26" d="M 163.425781 188.035156 L 163.425781 195.152344 C 163.425781 195.488281 163.457031 195.824219 163.523438 196.15625 C 163.589844 196.488281 163.6875 196.808594 163.816406 197.121094 C 163.945312 197.433594 164.105469 197.730469 164.292969 198.011719 C 164.480469 198.292969 164.691406 198.550781 164.929688 198.789062 C 165.167969 199.027344 165.429688 199.242188 165.710938 199.429688 C 165.988281 199.617188 166.285156 199.777344 166.597656 199.90625 C 166.910156 200.035156 167.230469 200.132812 167.5625 200.199219 C 167.894531 200.265625 168.226562 200.300781 168.566406 200.300781 L 206.519531 200.300781 C 206.859375 200.300781 207.191406 200.265625 207.523438 200.199219 C 207.855469 200.132812 208.175781 200.035156 208.488281 199.90625 C 208.800781 199.777344 209.097656 199.621094 209.378906 199.429688 C 209.660156 199.242188 209.917969 199.03125 210.15625 198.792969 C 210.394531 198.550781 210.609375 198.292969 210.796875 198.011719 C 210.984375 197.730469 211.140625 197.433594 211.269531 197.121094 C 211.402344 196.808594 211.5 196.488281 211.5625 196.15625 C 211.628906 195.824219 211.664062 195.488281 211.664062 195.152344 L 211.664062 188.035156 Z M 163.425781 188.035156 " fill-opacity="1" fill-rule="nonzero"/><g clip-path="url(#id2)"><path fill="#fbd55d" d="M 281.695312 1.382812 L 93.402344 1.382812 C 92.824219 1.382812 92.25 1.4375 91.683594 1.550781 C 91.117188 1.664062 90.566406 1.832031 90.03125 2.054688 C 89.496094 2.273438 88.988281 2.546875 88.507812 2.867188 C 88.027344 3.1875 87.582031 3.554688 87.175781 3.964844 C 86.765625 4.371094 86.398438 4.816406 86.078125 5.296875 C 85.757812 5.78125 85.488281 6.289062 85.265625 6.820312 C 85.042969 7.355469 84.875 7.90625 84.765625 8.476562 C 84.652344 9.042969 84.59375 9.617188 84.59375 10.195312 C 84.59375 10.773438 84.652344 11.347656 84.765625 11.914062 C 84.875 12.480469 85.042969 13.03125 85.265625 13.566406 C 85.488281 14.101562 85.757812 14.609375 86.078125 15.089844 C 86.398438 15.570312 86.765625 16.015625 87.175781 16.425781 C 87.582031 16.835938 88.027344 17.199219 88.507812 17.519531 C 88.988281 17.84375 89.496094 18.113281 90.03125 18.335938 C 90.566406 18.558594 91.117188 18.722656 91.683594 18.835938 C 92.25 18.949219 92.824219 19.007812 93.402344 19.007812 L 281.695312 19.007812 C 282.273438 19.007812 282.84375 18.949219 283.414062 18.835938 C 283.980469 18.722656 284.53125 18.558594 285.066406 18.335938 C 285.597656 18.113281 286.105469 17.84375 286.585938 17.519531 C 287.070312 17.199219 287.511719 16.835938 287.921875 16.425781 C 288.332031 16.015625 288.695312 15.570312 289.015625 15.089844 C 289.339844 14.609375 289.609375 14.101562 289.832031 13.566406 C 290.050781 13.03125 290.21875 12.480469 290.332031 11.914062 C 290.445312 11.347656 290.5 10.773438 290.5 10.195312 C 290.5 9.617188 290.445312 9.042969 290.332031 8.476562 C 290.21875 7.90625 290.050781 7.355469 289.832031 6.820312 C 289.609375 6.289062 289.339844 5.78125 289.015625 5.296875 C 288.695312 4.816406 288.332031 4.371094 287.921875 3.964844 C 287.511719 3.554688 287.070312 3.1875 286.585938 2.867188 C 286.105469 2.546875 285.597656 2.273438 285.066406 2.054688 C 284.53125 1.832031 283.980469 1.664062 283.414062 1.550781 C 282.84375 1.4375 282.273438 1.382812 281.695312 1.382812 Z M 281.695312 1.382812 " fill-opacity="1" fill-rule="nonzero"/></g><path fill="#ffffff" d="M 109.28125 7.652344 L 94.84375 7.652344 C 94.5 7.640625 94.167969 7.695312 93.84375 7.820312 C 93.523438 7.945312 93.238281 8.125 92.992188 8.367188 C 92.742188 8.605469 92.550781 8.886719 92.417969 9.203125 C 92.28125 9.519531 92.214844 9.851562 92.214844 10.195312 C 92.214844 10.539062 92.28125 10.871094 92.417969 11.1875 C 92.550781 11.507812 92.742188 11.785156 92.992188 12.023438 C 93.238281 12.265625 93.523438 12.445312 93.84375 12.570312 C 94.167969 12.695312 94.5 12.75 94.84375 12.738281 L 109.28125 12.738281 C 109.625 12.75 109.957031 12.695312 110.28125 12.570312 C 110.601562 12.445312 110.886719 12.265625 111.132812 12.023438 C 111.382812 11.785156 111.574219 11.507812 111.707031 11.1875 C 111.839844 10.871094 111.910156 10.539062 111.910156 10.195312 C 111.910156 9.851562 111.839844 9.519531 111.707031 9.203125 C 111.574219 8.886719 111.382812 8.605469 111.132812 8.367188 C 110.886719 8.125 110.601562 7.945312 110.28125 7.820312 C 109.957031 7.695312 109.625 7.640625 109.28125 7.652344 Z M 109.28125 7.652344 " fill-opacity="1" fill-rule="nonzero"/><path fill="#ffffff" d="M 127.144531 7.652344 L 122.09375 7.652344 C 121.761719 7.664062 121.445312 7.734375 121.144531 7.871094 C 120.84375 8.003906 120.578125 8.1875 120.347656 8.425781 C 120.121094 8.664062 119.941406 8.933594 119.820312 9.242188 C 119.695312 9.546875 119.632812 9.867188 119.632812 10.195312 C 119.632812 10.527344 119.695312 10.84375 119.820312 11.148438 C 119.941406 11.457031 120.121094 11.726562 120.347656 11.964844 C 120.578125 12.203125 120.84375 12.386719 121.144531 12.523438 C 121.445312 12.65625 121.761719 12.726562 122.09375 12.738281 L 127.144531 12.738281 C 127.488281 12.75 127.820312 12.695312 128.140625 12.570312 C 128.464844 12.445312 128.75 12.265625 128.996094 12.023438 C 129.242188 11.785156 129.433594 11.507812 129.570312 11.1875 C 129.703125 10.871094 129.769531 10.539062 129.769531 10.195312 C 129.769531 9.851562 129.703125 9.519531 129.570312 9.203125 C 129.433594 8.886719 129.242188 8.605469 128.996094 8.367188 C 128.75 8.125 128.464844 7.945312 128.140625 7.820312 C 127.820312 7.695312 127.488281 7.640625 127.144531 7.652344 Z M 127.144531 7.652344 " fill-opacity="1" fill-rule="nonzero"/><path fill="#fbd55d" d="M 229.011719 274.707031 L 146.082031 274.707031 C 145.488281 274.707031 144.902344 274.765625 144.320312 274.882812 C 143.738281 274.996094 143.175781 275.167969 142.625 275.394531 C 142.078125 275.621094 141.558594 275.898438 141.066406 276.230469 C 140.570312 276.558594 140.117188 276.933594 139.695312 277.351562 C 139.277344 277.773438 138.902344 278.226562 138.574219 278.722656 C 138.246094 279.214844 137.964844 279.734375 137.738281 280.285156 C 137.511719 280.832031 137.339844 281.394531 137.226562 281.976562 C 137.109375 282.558594 137.050781 283.148438 137.050781 283.742188 L 238.039062 283.742188 C 238.039062 283.148438 237.980469 282.558594 237.867188 281.976562 C 237.75 281.398438 237.578125 280.832031 237.351562 280.285156 C 237.125 279.734375 236.847656 279.214844 236.519531 278.722656 C 236.1875 278.230469 235.8125 277.773438 235.394531 277.351562 C 234.976562 276.933594 234.519531 276.558594 234.027344 276.230469 C 233.535156 275.902344 233.015625 275.621094 232.464844 275.394531 C 231.917969 275.167969 231.355469 274.996094 230.773438 274.882812 C 230.191406 274.765625 229.605469 274.707031 229.011719 274.707031 Z M 229.011719 274.707031 " fill-opacity="1" fill-rule="nonzero"/><path fill="#464d5d" d="M 239.488281 288.253906 L 239.488281 304.292969 C 239.488281 305.367188 239.4375 306.4375 239.332031 307.503906 C 239.226562 308.574219 239.070312 309.636719 238.859375 310.6875 C 238.648438 311.742188 238.390625 312.78125 238.078125 313.808594 C 237.765625 314.835938 237.40625 315.847656 236.996094 316.835938 C 236.582031 317.828125 236.125 318.800781 235.621094 319.746094 C 235.113281 320.691406 234.5625 321.613281 233.964844 322.503906 C 233.371094 323.398438 232.730469 324.257812 232.050781 325.089844 C 231.371094 325.917969 230.648438 326.714844 229.890625 327.472656 C 229.132812 328.230469 228.339844 328.953125 227.507812 329.632812 C 226.679688 330.316406 225.820312 330.953125 224.925781 331.550781 C 224.035156 332.148438 223.113281 332.699219 222.167969 333.203125 C 221.222656 333.710938 220.253906 334.167969 219.261719 334.578125 C 218.269531 334.992188 217.261719 335.351562 216.234375 335.664062 C 215.207031 335.976562 214.167969 336.234375 213.117188 336.445312 C 212.0625 336.652344 211.003906 336.8125 209.933594 336.917969 C 208.867188 337.023438 207.796875 337.074219 206.722656 337.074219 L 117.960938 337.074219 L 117.960938 300.085938 C 117.960938 299.550781 117.984375 299.015625 118.039062 298.480469 C 118.089844 297.949219 118.171875 297.421875 118.273438 296.894531 C 118.378906 296.371094 118.507812 295.851562 118.664062 295.339844 C 118.820312 294.828125 119 294.324219 119.203125 293.828125 C 119.410156 293.335938 119.636719 292.851562 119.890625 292.378906 C 120.140625 291.90625 120.417969 291.449219 120.714844 291.003906 C 121.011719 290.558594 121.328125 290.128906 121.667969 289.714844 C 122.007812 289.300781 122.367188 288.90625 122.746094 288.527344 C 123.125 288.148438 123.519531 287.789062 123.933594 287.449219 C 124.347656 287.109375 124.777344 286.792969 125.21875 286.496094 C 125.664062 286.199219 126.125 285.921875 126.59375 285.671875 C 127.066406 285.417969 127.550781 285.1875 128.042969 284.984375 C 128.539062 284.78125 129.042969 284.601562 129.554688 284.445312 C 130.066406 284.289062 130.582031 284.160156 131.109375 284.054688 C 131.632812 283.949219 132.160156 283.871094 132.691406 283.820312 C 133.226562 283.765625 133.757812 283.742188 134.292969 283.742188 L 238.855469 283.742188 C 239.277344 285.214844 239.488281 286.71875 239.488281 288.253906 Z M 239.488281 288.253906 " fill-opacity="1" fill-rule="nonzero"/><path fill="#000000" d="M 97.972656 19.007812 L 277.121094 19.007812 L 277.121094 28.960938 L 97.972656 28.960938 Z M 97.972656 19.007812 " fill-opacity="0.098" fill-rule="nonzero"/><path fill="#fbd55d" d="M 222.109375 325.535156 L 222.109375 307.117188 C 221.78125 307.117188 221.453125 307.085938 221.128906 307.019531 C 220.808594 306.957031 220.492188 306.859375 220.1875 306.734375 C 219.882812 306.609375 219.59375 306.453125 219.320312 306.269531 C 219.046875 306.085938 218.792969 305.878906 218.558594 305.644531 C 218.328125 305.410156 218.117188 305.160156 217.9375 304.882812 C 217.753906 304.609375 217.597656 304.320312 217.472656 304.015625 C 217.347656 303.710938 217.25 303.398438 217.1875 303.074219 C 217.121094 302.75 217.089844 302.421875 217.089844 302.09375 L 158.015625 302.09375 C 158.015625 302.421875 157.984375 302.75 157.917969 303.074219 C 157.855469 303.398438 157.757812 303.710938 157.632812 304.015625 C 157.507812 304.320312 157.351562 304.609375 157.167969 304.882812 C 156.984375 305.160156 156.777344 305.410156 156.542969 305.644531 C 156.3125 305.878906 156.058594 306.085938 155.785156 306.269531 C 155.511719 306.453125 155.21875 306.609375 154.917969 306.734375 C 154.613281 306.859375 154.296875 306.957031 153.972656 307.019531 C 153.652344 307.085938 153.324219 307.117188 152.996094 307.117188 L 152.996094 325.535156 C 153.324219 325.535156 153.652344 325.566406 153.972656 325.628906 C 154.296875 325.695312 154.613281 325.789062 154.917969 325.914062 C 155.21875 326.042969 155.511719 326.195312 155.785156 326.378906 C 156.058594 326.5625 156.3125 326.769531 156.542969 327.003906 C 156.777344 327.238281 156.984375 327.492188 157.167969 327.765625 C 157.351562 328.039062 157.507812 328.328125 157.632812 328.632812 C 157.757812 328.9375 157.855469 329.253906 157.917969 329.578125 C 157.984375 329.898438 158.015625 330.226562 158.015625 330.554688 L 217.089844 330.554688 C 217.089844 330.226562 217.121094 329.898438 217.1875 329.578125 C 217.25 329.253906 217.347656 328.9375 217.472656 328.632812 C 217.597656 328.328125 217.753906 328.039062 217.9375 327.765625 C 218.117188 327.492188 218.328125 327.238281 218.558594 327.003906 C 218.792969 326.769531 219.046875 326.5625 219.320312 326.378906 C 219.59375 326.195312 219.882812 326.042969 220.1875 325.914062 C 220.492188 325.789062 220.808594 325.695312 221.128906 325.628906 C 221.453125 325.566406 221.78125 325.535156 222.109375 325.535156 Z M 222.109375 325.535156 " fill-opacity="1" fill-rule="nonzero"/><path fill="#fbbb26" d="M 219.457031 316.324219 C 219.457031 316.570312 219.410156 316.804688 219.316406 317.03125 C 219.222656 317.257812 219.089844 317.457031 218.917969 317.632812 C 218.742188 317.804688 218.542969 317.9375 218.316406 318.03125 C 218.089844 318.125 217.855469 318.171875 217.609375 318.171875 C 217.367188 318.171875 217.132812 318.125 216.90625 318.03125 C 216.679688 317.9375 216.480469 317.804688 216.304688 317.632812 C 216.132812 317.457031 216 317.257812 215.90625 317.03125 C 215.8125 316.804688 215.765625 316.570312 215.765625 316.324219 C 215.765625 316.078125 215.8125 315.84375 215.90625 315.617188 C 216 315.390625 216.132812 315.191406 216.304688 315.019531 C 216.480469 314.84375 216.679688 314.710938 216.90625 314.617188 C 217.132812 314.523438 217.367188 314.476562 217.609375 314.476562 C 217.855469 314.476562 218.089844 314.523438 218.316406 314.617188 C 218.542969 314.710938 218.742188 314.84375 218.917969 315.019531 C 219.089844 315.191406 219.222656 315.390625 219.316406 315.617188 C 219.410156 315.84375 219.457031 316.078125 219.457031 316.324219 Z M 219.457031 316.324219 " fill-opacity="1" fill-rule="nonzero"/><path fill="#fbbb26" d="M 159.351562 316.324219 C 159.351562 316.570312 159.304688 316.804688 159.210938 317.03125 C 159.117188 317.257812 158.984375 317.457031 158.808594 317.632812 C 158.636719 317.804688 158.4375 317.9375 158.210938 318.03125 C 157.984375 318.125 157.75 318.171875 157.503906 318.171875 C 157.261719 318.171875 157.023438 318.125 156.796875 318.03125 C 156.570312 317.9375 156.371094 317.804688 156.199219 317.632812 C 156.027344 317.457031 155.894531 317.257812 155.800781 317.03125 C 155.707031 316.804688 155.660156 316.570312 155.660156 316.324219 C 155.660156 316.078125 155.707031 315.84375 155.800781 315.617188 C 155.894531 315.390625 156.027344 315.191406 156.199219 315.019531 C 156.371094 314.84375 156.570312 314.710938 156.796875 314.617188 C 157.023438 314.523438 157.261719 314.476562 157.503906 314.476562 C 157.75 314.476562 157.984375 314.523438 158.210938 314.617188 C 158.4375 314.710938 158.636719 314.84375 158.808594 315.019531 C 158.984375 315.191406 159.117188 315.390625 159.210938 315.617188 C 159.304688 315.84375 159.351562 316.078125 159.351562 316.324219 Z M 159.351562 316.324219 " fill-opacity="1" fill-rule="nonzero"/></svg>