<svg xmlns="http://www.w3.org/2000/svg" xmlns:xlink="http://www.w3.org/1999/xlink" width="500" zoomAndPan="magnify" viewBox="0 0 375 374.999991" height="500" preserveAspectRatio="xMidYMid meet" version="1.0"><defs><clipPath id="id1"><path d="M 51.226562 37.117188 L 374.25 37.117188 L 374.25 356.125 L 51.226562 356.125 Z M 51.226562 37.117188 " clip-rule="nonzero"/></clipPath></defs><g clip-path="url(#id1)"><path fill="#f7cd3c" d="M 369.507812 124.15625 C 355.691406 147.398438 350.480469 174.660156 354.835938 200.921875 C 356.285156 209.640625 358.085938 220.492188 358.976562 231.386719 C 359.957031 243.425781 359.734375 254.179688 358.285156 264.261719 C 354.578125 290.097656 342.578125 312.84375 321.601562 333.804688 C 306.773438 348.621094 288.550781 356.125 267.425781 356.125 C 266.929688 356.125 266.433594 356.121094 265.9375 356.113281 C 249.003906 355.835938 230.070312 350.765625 209.671875 341.054688 C 193.472656 333.339844 176.292969 322.6875 158.609375 309.390625 C 129.523438 287.515625 108.507812 265.476562 107.003906 263.890625 L 66.574219 227.632812 C 62.105469 223.625 59.464844 218.117188 59.140625 212.125 C 58.8125 206.132812 60.84375 200.371094 64.855469 195.90625 C 68.867188 191.441406 74.378906 188.800781 80.378906 188.476562 C 86.34375 188.15625 92.082031 190.164062 96.542969 194.132812 L 140.484375 228.925781 C 140.765625 229.144531 141.050781 229.109375 141.199219 229.066406 C 141.34375 229.019531 141.605469 228.898438 141.722656 228.566406 C 141.828125 228.261719 141.738281 227.929688 141.5 227.71875 C 139.777344 226.203125 135.84375 222.667969 126.332031 214.132812 C 114.367188 203.390625 94.339844 185.414062 58.996094 153.746094 C 54.527344 149.734375 51.886719 144.230469 51.5625 138.234375 C 51.234375 132.242188 53.269531 126.484375 57.277344 122.015625 C 61.292969 117.550781 66.804688 114.914062 72.796875 114.589844 C 78.796875 114.261719 84.5625 116.292969 89.03125 120.300781 L 154.609375 179.105469 C 152.121094 176.621094 148.855469 173.351562 144.523438 169.007812 C 132.503906 156.957031 112.386719 136.785156 77.945312 102.46875 C 69.175781 93.703125 69.175781 79.449219 77.941406 70.691406 C 82.1875 66.449219 87.835938 64.109375 93.84375 64.109375 C 99.847656 64.109375 105.492188 66.449219 109.738281 70.6875 C 145.417969 106.347656 165.476562 126.382812 177.457031 138.351562 C 184.675781 145.558594 188.648438 149.527344 190.761719 151.644531 C 191.074219 151.957031 191.4375 152.003906 191.628906 152.003906 C 191.820312 152.003906 192.183594 151.957031 192.496094 151.648438 C 192.933594 151.210938 192.976562 150.515625 192.601562 150.027344 L 133.644531 73.667969 C 129.976562 68.914062 128.378906 63.019531 129.144531 57.070312 C 129.914062 51.117188 132.957031 45.820312 137.710938 42.15625 C 142.46875 38.488281 148.367188 36.894531 154.324219 37.660156 C 160.28125 38.429688 165.582031 41.46875 169.25 46.21875 L 231.769531 127.195312 C 239.808594 137.609375 250.007812 147.4375 259.742188 154.148438 C 270.863281 161.820312 280.558594 165.007812 287.789062 163.378906 C 294.941406 161.765625 299.808594 155.210938 302.257812 143.898438 C 305.4375 129.207031 312.261719 116.882812 322.535156 107.265625 C 331.1875 99.167969 340.507812 94.710938 346.800781 92.394531 C 354.292969 89.640625 362.558594 91.1875 368.382812 96.433594 C 371.730469 99.453125 373.675781 103.109375 374.164062 107.300781 C 374.746094 112.3125 373.179688 117.980469 369.507812 124.15625 " fill-opacity="1" fill-rule="nonzero"/><path fill="#d19119" d="M 364.8125 121.371094 C 350.339844 145.71875 344.882812 174.289062 349.449219 201.8125 C 352.539062 220.417969 356.039062 241.507812 352.878906 263.484375 C 349.34375 288.113281 337.851562 309.851562 317.738281 329.945312 C 310.421875 337.257812 302.164062 342.699219 293.1875 346.125 C 284.886719 349.292969 275.75 350.816406 266.035156 350.65625 C 249.898438 350.394531 231.742188 345.511719 212.066406 336.152344 C 196.203125 328.605469 179.347656 318.152344 161.964844 305.085938 C 132.28125 282.773438 111.113281 260.292969 110.902344 260.070312 L 110.824219 259.980469 L 70.21875 223.574219 C 66.835938 220.539062 64.839844 216.367188 64.589844 211.832031 C 64.347656 207.292969 65.882812 202.933594 68.921875 199.550781 C 71.957031 196.167969 76.132812 194.171875 80.671875 193.925781 C 80.988281 193.910156 81.300781 193.902344 81.613281 193.902344 C 85.8125 193.902344 89.8125 195.425781 92.960938 198.253906 L 93.023438 198.308594 L 137.09375 233.203125 C 138.679688 234.457031 140.789062 234.871094 142.730469 234.300781 C 144.671875 233.734375 146.226562 232.253906 146.882812 230.34375 C 147.714844 227.9375 147.015625 225.300781 145.109375 223.625 C 143.410156 222.125 139.476562 218.597656 129.980469 210.074219 C 118.015625 199.332031 97.988281 181.355469 62.644531 149.683594 C 59.257812 146.648438 57.257812 142.476562 57.015625 137.941406 C 56.769531 133.40625 58.304688 129.042969 61.34375 125.660156 C 64.382812 122.28125 68.554688 120.28125 73.097656 120.035156 C 77.632812 119.792969 82 121.328125 85.382812 124.363281 L 159.183594 190.539062 C 160.335938 191.570312 161.875 192.039062 163.410156 191.828125 C 164.941406 191.613281 166.296875 190.738281 167.121094 189.425781 C 168.492188 187.242188 168.050781 184.335938 166.089844 182.664062 C 164.519531 181.320312 160.78125 177.574219 148.394531 165.152344 C 136.371094 153.101562 116.25 132.929688 81.800781 98.605469 C 75.164062 91.972656 75.164062 81.179688 81.800781 74.546875 C 85.019531 71.335938 89.292969 69.566406 93.84375 69.566406 C 98.386719 69.566406 102.664062 71.335938 105.878906 74.546875 C 141.554688 110.207031 161.613281 130.242188 173.597656 142.210938 C 180.808594 149.414062 184.785156 153.382812 186.894531 155.496094 C 188.15625 156.761719 189.835938 157.460938 191.625 157.460938 L 191.628906 157.460938 C 193.417969 157.460938 195.097656 156.765625 196.359375 155.503906 C 198.730469 153.136719 198.972656 149.347656 196.925781 146.695312 L 137.96875 70.335938 C 135.191406 66.738281 133.980469 62.273438 134.5625 57.769531 C 135.144531 53.261719 137.449219 49.25 141.046875 46.472656 C 144.648438 43.699219 149.113281 42.492188 153.625 43.070312 C 158.136719 43.652344 162.148438 45.953125 164.925781 49.550781 L 227.445312 130.527344 C 235.820312 141.371094 246.460938 151.617188 256.644531 158.640625 C 264.003906 163.71875 274.246094 169.242188 283.953125 169.242188 C 285.65625 169.242188 287.34375 169.070312 288.992188 168.699219 C 293.5625 167.667969 297.453125 165.195312 300.550781 161.34375 C 303.742188 157.378906 306.113281 151.898438 307.59375 145.054688 C 310.535156 131.464844 316.820312 120.09375 326.269531 111.25 C 334.25 103.777344 342.867188 99.65625 348.6875 97.515625 C 350.523438 96.839844 352.421875 96.511719 354.296875 96.511719 C 358.117188 96.511719 361.832031 97.878906 364.726562 100.484375 C 367.058594 102.589844 368.410156 105.09375 368.738281 107.933594 C 369.179688 111.726562 367.859375 116.246094 364.8125 121.371094 Z M 374.164062 107.300781 C 373.675781 103.109375 371.730469 99.453125 368.382812 96.433594 C 362.558594 91.1875 354.292969 89.640625 346.800781 92.394531 C 340.507812 94.710938 331.1875 99.167969 322.535156 107.265625 C 312.261719 116.882812 305.4375 129.207031 302.257812 143.898438 C 299.808594 155.210938 294.941406 161.765625 287.789062 163.378906 C 280.558594 165.007812 270.863281 161.820312 259.742188 154.148438 C 250.007812 147.4375 239.808594 137.609375 231.769531 127.195312 L 169.25 46.21875 C 165.582031 41.46875 160.28125 38.429688 154.324219 37.660156 C 148.367188 36.894531 142.46875 38.488281 137.710938 42.15625 C 132.957031 45.820312 129.914062 51.117188 129.144531 57.070312 C 128.378906 63.019531 129.976562 68.914062 133.644531 73.667969 L 192.601562 150.027344 C 192.976562 150.515625 192.933594 151.210938 192.496094 151.648438 C 192.183594 151.957031 191.820312 152.003906 191.628906 152.003906 C 191.4375 152.003906 191.074219 151.957031 190.761719 151.644531 C 188.648438 149.527344 184.675781 145.558594 177.457031 138.351562 C 165.476562 126.382812 145.417969 106.347656 109.738281 70.6875 C 105.492188 66.449219 99.847656 64.109375 93.84375 64.109375 C 87.835938 64.109375 82.1875 66.449219 77.941406 70.691406 C 69.175781 79.449219 69.175781 93.703125 77.945312 102.46875 C 112.386719 136.785156 132.503906 156.957031 144.523438 169.007812 C 148.855469 173.351562 152.121094 176.621094 154.609375 179.105469 L 89.03125 120.300781 C 84.5625 116.292969 78.796875 114.261719 72.796875 114.589844 C 66.804688 114.914062 61.292969 117.550781 57.277344 122.015625 C 53.269531 126.484375 51.234375 132.242188 51.5625 138.234375 C 51.886719 144.230469 54.527344 149.734375 58.996094 153.746094 C 94.339844 185.414062 114.367188 203.390625 126.332031 214.132812 C 135.84375 222.667969 139.777344 226.203125 141.5 227.71875 C 141.738281 227.929688 141.828125 228.261719 141.722656 228.566406 C 141.605469 228.898438 141.34375 229.019531 141.199219 229.066406 C 141.050781 229.109375 140.765625 229.144531 140.484375 228.925781 L 96.542969 194.132812 C 92.082031 190.164062 86.34375 188.15625 80.378906 188.476562 C 74.378906 188.800781 68.867188 191.441406 64.855469 195.90625 C 60.84375 200.371094 58.8125 206.132812 59.140625 212.125 C 59.464844 218.117188 62.105469 223.625 66.574219 227.632812 L 107.003906 263.890625 C 108.507812 265.476562 129.523438 287.515625 158.609375 309.390625 C 176.292969 322.6875 193.472656 333.339844 209.671875 341.054688 C 230.070312 350.765625 249.003906 355.835938 265.9375 356.113281 C 266.433594 356.121094 266.929688 356.125 267.425781 356.125 C 288.550781 356.125 306.773438 348.621094 321.601562 333.804688 C 342.578125 312.84375 354.578125 290.097656 358.285156 264.261719 C 359.734375 254.179688 359.957031 243.425781 358.976562 231.386719 C 358.085938 220.492188 356.285156 209.640625 354.835938 200.921875 C 350.480469 174.660156 355.691406 147.398438 369.507812 124.15625 C 373.179688 117.980469 374.746094 112.3125 374.164062 107.300781 " fill-opacity="1" fill-rule="nonzero"/></g><path fill="#848483" d="M 279.800781 92.152344 C 278.078125 92.152344 276.597656 90.847656 276.414062 89.097656 C 275.542969 80.863281 273.300781 72.949219 269.75 65.570312 C 266.289062 58.382812 261.675781 51.882812 256.03125 46.242188 C 250.386719 40.605469 243.878906 35.992188 236.6875 32.535156 C 229.304688 28.984375 221.382812 26.746094 213.144531 25.878906 C 211.269531 25.679688 209.910156 24 210.105469 22.128906 C 210.304688 20.253906 211.984375 18.894531 213.859375 19.09375 C 222.878906 20.046875 231.558594 22.5 239.648438 26.390625 C 247.535156 30.179688 254.667969 35.238281 260.859375 41.417969 C 267.046875 47.601562 272.105469 54.734375 275.902344 62.613281 C 279.792969 70.699219 282.25 79.367188 283.199219 88.382812 C 283.398438 90.253906 282.039062 91.933594 280.164062 92.132812 C 280.042969 92.144531 279.921875 92.152344 279.800781 92.152344 " fill-opacity="1" fill-rule="nonzero"/><path fill="#848483" d="M 252.046875 94.703125 C 250.332031 94.703125 248.859375 93.417969 248.660156 91.675781 C 247.519531 81.703125 243.273438 72.785156 236.371094 65.886719 C 229.46875 58.992188 220.542969 54.746094 210.5625 53.609375 C 208.6875 53.394531 207.34375 51.703125 207.558594 49.835938 C 207.769531 47.964844 209.460938 46.617188 211.332031 46.832031 C 217.105469 47.488281 222.628906 49.074219 227.75 51.539062 C 232.757812 53.949219 237.285156 57.15625 241.199219 61.066406 C 245.109375 64.976562 248.316406 69.496094 250.730469 74.5 C 253.199219 79.621094 254.78125 85.136719 255.441406 90.90625 C 255.652344 92.777344 254.308594 94.464844 252.4375 94.679688 C 252.304688 94.695312 252.175781 94.703125 252.046875 94.703125 " fill-opacity="1" fill-rule="nonzero"/><path fill="#848483" d="M 69.917969 301.878906 C 69.800781 301.878906 69.679688 301.871094 69.558594 301.859375 C 60.535156 300.90625 51.859375 298.453125 43.769531 294.5625 C 35.882812 290.773438 28.746094 285.714844 22.558594 279.535156 C 16.371094 273.351562 11.308594 266.21875 7.515625 258.339844 C 3.621094 250.253906 1.167969 241.585938 0.214844 232.570312 C 0.0195312 230.699219 1.378906 229.019531 3.25 228.820312 C 5.125 228.625 6.804688 229.984375 7.003906 231.855469 C 7.871094 240.089844 10.113281 248.007812 13.664062 255.382812 C 17.125 262.570312 21.742188 269.070312 27.382812 274.710938 C 33.027344 280.347656 39.535156 284.960938 46.726562 288.417969 C 54.109375 291.96875 62.03125 294.207031 70.273438 295.074219 C 72.148438 295.273438 73.507812 296.953125 73.308594 298.824219 C 73.125 300.578125 71.644531 301.878906 69.917969 301.878906 " fill-opacity="1" fill-rule="nonzero"/><path fill="#848483" d="M 72.472656 274.144531 C 72.34375 274.144531 72.214844 274.136719 72.082031 274.121094 C 66.3125 273.464844 60.789062 271.878906 55.664062 269.414062 C 50.65625 267.003906 46.132812 263.796875 42.21875 259.886719 C 38.304688 255.976562 35.097656 251.457031 32.683594 246.449219 C 30.214844 241.332031 28.632812 235.816406 27.976562 230.046875 C 27.761719 228.175781 29.105469 226.488281 30.980469 226.273438 C 32.851562 226.0625 34.542969 227.40625 34.757812 229.277344 C 35.894531 239.25 40.144531 248.171875 47.046875 255.066406 C 53.945312 261.960938 62.871094 266.207031 72.855469 267.34375 C 74.726562 267.558594 76.074219 269.25 75.859375 271.117188 C 75.660156 272.859375 74.183594 274.144531 72.472656 274.144531 " fill-opacity="1" fill-rule="nonzero"/></svg>