<svg xmlns="http://www.w3.org/2000/svg" xmlns:xlink="http://www.w3.org/1999/xlink" width="500" zoomAndPan="magnify" viewBox="0 0 375 374.999991" height="500" preserveAspectRatio="xMidYMid meet" version="1.0"><defs><clipPath id="id1"><path d="M 307.472656 267.070312 L 320.203125 267.070312 L 320.203125 287.671875 L 307.472656 287.671875 Z M 307.472656 267.070312 " clip-rule="nonzero"/></clipPath><clipPath id="id2"><path d="M 197.472656 326.09375 L 219.25 326.09375 L 219.25 334.535156 L 197.472656 334.535156 Z M 197.472656 326.09375 " clip-rule="nonzero"/></clipPath></defs><path fill="#ffd105" d="M 187.5 0 C 83.945312 0 0 83.945312 0 187.5 C 0 291.054688 83.945312 375 187.5 375 C 291.054688 375 375 291.054688 375 187.5 C 375 83.945312 291.054688 0 187.5 0 " fill-opacity="1" fill-rule="nonzero"/><path fill="#f3a362" d="M 252.835938 81.316406 C 251.871094 79.070312 251.78125 77.863281 249.570312 78.625 C 248.167969 79.105469 243.707031 80.289062 242.917969 81.542969 C 242.300781 82.5 243.289062 85.183594 243.269531 86.375 C 242.332031 86.1875 241.175781 84.339844 240.425781 84.300781 C 239.464844 84.222656 237.507812 86.980469 236.929688 87.730469 C 242.136719 89.941406 246.113281 92.335938 248.742188 97.722656 C 249.707031 99.421875 249.273438 100.53125 251.03125 100.441406 C 252.445312 100.367188 253.105469 99.507812 253.113281 98.132812 C 253.113281 96.683594 253.039062 94.976562 253.46875 93.578125 C 253.828125 92.410156 254.253906 91.539062 254.347656 90.261719 C 254.574219 87.199219 254.035156 84.148438 252.835938 81.316406 " fill-opacity="1" fill-rule="nonzero"/><path fill="#f3a362" d="M 312.875 110.382812 C 315.195312 109.601562 316.160156 108.867188 317.066406 111.007812 C 317.640625 112.371094 319.738281 116.472656 319.328125 117.898438 C 319.03125 118.996094 316.363281 120.054688 315.488281 120.863281 C 316.253906 121.4375 318.40625 121.058594 318.9375 121.589844 C 319.636719 122.253906 318.886719 125.542969 318.710938 126.476562 C 313.585938 124.085938 309.136719 122.730469 303.363281 124.375 C 301.445312 124.792969 300.910156 125.859375 299.804688 124.492188 C 298.917969 123.394531 299.113281 122.332031 300.140625 121.410156 C 301.214844 120.441406 302.546875 119.355469 303.300781 118.105469 C 303.929688 117.054688 304.300781 116.160156 305.1875 115.238281 C 307.324219 113.019531 309.964844 111.386719 312.875 110.382812 " fill-opacity="1" fill-rule="nonzero"/><path fill="#f3a362" d="M 302.988281 131.003906 C 302.125 116.082031 292.230469 107.394531 284.53125 103.796875 C 276.835938 100.191406 272.117188 103.101562 272.117188 103.101562 C 268.851562 98.21875 263.53125 94.609375 251.097656 97.710938 C 236.308594 101.40625 231.992188 115.847656 231.992188 115.847656 L 272.644531 173.378906 C 292.542969 174.355469 303.851562 145.917969 302.988281 131.003906 " fill-opacity="1" fill-rule="nonzero"/><path fill="#cd66ae" d="M 249.375 96.144531 C 247.066406 95.644531 245.925781 99.152344 248.25 99.660156 C 250.558594 100.164062 251.703125 96.652344 249.375 96.144531 " fill-opacity="1" fill-rule="nonzero"/><path fill="#cd66ae" d="M 253.800781 94.652344 C 251.191406 94.089844 249.902344 98.042969 252.527344 98.621094 C 255.136719 99.1875 256.425781 95.226562 253.800781 94.652344 " fill-opacity="1" fill-rule="nonzero"/><path fill="#cd66ae" d="M 302.441406 120.976562 C 302.707031 120.144531 302.246094 119 301.316406 118.800781 C 300.390625 118.597656 299.4375 118.964844 299.132812 119.921875 C 298.867188 120.753906 299.332031 121.898438 300.257812 122.097656 C 301.179688 122.296875 302.132812 121.9375 302.441406 120.976562 " fill-opacity="1" fill-rule="nonzero"/><path fill="#cd66ae" d="M 302.347656 122.664062 C 299.671875 122.078125 298.351562 126.136719 301.039062 126.722656 C 303.714844 127.308594 305.035156 123.246094 302.347656 122.664062 " fill-opacity="1" fill-rule="nonzero"/><path fill="#f6e0ca" d="M 146.839844 164.328125 C 130.125 169.042969 100.691406 161.453125 94.808594 144.21875 C 89.0625 127.390625 94.078125 109.410156 109.222656 100.386719 C 129.230469 88.460938 159.273438 94.246094 167.390625 117.3125 C 173.882812 135.78125 167.070312 158.234375 146.839844 164.328125 " fill-opacity="1" fill-rule="nonzero"/><path fill="#eea1ab" d="M 102.4375 134.898438 C 99.867188 139.855469 102.988281 142.863281 107.761719 144.1875 C 111.949219 145.355469 114.898438 143.601562 116.363281 139.523438 C 117.160156 137.292969 116.609375 134.753906 114.957031 133.070312 C 110.953125 129.011719 105.015625 129.910156 102.4375 134.898438 " fill-opacity="1" fill-rule="nonzero"/><path fill="#67594c" d="M 140.257812 148.226562 L 140.253906 148.230469 C 140.253906 150.53125 139.273438 152.863281 137.714844 154.332031 C 136.492188 155.464844 135.023438 156.007812 133.449219 155.914062 C 131.597656 155.804688 129.976562 154.71875 129 152.929688 C 127.902344 150.929688 127.863281 148.460938 128.890625 146.625 C 129.089844 146.277344 129.5 146.199219 129.8125 146.296875 C 130.144531 146.40625 130.335938 146.6875 130.296875 147.023438 L 130.132812 148.128906 C 129.984375 149.03125 129.839844 149.859375 129.996094 150.78125 C 130.257812 152.253906 131.546875 153.632812 133.140625 154.125 C 134.117188 154.433594 135.054688 154.273438 135.925781 153.6875 C 137.613281 152.535156 138.660156 150.007812 138.785156 148.21875 C 138.828125 147.75 139.222656 147.511719 139.578125 147.519531 C 139.964844 147.53125 140.253906 147.835938 140.257812 148.226562 " fill-opacity="1" fill-rule="nonzero"/><path fill="#67594c" d="M 139.457031 131.71875 C 139.34375 133.871094 138.59375 135.90625 138.304688 138.03125 C 140.1875 138.316406 141.355469 139.875 141.011719 141.960938 C 140.589844 144.554688 137.351562 145.453125 135.558594 143.644531 C 135.039062 143.121094 135.386719 142.058594 136.21875 142.257812 C 137.265625 142.507812 138.460938 143.210938 139.148438 141.996094 C 139.894531 140.671875 138.847656 139.53125 137.507812 139.53125 C 137.027344 139.53125 136.585938 139.148438 136.6875 138.621094 C 137.144531 136.265625 137.859375 133.980469 138.511719 131.667969 C 138.644531 131.191406 139.476562 131.136719 139.457031 131.71875 " fill-opacity="1" fill-rule="nonzero"/><path fill="#f6e0ca" d="M 81.261719 126.777344 C 79.695312 132.304688 82.175781 137.496094 87.417969 140.132812 C 90.296875 141.578125 94.511719 141.398438 97.265625 139.75 C 103.007812 136.296875 97.515625 127.390625 94.339844 124.171875 C 89.875 119.640625 83.457031 119.039062 81.261719 126.777344 " fill-opacity="1" fill-rule="nonzero"/><path fill="#67594c" d="M 120.847656 133.09375 L 120.855469 133.089844 C 121.105469 133.101562 121.324219 132.941406 121.390625 132.691406 L 121.488281 132.203125 C 121.484375 132.199219 121.546875 131.816406 121.546875 131.816406 L 121.851562 130.285156 C 122.132812 129.800781 122.765625 129.472656 123.394531 129.5 C 123.761719 129.519531 124.054688 129.667969 124.28125 129.984375 C 124.742188 130.609375 124.816406 132.257812 124.617188 132.964844 C 124.527344 133.289062 124.730469 133.566406 124.996094 133.648438 C 125.273438 133.730469 125.570312 133.585938 125.660156 133.304688 C 126.019531 132.300781 125.945312 130.597656 125.496094 129.730469 C 125.140625 129.039062 124.574219 128.566406 123.855469 128.363281 C 123.011719 128.117188 122.113281 128.34375 121.402344 128.972656 C 120.570312 129.710938 120.140625 131.707031 120.300781 132.632812 C 120.34375 132.917969 120.613281 133.082031 120.847656 133.09375 " fill-opacity="1" fill-rule="nonzero"/><path fill="#f3be5f" d="M 166.035156 99.316406 C 158.648438 88.832031 150.613281 84.96875 138.304688 85.238281 C 125.785156 71.585938 84.8125 84.992188 76.902344 131.144531 C 76.003906 137.867188 74.054688 170.039062 80.066406 178.476562 L 104.195312 154.8125 C 90.746094 126.410156 115.535156 121.960938 126.902344 110.597656 C 126.058594 111.585938 124.066406 117.820312 124.113281 119.296875 C 123.929688 123.273438 127.476562 120.585938 129.484375 119.085938 C 128.464844 121.429688 129.773438 125.359375 132.960938 125.386719 C 135.933594 125.296875 137.625 120.710938 139.410156 119.085938 C 136.578125 123.621094 144.113281 131.015625 145.5625 124.253906 C 147.894531 133.121094 153.140625 124.003906 151.371094 117.78125 C 161.175781 129.007812 153.914062 143.519531 164.097656 147.660156 C 181.335938 136.082031 172.761719 108.851562 166.035156 99.316406 " fill-opacity="1" fill-rule="nonzero"/><path fill="#a493d0" d="M 115.226562 121.90625 C 115.074219 120.550781 114.28125 119.265625 113.597656 118.109375 C 113.226562 117.46875 112.847656 116.839844 112.5 116.191406 C 112.160156 115.546875 112.019531 115.011719 111.359375 114.648438 C 110.855469 114.367188 110.28125 114.648438 110.109375 115.175781 C 109.742188 116.324219 110.746094 117.632812 111.300781 118.605469 C 112.019531 119.851562 112.640625 121.210938 113.40625 122.417969 C 113.894531 123.175781 115.339844 122.933594 115.226562 121.90625 " fill-opacity="1" fill-rule="nonzero"/><path fill="#a493d0" d="M 111.503906 124.113281 C 111.203125 122.800781 110.207031 121.734375 109.398438 120.695312 C 108.550781 119.601562 107.6875 118.066406 106.472656 117.382812 C 105.796875 117.007812 105.058594 117.632812 105.226562 118.347656 C 105.511719 119.585938 106.671875 120.613281 107.472656 121.558594 C 108.382812 122.636719 109.148438 123.964844 110.234375 124.859375 C 110.824219 125.339844 111.683594 124.886719 111.503906 124.113281 " fill-opacity="1" fill-rule="nonzero"/><path fill="#385777" d="M 229.714844 268.804688 C 227.929688 267.378906 226.019531 266.101562 224.019531 264.933594 C 217.25 266.753906 190.160156 260.390625 180.664062 255.65625 C 170.449219 249.996094 154.148438 263.949219 143.472656 265.703125 C 137.324219 274.148438 121.292969 297.304688 120.015625 310.878906 C 118.433594 327.707031 149.023438 331.390625 168.007812 307.722656 C 168.007812 307.722656 173.019531 299.4375 184.09375 307.855469 C 195.167969 316.269531 224.441406 330.335938 237.097656 322.972656 C 249.753906 315.609375 250.808594 285.632812 229.714844 268.804688 " fill-opacity="1" fill-rule="nonzero"/><path fill="#233f5b" d="M 224.039062 314.757812 C 218.828125 309.230469 212.140625 305.71875 205.136719 302.941406 C 200.484375 301.097656 195.535156 300.175781 190.898438 298.203125 C 185.246094 295.792969 180.863281 291.53125 175.652344 288.417969 C 175.148438 288.121094 174.664062 288.796875 175.128906 289.160156 C 181.453125 294.078125 187.511719 298.460938 195.101562 301.175781 C 205.4375 304.871094 215.085938 307.515625 223.253906 315.417969 C 223.722656 315.871094 224.5 315.242188 224.039062 314.757812 " fill-opacity="1" fill-rule="nonzero"/><path fill="#233f5b" d="M 142.832031 315.578125 C 147.109375 309.304688 153.160156 304.792969 159.640625 300.953125 C 163.945312 298.398438 168.683594 296.714844 172.953125 294.039062 C 178.15625 290.777344 181.816406 285.882812 186.472656 281.988281 C 186.921875 281.617188 187.507812 282.210938 187.105469 282.644531 C 181.632812 288.488281 176.339844 293.765625 169.269531 297.632812 C 159.648438 302.902344 150.53125 307.023438 143.710938 316.105469 C 143.320312 316.632812 142.453125 316.132812 142.832031 315.578125 " fill-opacity="1" fill-rule="nonzero"/><path fill="#cd66ae" d="M 143.820312 245.398438 C 151.375 234.386719 154.609375 232.816406 150.875 216.042969 C 147.140625 199.273438 138.757812 198.730469 145.695312 183.414062 C 152.628906 168.101562 137.347656 155.359375 145.332031 145.605469 C 153.316406 135.855469 165.125 140.898438 176.015625 136.363281 C 176.015625 136.363281 176.757812 155.136719 186.617188 162.507812 C 186.617188 162.507812 201.519531 163.941406 209.445312 137.019531 C 209.445312 137.019531 230.820312 152.886719 233.214844 157.429688 C 235.613281 161.976562 225.441406 174.4375 223.980469 185.078125 C 222.519531 195.71875 226.96875 205.0625 217.640625 215.832031 C 208.308594 226.601562 210.980469 242.324219 214.828125 249.480469 C 217.59375 254.613281 229.316406 278.261719 225.492188 283.003906 C 225.492188 283.003906 198.117188 264.503906 181.195312 264.597656 C 164.269531 264.695312 138.871094 265.511719 134.257812 261.441406 C 131.027344 258.59375 143.820312 245.398438 143.820312 245.398438 " fill-opacity="1" fill-rule="nonzero"/><path fill="#ab488d" d="M 223.96875 195.972656 C 225.628906 187.351562 222.496094 179.429688 228.796875 172.003906 C 229.402344 171.289062 228.335938 170.300781 227.726562 171.011719 C 221.320312 178.523438 223.589844 186.773438 222.832031 195.863281 C 222.773438 196.515625 223.851562 196.601562 223.96875 195.972656 " fill-opacity="1" fill-rule="nonzero"/><path fill="#ab488d" d="M 170.785156 143.058594 C 172.289062 151.335938 177.769531 167.414062 186.277344 171.144531 C 192.425781 173.84375 203.875 162.214844 206.972656 158.101562 C 207.558594 157.328125 206.449219 156.289062 205.863281 157.074219 C 202.789062 161.167969 190.824219 173.230469 185.210938 168.761719 C 177.730469 162.8125 174.347656 151.53125 171.585938 142.804688 C 171.417969 142.273438 170.691406 142.546875 170.785156 143.058594 " fill-opacity="1" fill-rule="nonzero"/><path fill="#ab488d" d="M 173.652344 149.257812 C 174.941406 148.632812 175.960938 147.589844 176.988281 146.609375 C 178.304688 145.351562 179.710938 144.390625 181.160156 143.3125 C 181.648438 142.945312 181.316406 142.152344 180.699219 142.324219 C 179.265625 142.734375 178.054688 143.90625 176.996094 144.902344 C 175.6875 146.136719 174.414062 147.363281 173.046875 148.535156 C 172.601562 148.914062 173.207031 149.472656 173.652344 149.257812 " fill-opacity="1" fill-rule="nonzero"/><path fill="#ab488d" d="M 175.871094 157.316406 C 177.1875 155.996094 178.347656 154.523438 179.65625 153.191406 C 181.101562 151.722656 182.875 150.46875 184.199219 148.902344 C 184.683594 148.328125 184.015625 147.535156 183.363281 147.90625 C 181.734375 148.835938 180.34375 150.394531 179.027344 151.714844 C 177.550781 153.1875 175.964844 154.835938 175.054688 156.734375 C 174.808594 157.253906 175.460938 157.726562 175.871094 157.316406 " fill-opacity="1" fill-rule="nonzero"/><path fill="#ab488d" d="M 180.800781 164.570312 C 181.398438 162.660156 182.070312 160.863281 183.054688 159.109375 C 184.175781 157.125 185.757812 155.679688 187.140625 153.929688 C 187.625 153.320312 186.972656 152.578125 186.292969 152.917969 C 184.441406 153.835938 183.125 156.113281 182.082031 157.816406 C 180.90625 159.726562 179.648438 162.167969 179.816406 164.472656 C 179.855469 165.054688 180.632812 165.097656 180.800781 164.570312 " fill-opacity="1" fill-rule="nonzero"/><path fill="#ab488d" d="M 186.460938 170.367188 C 186.929688 168.152344 187.519531 166.042969 188.386719 163.945312 C 189.09375 162.238281 190.140625 160.65625 190.699219 158.902344 C 190.875 158.363281 190.089844 157.96875 189.734375 158.390625 C 187.285156 161.339844 185.484375 166.453125 185.441406 170.265625 C 185.433594 170.855469 186.339844 170.929688 186.460938 170.367188 " fill-opacity="1" fill-rule="nonzero"/><path fill="#ab488d" d="M 196.609375 167.644531 C 197.433594 165.703125 197.390625 163.382812 197.382812 161.308594 C 197.382812 159.4375 197.355469 156.726562 196.144531 155.183594 C 195.800781 154.742188 194.980469 154.886719 195.027344 155.527344 C 195.167969 157.492188 195.789062 159.359375 195.851562 161.371094 C 195.910156 163.382812 195.472656 165.453125 195.753906 167.449219 C 195.808594 167.847656 196.417969 168.101562 196.609375 167.644531 " fill-opacity="1" fill-rule="nonzero"/><path fill="#ab488d" d="M 204.039062 160.167969 C 204.011719 158.550781 203.648438 156.929688 203.4375 155.332031 C 203.246094 153.855469 203.273438 152.183594 202.574219 150.847656 C 202.328125 150.378906 201.582031 150.546875 201.484375 151.03125 C 201.195312 152.429688 201.632812 153.992188 201.839844 155.394531 C 202.085938 157.039062 202.25 158.8125 202.875 160.367188 C 203.125 160.980469 204.050781 160.863281 204.039062 160.167969 " fill-opacity="1" fill-rule="nonzero"/><path fill="#ab488d" d="M 205.144531 146.359375 C 205.90625 149.117188 206.238281 152.339844 207.582031 154.878906 C 207.890625 155.460938 208.664062 154.984375 208.550781 154.429688 C 207.980469 151.683594 207.132812 148.65625 205.984375 146.09375 C 205.757812 145.582031 204.984375 145.796875 205.144531 146.359375 " fill-opacity="1" fill-rule="nonzero"/><path fill="#f6e0ca" d="M 187.757812 164.46875 C 202.40625 158.910156 213.757812 144.6875 215.964844 126.761719 C 210.773438 119.832031 188.511719 120.566406 181.65625 123.886719 C 178.75 125.292969 176.496094 129.328125 174.773438 133.808594 C 175.902344 144.671875 177.460938 154.425781 187.757812 164.46875 " fill-opacity="1" fill-rule="nonzero"/><path fill="#e3c7b4" d="M 215.597656 129.105469 C 215.730469 128.332031 215.867188 127.550781 215.964844 126.761719 C 210.773438 119.832031 188.511719 120.566406 181.65625 123.886719 C 178.929688 125.207031 176.785156 128.84375 175.101562 132.992188 C 185.945312 156.429688 202.960938 142.855469 215.597656 129.105469 " fill-opacity="1" fill-rule="nonzero"/><path fill="#a1574d" d="M 240.078125 156.90625 C 240.363281 154.972656 240.347656 152.660156 239.839844 149.851562 L 237.675781 137.25 C 234.675781 117.734375 250.117188 107.453125 240.171875 74.855469 C 237.398438 65.753906 229.351562 58.171875 225.125 54.5 C 206.339844 40.429688 181.894531 46.347656 169.476562 62.285156 C 139.417969 98.875 172.136719 96.714844 151.566406 125.917969 C 145.671875 134.28125 140.003906 142.933594 141.730469 149.515625 C 142.609375 152.863281 144.96875 155.597656 148.9375 157.875 C 149.53125 158.21875 150.273438 158.117188 150.769531 157.628906 C 151.015625 157.382812 151.175781 157.070312 151.21875 156.742188 C 151.269531 156.417969 151.210938 156.074219 151.050781 155.777344 C 150.617188 154.9375 150.328125 152.609375 150.628906 150.605469 C 150.632812 150.566406 150.648438 150.53125 150.652344 150.492188 C 154.03125 161.167969 162.949219 169.246094 172.269531 169.472656 C 172.941406 169.488281 173.546875 169.058594 173.769531 168.410156 C 173.988281 167.765625 173.769531 167.046875 173.226562 166.648438 C 168.308594 163.03125 167.117188 158.929688 174.273438 146.523438 C 175.785156 143.910156 176.9375 140.289062 178.042969 136.785156 C 179.191406 133.179688 180.917969 127.730469 182.382812 127.335938 C 189.4375 125.457031 201.65625 126.933594 206.828125 131.648438 C 208.652344 133.3125 208.378906 135.453125 208.054688 137.605469 C 207.125 143.828125 209.015625 148.636719 209.804688 153.140625 C 211.101562 160.46875 212.027344 165.761719 205.347656 172.855469 C 204.9375 173.289062 204.808594 173.917969 205.015625 174.480469 C 205.222656 175.039062 205.726562 175.429688 206.3125 175.476562 C 211.308594 175.902344 218.386719 170.011719 222.578125 164.355469 C 222.5 165.824219 222.382812 167.355469 222.179688 168.707031 C 222.128906 169.0625 222.070312 169.402344 222.011719 169.726562 C 222.003906 169.75 222 169.773438 222 169.796875 C 221.910156 170.335938 222.117188 170.878906 222.535156 171.230469 C 222.972656 171.589844 223.574219 171.675781 224.097656 171.453125 C 227.824219 169.871094 229.992188 166.503906 231.414062 162.910156 C 231.355469 163.511719 231.289062 164.128906 231.191406 164.839844 L 231.140625 165.226562 C 231.054688 165.863281 231.367188 166.464844 231.914062 166.777344 C 232.464844 167.078125 233.152344 167.011719 233.636719 166.609375 L 234.34375 166.03125 C 236.339844 164.425781 239.3125 162.027344 240.078125 156.90625 " fill-opacity="1" fill-rule="nonzero"/><path fill="#f6e0ca" d="M 173.882812 83.011719 C 168.335938 96.949219 168.160156 110.875 171.894531 123.15625 C 174.796875 132.710938 182.4375 139.179688 186.804688 140.652344 C 191.804688 142.339844 203.5 141.566406 213.671875 128.261719 C 221.035156 118.628906 226.75 102.851562 227.3125 94.234375 C 222.378906 69.960938 180.878906 65.410156 173.882812 83.011719 " fill-opacity="1" fill-rule="nonzero"/><path fill="#f6e0ca" d="M 232.257812 113.074219 C 234.625 109.246094 231.101562 105.210938 227.8125 107.40625 C 226.679688 112.003906 222.121094 117.308594 219.367188 121.089844 C 220.632812 121.628906 226.914062 121.722656 232.257812 113.074219 " fill-opacity="1" fill-rule="nonzero"/><path fill="#eea1ab" d="M 172.546875 106.3125 C 171.058594 109.605469 173.179688 111.449219 176.3125 112.144531 C 179.0625 112.753906 180.917969 111.53125 181.726562 108.832031 C 182.171875 107.363281 181.734375 105.734375 180.589844 104.699219 C 177.863281 102.210938 174.046875 102.996094 172.546875 106.3125 " fill-opacity="1" fill-rule="nonzero"/><path fill="#eea1ab" d="M 216.707031 118.34375 C 216.480469 121.953125 213.738281 122.585938 210.636719 121.738281 C 207.921875 120.988281 206.863281 119.042969 207.410156 116.277344 C 207.710938 114.773438 208.867188 113.550781 210.351562 113.164062 C 213.933594 112.234375 216.941406 114.710938 216.707031 118.34375 " fill-opacity="1" fill-rule="nonzero"/><path fill="#67594c" d="M 182.652344 123.949219 C 184.765625 130.933594 194.898438 133.09375 200.292969 128.824219 C 201.003906 128.261719 200.113281 127.121094 199.398438 127.691406 C 197.152344 129.484375 194.367188 129.96875 191.441406 129.613281 C 187.496094 129.128906 185.277344 126.679688 183.289062 123.617188 C 183.050781 123.238281 182.542969 123.589844 182.652344 123.949219 " fill-opacity="1" fill-rule="nonzero"/><path fill="#67594c" d="M 196.234375 101.023438 C 195.90625 100.980469 195.808594 101.519531 195.765625 101.847656 C 195.757812 101.910156 194.816406 107.621094 193.21875 111.382812 C 191.582031 115.242188 190.199219 116.503906 189.375 117.253906 L 188.996094 117.613281 C 188.585938 118.023438 188.5 118.601562 188.765625 119.199219 C 189.289062 120.414062 191.265625 121.734375 193.257812 121.675781 C 193.585938 121.671875 193.851562 121.398438 193.839844 121.066406 C 193.828125 120.734375 193.554688 120.480469 193.226562 120.488281 C 191.675781 120.527344 190.175781 119.457031 189.859375 118.726562 C 189.773438 118.527344 189.824219 118.476562 189.847656 118.453125 L 190.183594 118.136719 C 191.082031 117.320312 192.574219 115.945312 194.320312 111.847656 C 195.984375 107.929688 196.445312 102.183594 196.480469 101.925781 C 196.519531 101.601562 196.5625 101.058594 196.234375 101.023438 " fill-opacity="1" fill-rule="nonzero"/><path fill="#a1574d" d="M 233.886719 88.34375 C 227.425781 74.597656 209.226562 58.996094 190.394531 63.125 C 171.960938 67.15625 163.683594 90.351562 165.089844 92.023438 C 167.558594 94.957031 174.851562 90.789062 179.574219 83.648438 C 178.433594 85.480469 179.535156 92.71875 182.746094 92.71875 C 187.34375 92.667969 190.785156 88.171875 194.523438 85.253906 C 192.371094 88.546875 195.359375 93.617188 197.761719 94.519531 C 202.367188 96.261719 205.28125 90.800781 209.398438 87.265625 C 205.894531 98.648438 214.855469 98.804688 217.851562 90.867188 C 217.566406 102.929688 223.335938 107.929688 226.660156 107.210938 C 228.976562 106.769531 235.339844 91.429688 233.886719 88.34375 " fill-opacity="1" fill-rule="nonzero"/><path fill="#67594c" d="M 181.628906 103.644531 L 181.636719 103.640625 C 181.890625 103.652344 182.105469 103.488281 182.175781 103.242188 L 182.269531 102.75 C 182.265625 102.746094 182.328125 102.367188 182.328125 102.367188 L 182.632812 100.832031 C 182.914062 100.351562 183.546875 100.023438 184.175781 100.046875 C 184.542969 100.066406 184.839844 100.21875 185.066406 100.53125 C 185.523438 101.160156 185.601562 102.804688 185.398438 103.511719 C 185.308594 103.835938 185.515625 104.113281 185.777344 104.199219 C 186.058594 104.28125 186.351562 104.132812 186.445312 103.851562 C 186.800781 102.851562 186.726562 101.144531 186.28125 100.277344 C 185.921875 99.589844 185.351562 99.113281 184.640625 98.910156 C 183.796875 98.664062 182.898438 98.894531 182.183594 99.523438 C 181.355469 100.261719 180.921875 102.253906 181.082031 103.179688 C 181.128906 103.46875 181.398438 103.628906 181.628906 103.644531 " fill-opacity="1" fill-rule="nonzero"/><path fill="#67594c" d="M 209.636719 110.820312 L 209.632812 110.816406 C 209.402344 110.714844 209.277344 110.476562 209.328125 110.21875 L 209.457031 109.738281 C 209.460938 109.734375 209.574219 109.367188 209.574219 109.367188 L 209.976562 107.855469 C 209.9375 107.300781 209.515625 106.726562 208.9375 106.476562 C 208.601562 106.328125 208.269531 106.339844 207.925781 106.519531 C 207.238281 106.882812 206.441406 108.328125 206.3125 109.046875 C 206.25 109.378906 205.941406 109.539062 205.667969 109.496094 C 205.378906 109.449219 205.183594 109.1875 205.222656 108.894531 C 205.34375 107.835938 206.164062 106.339844 206.945312 105.757812 C 207.574219 105.292969 208.292969 105.117188 209.027344 105.25 C 209.890625 105.398438 210.597656 106 210.960938 106.875 C 211.375 107.90625 210.882812 109.886719 210.332031 110.644531 C 210.167969 110.882812 209.851562 110.914062 209.636719 110.820312 " fill-opacity="1" fill-rule="nonzero"/><path fill="#efb354" d="M 174.039062 209.375 C 178.714844 206.457031 176.824219 200.117188 171.523438 199.09375 C 166.230469 198.070312 158.105469 197.859375 153.269531 195.695312 C 148.433594 193.527344 148.199219 204.035156 156.226562 209.351562 C 164.253906 214.664062 170.074219 211.84375 174.039062 209.375 " fill-opacity="1" fill-rule="nonzero"/><path fill="#cd66ae" d="M 282.1875 210.691406 C 282.1875 210.691406 278.496094 211.480469 280.34375 205.695312 C 282.1875 199.910156 278.496094 190.96875 278.496094 190.96875 C 278.496094 190.96875 284.5625 173.875 291.679688 177.820312 C 298.800781 181.765625 299.332031 213.058594 291.417969 215.160156 C 283.507812 217.265625 282.1875 210.691406 282.1875 210.691406 " fill-opacity="1" fill-rule="nonzero"/><path fill="#efb354" d="M 191.734375 210.988281 C 188.015625 206.925781 191.550781 201.328125 196.925781 201.761719 C 202.304688 202.195312 210.1875 204.175781 215.425781 203.386719 C 220.667969 202.597656 218.058594 212.78125 208.898438 215.746094 C 199.730469 218.707031 194.886719 214.429688 191.734375 210.988281 " fill-opacity="1" fill-rule="nonzero"/><g clip-path="url(#id1)"><path fill="#5f5450" d="M 318.816406 287.089844 C 320.484375 286.492188 321.039062 281.453125 318.242188 275.042969 C 315.925781 269.71875 314.300781 267.953125 311.0625 267.617188 C 309.464844 267.449219 308.191406 269.351562 308.046875 270.335938 C 307.242188 275.855469 310.15625 279.914062 311.441406 282.046875 C 312.746094 284.21875 316.84375 287.789062 318.816406 287.089844 " fill-opacity="1" fill-rule="nonzero"/></g><path fill="#a1574d" d="M 272.839844 268.203125 C 272.839844 268.203125 272.085938 280.027344 275.445312 286.445312 C 278.804688 292.867188 286.90625 292.867188 290.0625 291.605469 C 291.910156 290.867188 301.3125 287.957031 307.972656 285.011719 L 305.363281 268.714844 C 305.363281 268.714844 296.628906 271.742188 294.125 271.390625 C 291.613281 271.039062 292.660156 259.074219 292.660156 259.074219 L 272.839844 268.203125 " fill-opacity="1" fill-rule="nonzero"/><path fill="#bd8884" d="M 309.539062 266.816406 C 308.164062 266.175781 303.035156 267.109375 301.601562 268.1875 C 300.171875 269.257812 299.984375 287.296875 302.714844 289.09375 C 303.738281 289.769531 305.929688 288.453125 307.324219 287.613281 C 309.648438 286.214844 311.140625 284.484375 311.472656 283.378906 C 312.003906 281.609375 313.003906 268.433594 309.539062 266.816406 " fill-opacity="1" fill-rule="nonzero"/><path fill="#5f5450" d="M 242.722656 321.484375 C 241.785156 322.976562 247.257812 325.796875 251.796875 326.851562 C 256.332031 327.898438 262.03125 328.953125 263.613281 326.113281 C 264.398438 324.710938 263.445312 321.398438 262.457031 321.484375 C 260.027344 321.691406 260.296875 323.550781 256.015625 322.742188 C 252.113281 322.011719 251.835938 319.886719 250.320312 320.007812 C 247.789062 320.21875 243.253906 320.640625 242.722656 321.484375 " fill-opacity="1" fill-rule="nonzero"/><path fill="#bd8884" d="M 248.914062 309.035156 C 248.914062 309.035156 246.171875 309.136719 246.171875 312.925781 C 246.171875 316.714844 247.015625 320.921875 249.96875 321.765625 C 252.921875 322.605469 263.894531 327.65625 266.429688 321.765625 C 268.960938 315.871094 266.003906 308.714844 262.632812 308.714844 C 259.253906 308.714844 248.914062 309.035156 248.914062 309.035156 " fill-opacity="1" fill-rule="nonzero"/><path fill="#a1574d" d="M 276.136719 263.6875 C 276.136719 263.6875 267.269531 283.886719 266.003906 292.722656 C 264.738281 301.5625 263.472656 317.554688 263.472656 317.554688 C 263.472656 317.554688 252.921875 318.398438 248.28125 313.347656 C 248.28125 313.347656 236.886719 286.414062 253.34375 271.683594 C 269.804688 256.953125 276.136719 263.6875 276.136719 263.6875 " fill-opacity="1" fill-rule="nonzero"/><path fill="#f3be5f" d="M 268.980469 190.335938 C 268.980469 190.335938 274.875 196.3125 277.984375 204.363281 C 284.050781 220.054688 291.679688 251.820312 291.492188 257.671875 C 291.28125 264.191406 265.601562 278.992188 242.535156 270.015625 C 213.421875 258.679688 241.128906 191.59375 268.980469 190.335938 " fill-opacity="1" fill-rule="nonzero"/><path fill="#f07f65" d="M 264.890625 267.808594 C 257.882812 261.9375 251.058594 195.351562 275.429688 194.25 C 275.429688 194.25 286.117188 215.074219 287.09375 218.425781 C 291.589844 233.808594 297.394531 248.007812 296.011719 254.667969 C 306.664062 265.570312 272.460938 278.433594 267.972656 275.917969 C 266.851562 274.800781 265.824219 270.46875 264.890625 267.808594 " fill-opacity="1" fill-rule="nonzero"/><path fill="#df6c51" d="M 293.027344 255.933594 C 286.296875 261.921875 277.882812 264.640625 269.300781 266.839844 C 268.785156 266.972656 268.925781 267.792969 269.449219 267.660156 C 278.160156 265.425781 286.738281 262.640625 293.570312 256.570312 C 293.972656 256.214844 293.4375 255.574219 293.027344 255.933594 " fill-opacity="1" fill-rule="nonzero"/><path fill="#4d4e4b" d="M 303.929688 175.648438 C 309.503906 174.464844 312.210938 169.003906 304.429688 169.625 C 311.828125 159.214844 305.09375 145.839844 295.15625 137.394531 C 290.207031 133.0625 285.175781 130.121094 281.8125 124.773438 C 280.097656 122.207031 279.601562 119.007812 278.078125 116.730469 C 275.550781 113.25 273.949219 112.597656 271.8125 116.554688 C 271.5625 116.488281 271.527344 117.660156 271.46875 117.882812 C 270.5 115.507812 270.308594 109.074219 267.761719 107.714844 C 264.089844 105.59375 260.140625 110.738281 258.53125 112.929688 C 257.425781 110.050781 257.28125 103.890625 251.175781 105.765625 C 248.207031 106.683594 244.078125 110.070312 241.324219 114.421875 C 236.28125 122.390625 234.855469 130.421875 235.730469 137.269531 C 231.304688 134.007812 225.378906 131.886719 225.773438 137.394531 C 226.390625 145.929688 234.0625 158.492188 236.441406 163.589844 C 239.65625 170.5625 260.667969 202.253906 260.667969 202.253906 C 278.261719 210.625 298.484375 193.804688 299.339844 179.210938 C 304.71875 183.890625 310.472656 179.917969 303.929688 175.648438 " fill-opacity="1" fill-rule="nonzero"/><path fill="#f6e0ca" d="M 245.25 145.363281 C 245.25 145.363281 230.550781 139.773438 218.652344 150.71875 C 210.703125 158.027344 206.316406 166.375 206.316406 166.375 C 206.316406 166.375 203.816406 163.78125 201.828125 166.277344 C 200.417969 168.050781 201.972656 169.8125 202.996094 170.105469 C 202.996094 170.105469 191.097656 187.082031 200.675781 200.042969 C 208.921875 211.191406 237.207031 229.332031 255.851562 206.621094 C 273.234375 185.445312 275.777344 160.777344 245.25 145.363281 " fill-opacity="1" fill-rule="nonzero"/><path fill="#67594c" d="M 204.367188 179.828125 C 204.703125 179.417969 204.167969 178.78125 203.730469 179.132812 C 202.875 179.824219 201.875 180.175781 200.777344 180.238281 C 200.15625 180.273438 199.511719 180.117188 199.015625 179.746094 C 198.804688 179.585938 198.671875 179.390625 198.578125 179.167969 C 198.441406 179.578125 198.304688 179.996094 198.183594 180.425781 C 198.671875 180.886719 199.339844 181.199219 200.007812 181.304688 C 201.480469 181.542969 203.425781 181.023438 204.367188 179.828125 " fill-opacity="1" fill-rule="nonzero"/><path fill="#eea1ab" d="M 228.679688 186.691406 C 226.195312 191.722656 221.886719 191.007812 217.945312 187.941406 C 214.503906 185.269531 214.160156 181.835938 216.585938 178.214844 C 217.914062 176.234375 220.308594 175.164062 222.671875 175.496094 C 228.347656 176.289062 231.1875 181.625 228.679688 186.691406 " fill-opacity="1" fill-rule="nonzero"/><path fill="#67594c" d="M 214.402344 165.792969 L 214.402344 165.800781 C 214.601562 165.976562 214.644531 166.257812 214.507812 166.492188 L 214.222656 166.925781 C 214.214844 166.929688 213.972656 167.257812 213.972656 167.257812 L 213.070312 168.625 C 212.921875 169.191406 213.15625 169.902344 213.636719 170.347656 C 213.929688 170.605469 214.261719 170.703125 214.65625 170.640625 C 215.464844 170.507812 216.746094 169.335938 217.117188 168.664062 C 217.289062 168.355469 217.648438 168.300781 217.902344 168.433594 C 218.171875 168.582031 218.285156 168.902344 218.144531 169.179688 C 217.671875 170.191406 216.351562 171.40625 215.371094 171.726562 C 214.601562 171.972656 213.832031 171.910156 213.140625 171.535156 C 212.328125 171.097656 211.832031 170.265625 211.761719 169.269531 C 211.699219 168.113281 212.851562 166.300781 213.652344 165.738281 C 213.894531 165.550781 214.21875 165.628906 214.402344 165.792969 " fill-opacity="1" fill-rule="nonzero"/><path fill="#f3be5f" d="M 223.140625 148.023438 C 222.949219 148.019531 222.835938 148.015625 222.835938 148.015625 C 218.417969 143.851562 211.152344 140.574219 207.125 143.382812 C 202.195312 146.851562 209.386719 148.871094 212.273438 149.082031 C 208.394531 150.664062 205.367188 153.613281 209.8125 155.390625 C 213.832031 157.046875 219.515625 157.015625 224.253906 156.121094 C 224.019531 153.390625 223.816406 150.695312 223.140625 148.023438 " fill-opacity="1" fill-rule="nonzero"/><path fill="#f6e0ca" d="M 203.96875 301.144531 C 203.96875 301.144531 203.546875 308.714844 204.394531 315.453125 C 205.234375 322.1875 206.078125 327.65625 206.078125 327.65625 C 206.078125 327.65625 216.632812 331.863281 217.476562 329.761719 C 218.320312 327.65625 216.207031 313.347656 220.851562 301.980469 C 225.492188 290.621094 203.96875 301.144531 203.96875 301.144531 " fill-opacity="1" fill-rule="nonzero"/><path fill="#e4e6e9" d="M 217.828125 317.207031 C 213.574219 318.253906 209.179688 318.515625 204.53125 316.558594 C 205.328125 322.777344 206.078125 327.65625 206.078125 327.65625 C 206.078125 327.65625 216.632812 331.863281 217.476562 329.761719 C 217.949219 328.570312 217.484375 323.46875 217.828125 317.207031 " fill-opacity="1" fill-rule="nonzero"/><g clip-path="url(#id2)"><path fill="#ee5751" d="M 197.847656 328.078125 C 196.914062 329.574219 202.386719 332.390625 206.921875 333.445312 C 211.460938 334.492188 217.15625 335.546875 218.742188 332.707031 C 219.519531 331.304688 218.570312 327.988281 217.578125 328.078125 C 215.152344 328.289062 215.425781 330.148438 211.144531 329.339844 C 207.242188 328.601562 206.960938 326.476562 205.445312 326.605469 C 202.910156 326.8125 198.378906 327.234375 197.847656 328.078125 " fill-opacity="1" fill-rule="nonzero"/></g><path fill="#f6e0ca" d="M 242.265625 297.667969 C 242.265625 297.667969 244.730469 308.546875 250.601562 311.980469 C 256.476562 315.40625 262.207031 318.609375 262.207031 318.609375 C 262.207031 318.609375 269.964844 312.601562 268.804688 310.652344 C 268.132812 309.519531 264.917969 306.464844 259.992188 302.195312 C 256.445312 299.117188 257.847656 290.953125 255.246094 286.519531 C 249.03125 275.929688 242.265625 297.667969 242.265625 297.667969 " fill-opacity="1" fill-rule="nonzero"/><path fill="#f2f3f5" d="M 268.804688 310.652344 C 268.152344 309.558594 265.113281 306.652344 260.457031 302.601562 C 254.503906 301.039062 251.871094 309.558594 255.058594 314.558594 C 259.066406 316.851562 262.207031 318.609375 262.207031 318.609375 C 262.207031 318.609375 269.964844 312.601562 268.804688 310.652344 " fill-opacity="1" fill-rule="nonzero"/><path fill="#ee5751" d="M 269.066406 328.148438 C 270.816406 327.90625 272.390625 323.082031 270.960938 316.242188 C 269.777344 310.558594 268.546875 308.503906 265.445312 307.511719 C 263.917969 307.023438 262.28125 308.632812 261.9375 309.5625 C 260.027344 314.804688 262.050781 319.367188 262.871094 321.71875 C 263.710938 324.109375 266.992188 328.433594 269.066406 328.148438 " fill-opacity="1" fill-rule="nonzero"/><path fill="#5f5450" d="M 203.96875 272.386719 C 203.96875 272.386719 200.3125 281.082031 198.625 290.339844 C 196.933594 299.601562 197.75 303.425781 198.761719 304.226562 C 207.0625 310.820312 222.253906 309.699219 224.789062 307.59375 C 227.320312 305.496094 226.335938 292.726562 234.070312 280.523438 C 239.140625 272.527344 203.96875 272.386719 203.96875 272.386719 " fill-opacity="1" fill-rule="nonzero"/><path fill="#473a34" d="M 204.59375 286.785156 C 204.488281 287.34375 204.320312 287.898438 204.25 288.464844 C 204.179688 289.058594 204.941406 289.257812 205.277344 288.839844 C 205.769531 288.222656 205.726562 287.488281 205.589844 286.746094 C 205.484375 286.160156 204.695312 286.25 204.59375 286.785156 " fill-opacity="1" fill-rule="nonzero"/><path fill="#473a34" d="M 202.972656 293.246094 C 202.84375 293.859375 202.675781 294.324219 202.925781 294.914062 C 203.113281 295.363281 203.742188 295.277344 203.910156 294.871094 C 204.152344 294.300781 203.960938 293.800781 203.835938 293.210938 C 203.730469 292.703125 203.074219 292.78125 202.972656 293.246094 " fill-opacity="1" fill-rule="nonzero"/><path fill="#473a34" d="M 201.433594 299.078125 C 201.425781 299.53125 201.449219 299.984375 201.574219 300.425781 C 201.746094 301.046875 202.75 301.308594 202.960938 300.550781 C 203.082031 300.113281 203.132812 299.695312 203.125 299.238281 C 203.109375 298.160156 201.453125 297.972656 201.433594 299.078125 " fill-opacity="1" fill-rule="nonzero"/><path fill="#473a34" d="M 207.550781 291.542969 C 207.445312 292.195312 207.21875 292.816406 207.113281 293.46875 C 207.0625 293.8125 207.3125 294.191406 207.640625 294.300781 C 207.785156 294.347656 207.910156 294.371094 208.0625 294.332031 C 208.402344 294.25 208.699219 293.996094 208.722656 293.621094 C 208.773438 292.902344 208.878906 292.214844 208.824219 291.492188 C 208.765625 290.730469 207.65625 290.867188 207.550781 291.542969 " fill-opacity="1" fill-rule="nonzero"/><path fill="#5f5450" d="M 230.839844 285.570312 C 230.839844 285.570312 231.6875 302.730469 237.167969 305.773438 C 239.703125 307.175781 248.144531 306.195312 253.207031 304.089844 C 258.269531 301.984375 262.910156 298.195312 261.644531 295.25 C 260.382812 292.304688 256.160156 280.941406 257.003906 275.054688 C 257.847656 269.160156 230.839844 285.570312 230.839844 285.570312 " fill-opacity="1" fill-rule="nonzero"/><path fill="#473a34" d="M 235.003906 290.625 C 235.128906 291.179688 235.191406 291.753906 235.351562 292.300781 C 235.515625 292.875 236.289062 292.765625 236.4375 292.25 C 236.65625 291.492188 236.324219 290.828125 235.914062 290.199219 C 235.585938 289.695312 234.890625 290.085938 235.003906 290.625 " fill-opacity="1" fill-rule="nonzero"/><path fill="#473a34" d="M 236.03125 297.203125 C 236.152344 297.816406 236.175781 298.3125 236.636719 298.761719 C 236.984375 299.101562 237.523438 298.777344 237.523438 298.339844 C 237.523438 297.71875 237.160156 297.332031 236.8125 296.835938 C 236.515625 296.414062 235.9375 296.738281 236.03125 297.203125 " fill-opacity="1" fill-rule="nonzero"/><path fill="#473a34" d="M 237.023438 301.632812 C 237.191406 302.050781 237.386719 302.460938 237.671875 302.820312 C 238.078125 303.320312 239.101562 303.179688 239 302.398438 C 238.941406 301.945312 238.832031 301.539062 238.644531 301.121094 C 238.210938 300.140625 236.609375 300.605469 237.023438 301.632812 " fill-opacity="1" fill-rule="nonzero"/><path fill="#473a34" d="M 239.582031 293.859375 C 239.742188 294.5 239.769531 295.160156 239.933594 295.800781 C 240.019531 296.140625 240.398438 296.394531 240.738281 296.367188 C 240.890625 296.355469 241.015625 296.332031 241.144531 296.238281 C 241.425781 296.027344 241.597656 295.675781 241.476562 295.320312 C 241.242188 294.636719 241.070312 293.96875 240.738281 293.320312 C 240.386719 292.644531 239.421875 293.199219 239.582031 293.859375 " fill-opacity="1" fill-rule="nonzero"/><path fill="#2785ac" d="M 201.71875 243.628906 C 201.71875 243.628906 193.09375 272.59375 194.96875 277.578125 C 195.8125 279.820312 215.503906 288.238281 233.792969 286.273438 C 253.0625 284.203125 260.285156 279.21875 261.082031 275.332031 C 263.332031 264.386719 258.476562 237.320312 258.9375 227.390625 C 259.148438 222.867188 285.238281 218.660156 283.507812 202.800781 C 282.1875 190.707031 259.113281 207.152344 249.265625 207.714844 C 239.421875 208.277344 227.039062 202.664062 213.816406 214.164062 C 202.15625 224.308594 201.71875 243.628906 201.71875 243.628906 " fill-opacity="1" fill-rule="nonzero"/><path fill="#1e6384" d="M 202.0625 260.976562 C 201.953125 261.535156 201.785156 262.085938 201.722656 262.652344 C 201.648438 263.246094 202.40625 263.445312 202.742188 263.03125 C 203.238281 262.414062 203.191406 261.675781 203.058594 260.9375 C 202.953125 260.347656 202.164062 260.4375 202.0625 260.976562 " fill-opacity="1" fill-rule="nonzero"/><path fill="#1e6384" d="M 200.441406 267.433594 C 200.316406 268.050781 200.140625 268.511719 200.394531 269.105469 C 200.582031 269.554688 201.207031 269.464844 201.375 269.0625 C 201.617188 268.488281 201.429688 267.988281 201.304688 267.398438 C 201.195312 266.894531 200.539062 266.964844 200.441406 267.433594 " fill-opacity="1" fill-rule="nonzero"/><path fill="#1e6384" d="M 198.902344 273.269531 C 198.894531 273.722656 198.917969 274.171875 199.039062 274.613281 C 199.210938 275.234375 200.214844 275.5 200.429688 274.742188 C 200.550781 274.300781 200.597656 273.882812 200.59375 273.425781 C 200.574219 272.355469 198.921875 272.164062 198.902344 273.269531 " fill-opacity="1" fill-rule="nonzero"/><path fill="#1e6384" d="M 205.015625 265.730469 C 204.914062 266.382812 204.683594 267.003906 204.582031 267.65625 C 204.53125 267.996094 204.777344 268.378906 205.105469 268.488281 C 205.253906 268.535156 205.375 268.5625 205.527344 268.527344 C 205.875 268.441406 206.164062 268.183594 206.191406 267.808594 C 206.242188 267.085938 206.347656 266.402344 206.289062 265.679688 C 206.230469 264.917969 205.125 265.054688 205.015625 265.730469 " fill-opacity="1" fill-rule="nonzero"/><path fill="#f3be5f" d="M 276.847656 180.171875 C 274.953125 173.804688 254.015625 145.394531 242.46875 142.324219 C 240.007812 141.671875 225.660156 146.777344 223.46875 147.566406 C 225.082031 149.796875 226.273438 152.226562 227.503906 154.675781 C 228.785156 153.863281 229.957031 153.003906 230.933594 152.152344 C 232.660156 155.367188 236.066406 157.316406 238.796875 159.5625 C 239.621094 160.222656 241.332031 161.148438 240.953125 162.121094 C 240.691406 163.011719 234.132812 163.523438 233.460938 163.816406 C 231.324219 164.691406 227.234375 167.195312 227.695312 170.5 C 228.125 173.378906 235.203125 172.230469 237.105469 172.671875 C 234.71875 173.8125 230.160156 176.027344 230.835938 179.261719 C 231.574219 183.339844 236.042969 182.253906 238.949219 181.722656 C 236.824219 183.121094 231.042969 186.367188 232.960938 189.09375 C 233.984375 190.617188 236.65625 190.574219 239.167969 189.351562 C 238.875 192.761719 237.996094 195.425781 235.863281 198.019531 C 233.746094 200.558594 232.226562 202.679688 231.25 205.839844 C 230.46875 208.507812 229.925781 212.152344 232.152344 214.316406 C 233.90625 216.183594 235.921875 215.386719 236.636719 213.125 C 237.273438 215.417969 237.640625 217.457031 240.164062 218.523438 C 242.601562 219.472656 243.195312 217.292969 244.121094 215.578125 C 246.101562 216.761719 249.839844 219.804688 251.9375 217.367188 C 252.996094 216.105469 251.660156 214.203125 252.359375 213.183594 C 252.789062 212.53125 257.007812 212.855469 257.988281 212.609375 C 266.617188 210.382812 273.625 204.339844 276.265625 195.867188 C 277.902344 190.75 278.4375 185.335938 276.847656 180.171875 " fill-opacity="1" fill-rule="nonzero"/><path fill="#f6e0ca" d="M 252.226562 200.527344 C 248.960938 205.308594 243.34375 206.742188 237.910156 204.394531 C 234.945312 203.117188 232.347656 199.742188 231.859375 196.558594 C 230.832031 189.90625 241.273438 188.398438 245.816406 188.769531 C 252.207031 189.292969 256.808594 193.851562 252.226562 200.527344 " fill-opacity="1" fill-rule="nonzero"/><path fill="#1b9c95" d="M 239.496094 179.222656 C 239.496094 179.222656 229.160156 176.945312 223.007812 166.351562 C 217.089844 156.167969 217.382812 147.242188 210.914062 138.035156 C 205.414062 130.210938 205.210938 126.640625 212.265625 130.375 C 219.320312 134.105469 225.742188 140.226562 228.792969 143.042969 C 232.617188 146.589844 239.496094 179.222656 239.496094 179.222656 " fill-opacity="1" fill-rule="nonzero"/><path fill="#32b4b7" d="M 260.921875 139.332031 C 246.195312 133.007812 226.730469 141.121094 226.730469 141.121094 C 226.730469 141.121094 231.140625 162.792969 238.425781 178.203125 C 245.707031 193.621094 261.144531 211.867188 261.144531 211.867188 C 262.796875 211.390625 264.808594 210.421875 266.964844 209.03125 C 264.46875 207.570312 262.199219 205.417969 260.511719 202.875 C 261.976562 201.804688 264.003906 199.976562 265.3125 198.878906 C 266.757812 201.820312 268.378906 204.480469 271.023438 206.007812 C 277.078125 200.90625 283.371094 192.832031 286.246094 182.441406 C 289.882812 169.296875 283.886719 149.199219 260.921875 139.332031 " fill-opacity="1" fill-rule="nonzero"/><path fill="#7cccd3" d="M 284.503906 160.003906 C 286.789062 158.046875 283.265625 153.261719 280.972656 155.230469 C 278.695312 157.183594 282.210938 161.96875 284.503906 160.003906 " fill-opacity="1" fill-rule="nonzero"/><path fill="#1fa4a1" d="M 240.300781 178.148438 C 243.355469 176.4375 246.808594 175.828125 250.09375 174.71875 C 253.667969 173.515625 257.148438 172.007812 260.726562 170.792969 C 261.136719 170.648438 260.964844 170.003906 260.542969 170.132812 C 256.933594 171.285156 253.429688 172.664062 249.914062 174.066406 C 246.613281 175.390625 243.105469 175.8125 239.992188 177.625 C 239.65625 177.816406 239.957031 178.335938 240.300781 178.148438 " fill-opacity="1" fill-rule="nonzero"/><path fill="#1fa4a1" d="M 264.4375 169.714844 C 265.527344 169.910156 265.996094 168.242188 264.894531 168.050781 C 263.804688 167.859375 263.339844 169.523438 264.4375 169.714844 " fill-opacity="1" fill-rule="nonzero"/><path fill="#1fa4a1" d="M 279.101562 159.460938 C 275.15625 162.515625 270.929688 165.050781 266.742188 167.75 C 266.398438 167.976562 266.71875 168.523438 267.0625 168.300781 C 271.207031 165.605469 275.832031 163.238281 279.363281 159.722656 C 279.53125 159.546875 279.28125 159.320312 279.101562 159.460938 " fill-opacity="1" fill-rule="nonzero"/><path fill="#1c9188" d="M 235.957031 141.25 C 235.609375 141.167969 235.4375 141.289062 235.113281 141.4375 C 234.640625 141.652344 234.144531 141.75 233.648438 141.894531 C 233.296875 141.988281 233.382812 142.492188 233.734375 142.515625 C 234.164062 142.539062 234.585938 142.398438 234.992188 142.265625 C 235.398438 142.136719 235.917969 142.019531 236.101562 141.609375 C 236.160156 141.46875 236.121094 141.285156 235.957031 141.25 " fill-opacity="1" fill-rule="nonzero"/><path fill="#1c9188" d="M 240.402344 140.441406 C 239.945312 140.402344 239.457031 140.707031 239.003906 140.8125 C 238.664062 140.886719 238.734375 141.441406 239.085938 141.417969 C 239.601562 141.378906 240.402344 141.40625 240.648438 140.863281 C 240.734375 140.660156 240.628906 140.457031 240.402344 140.441406 " fill-opacity="1" fill-rule="nonzero"/><path fill="#1c9188" d="M 246.148438 140.210938 C 245.613281 140 244.929688 140.214844 244.355469 140.152344 C 243.988281 140.109375 243.910156 140.726562 244.269531 140.789062 C 244.875 140.894531 245.664062 141.019531 246.210938 140.695312 C 246.425781 140.570312 246.355469 140.289062 246.148438 140.210938 " fill-opacity="1" fill-rule="nonzero"/><path fill="#1c9188" d="M 252.332031 140.636719 C 251.898438 140.511719 251.480469 140.546875 251.035156 140.554688 C 250.847656 140.558594 250.832031 140.804688 250.992188 140.867188 C 251.414062 141.023438 251.796875 141.195312 252.25 141.226562 C 252.597656 141.25 252.65625 140.726562 252.332031 140.636719 " fill-opacity="1" fill-rule="nonzero"/><path fill="#1c9188" d="M 256.917969 141.480469 C 256.417969 141.480469 256.375 142.148438 256.808594 142.3125 C 257.214844 142.46875 257.675781 142.660156 258.109375 142.660156 C 258.382812 142.65625 258.628906 142.316406 258.445312 142.070312 C 258.085938 141.59375 257.511719 141.476562 256.917969 141.480469 " fill-opacity="1" fill-rule="nonzero"/><path fill="#1c9188" d="M 268.5625 146.804688 C 268.300781 146.292969 267.769531 145.933594 267.21875 145.796875 C 266.707031 145.675781 266.503906 146.429688 267.003906 146.578125 C 267.429688 146.699219 267.628906 147.003906 267.9375 147.285156 C 268.273438 147.59375 268.761719 147.207031 268.5625 146.804688 " fill-opacity="1" fill-rule="nonzero"/><path fill="#1c9188" d="M 241.179688 144.964844 C 240.671875 145.097656 240.804688 145.816406 241.296875 145.839844 C 241.910156 145.875 242.601562 146.042969 242.996094 145.496094 C 243.078125 145.382812 243.046875 145.195312 242.945312 145.101562 C 242.503906 144.691406 241.726562 144.824219 241.179688 144.964844 " fill-opacity="1" fill-rule="nonzero"/><path fill="#1c9188" d="M 254.359375 146.035156 C 253.855469 145.847656 253.257812 145.847656 252.730469 145.804688 C 252.328125 145.773438 252.265625 146.394531 252.636719 146.496094 C 253.15625 146.640625 253.707031 146.828125 254.25 146.828125 C 254.726562 146.820312 254.769531 146.1875 254.359375 146.035156 " fill-opacity="1" fill-rule="nonzero"/><path fill="#32b4b7" d="M 221.359375 155.335938 C 219.980469 151.199219 218.902344 146.679688 217.050781 142.734375 C 215.402344 139.222656 213.335938 135.902344 211.25 132.632812 C 210.917969 132.113281 210.078125 132.589844 210.417969 133.117188 C 212.195312 135.90625 213.894531 138.742188 215.464844 141.652344 C 217.78125 145.949219 218.9375 150.96875 220.804688 155.484375 C 220.945312 155.816406 221.476562 155.691406 221.359375 155.335938 " fill-opacity="1" fill-rule="nonzero"/><path fill="#32b4b7" d="M 221.253906 158.808594 L 221.417969 158.902344 C 222.113281 159.277344 222.742188 158.671875 222.640625 157.96875 L 222.597656 157.773438 C 222.46875 157.195312 221.746094 156.941406 221.253906 157.226562 C 220.644531 157.585938 220.683594 158.441406 221.253906 158.808594 " fill-opacity="1" fill-rule="nonzero"/><path fill="#5f5450" d="M 126.140625 321.996094 C 126.613281 319.585938 119.921875 315.917969 118.675781 315.636719 C 118.03125 315.484375 111.578125 314.976562 107.246094 313.582031 C 106.890625 316.371094 105.789062 320.667969 106.914062 322.128906 C 109.027344 324.867188 116.617188 324.527344 120.285156 324.507812 C 124.191406 324.484375 125.996094 323.78125 126.140625 321.996094 " fill-opacity="1" fill-rule="nonzero"/><path fill="#8a6454" d="M 107.375 293.550781 C 106.8125 286.257812 101.699219 266.296875 101.464844 261.285156 C 101.097656 253.136719 120.929688 246.574219 125.351562 268.167969 C 125.351562 268.167969 129.5625 286.519531 126.800781 298.433594 C 124.808594 307.015625 122.984375 311.695312 121.199219 315.792969 C 120.195312 318.023438 105.710938 317.035156 105.957031 315.304688 C 105.578125 312.328125 107.851562 299.804688 107.375 293.550781 " fill-opacity="1" fill-rule="nonzero"/><path fill="#734c3a" d="M 113.320312 296.492188 C 113.003906 297.375 112.652344 298.613281 113.40625 299.332031 L 113.945312 299.324219 C 114.5625 298.566406 114.339844 297.410156 114.171875 296.492188 C 114.082031 296.03125 113.457031 296.121094 113.320312 296.492188 " fill-opacity="1" fill-rule="nonzero"/><path fill="#734c3a" d="M 110.339844 297.890625 C 110.21875 298.597656 110.03125 299.296875 110.085938 300.015625 C 110.136719 300.613281 110.945312 300.757812 111.128906 300.164062 C 111.375 299.398438 111.332031 298.660156 111.117188 297.894531 C 111.019531 297.527344 110.410156 297.476562 110.339844 297.890625 " fill-opacity="1" fill-rule="nonzero"/><path fill="#734c3a" d="M 110.117188 311.371094 C 110.324219 310.878906 110.417969 310.511719 110.394531 309.976562 C 110.367188 309.398438 109.644531 309.351562 109.4375 309.84375 C 109.246094 310.304688 109.234375 310.632812 109.261719 311.136719 C 109.28125 311.550781 109.921875 311.824219 110.117188 311.371094 " fill-opacity="1" fill-rule="nonzero"/><path fill="#734c3a" d="M 109.957031 302.710938 C 109.640625 303.226562 109.6875 303.992188 109.617188 304.582031 C 109.582031 304.816406 109.761719 305.039062 109.945312 305.152344 L 110.4375 305.214844 C 110.730469 305.121094 110.902344 304.894531 110.925781 304.589844 C 110.96875 303.964844 111.015625 302.929688 110.34375 302.605469 L 109.957031 302.710938 " fill-opacity="1" fill-rule="nonzero"/><path fill="#734c3a" d="M 110.9375 293.457031 C 110.839844 294.039062 110.78125 294.664062 110.9375 295.246094 C 111.054688 295.632812 111.628906 295.746094 111.828125 295.355469 C 112.1875 294.664062 112.121094 293.726562 111.441406 293.246094 L 110.9375 293.457031 " fill-opacity="1" fill-rule="nonzero"/><path fill="#5f5450" d="M 79.546875 309.964844 C 79.015625 309.574219 73.792969 305.476562 71.242188 301.714844 C 69.234375 303.695312 67.039062 306.230469 66.707031 308.046875 C 66.300781 310.328125 70.386719 313.753906 73.675781 315.660156 C 78.910156 318.691406 82.347656 320.4375 83.238281 318.550781 C 84.128906 316.65625 81.679688 311.523438 79.546875 309.964844 " fill-opacity="1" fill-rule="nonzero"/><path fill="#8a6454" d="M 81.847656 287.105469 C 85.625 280.832031 75.765625 265.664062 97.121094 255.882812 C 104.554688 252.476562 114.113281 252.492188 105.1875 272.65625 C 105.1875 272.65625 104.515625 293.96875 98.175781 299.964844 C 91.566406 305.808594 85.394531 309.402344 81.570312 311.714844 C 79.453125 312.953125 68.21875 303.785156 69.421875 302.515625 C 70.847656 299.867188 78.605469 292.480469 81.847656 287.105469 " fill-opacity="1" fill-rule="nonzero"/><path fill="#734c3a" d="M 83.066406 288.542969 C 82.296875 289.082031 81.292969 289.878906 81.488281 290.90625 L 81.933594 291.210938 C 82.871094 290.949219 83.359375 289.878906 83.757812 289.03125 C 83.953125 288.605469 83.390625 288.316406 83.066406 288.542969 " fill-opacity="1" fill-rule="nonzero"/><path fill="#734c3a" d="M 78.582031 293.410156 C 78.066406 293.921875 77.507812 294.382812 77.136719 295 C 76.832031 295.515625 77.40625 296.101562 77.902344 295.722656 C 78.546875 295.238281 78.941406 294.613281 79.210938 293.867188 C 79.339844 293.507812 78.871094 293.117188 78.582031 293.410156 " fill-opacity="1" fill-rule="nonzero"/><path fill="#734c3a" d="M 74.074219 299.722656 C 74.527344 299.449219 74.816406 299.195312 75.109375 298.746094 C 75.425781 298.261719 74.863281 297.808594 74.40625 298.089844 C 73.980469 298.355469 73.785156 298.617188 73.511719 299.042969 C 73.296875 299.386719 73.652344 299.984375 74.074219 299.722656 " fill-opacity="1" fill-rule="nonzero"/><path fill="#734c3a" d="M 79.722656 297.710938 C 79.167969 297.957031 78.757812 298.605469 78.351562 299.042969 C 78.195312 299.21875 78.214844 299.496094 78.292969 299.699219 L 78.660156 300.035156 C 78.949219 300.128906 79.226562 300.046875 79.417969 299.808594 C 79.816406 299.320312 80.453125 298.503906 80.097656 297.847656 L 79.722656 297.710938 " fill-opacity="1" fill-rule="nonzero"/><path fill="#734c3a" d="M 84.996094 292.53125 C 84.570312 292.953125 84.160156 293.429688 83.953125 293.988281 C 83.816406 294.371094 84.226562 294.800781 84.613281 294.597656 C 85.308594 294.238281 85.796875 293.4375 85.523438 292.65625 L 84.996094 292.53125 " fill-opacity="1" fill-rule="nonzero"/><path fill="#a493d0" d="M 125.214844 235.09375 C 125.214844 235.09375 124.640625 221.609375 104.929688 215.320312 C 94.820312 212.097656 89.917969 213.058594 86.410156 219.722656 C 82.898438 226.386719 82.882812 236.878906 81.671875 245.164062 C 80.042969 256.355469 75.566406 271.726562 75.519531 273.972656 C 75.476562 276.214844 84.839844 283.21875 101.433594 285.535156 C 120.230469 288.160156 127.894531 283.417969 127.894531 283.417969 L 125.214844 235.09375 " fill-opacity="1" fill-rule="nonzero"/><path fill="#c5bce4" d="M 108.699219 262.199219 C 108.371094 263.207031 109.894531 263.898438 110.222656 262.878906 C 112.804688 254.878906 118.882812 250.261719 125.855469 246.714844 L 125.757812 244.910156 C 118.179688 248.679688 111.472656 253.597656 108.699219 262.199219 " fill-opacity="1" fill-rule="nonzero"/><path fill="#c5bce4" d="M 122.519531 236.992188 C 123.511719 236.585938 122.902344 235.035156 121.90625 235.441406 C 112.554688 239.28125 103.820312 245.851562 102.023438 256.351562 C 101.84375 257.410156 103.492188 257.675781 103.671875 256.617188 C 105.367188 246.699219 113.722656 240.605469 122.519531 236.992188 " fill-opacity="1" fill-rule="nonzero"/><path fill="#c5bce4" d="M 116.542969 229.863281 C 117.542969 229.476562 116.933594 227.929688 115.929688 228.3125 C 106.875 231.78125 98.460938 238.988281 96.085938 248.660156 C 95.828125 249.707031 97.476562 249.964844 97.730469 248.929688 C 99.960938 239.84375 108.070312 233.105469 116.542969 229.863281 " fill-opacity="1" fill-rule="nonzero"/><path fill="#c5bce4" d="M 94.753906 237.140625 C 95.824219 237.03125 95.644531 235.378906 94.578125 235.488281 C 90.429688 235.914062 86.160156 234.734375 83.257812 231.640625 C 83.242188 231.625 83.222656 231.613281 83.207031 231.597656 C 83.121094 232.269531 83.035156 232.945312 82.953125 233.621094 C 86.1875 236.433594 90.445312 237.585938 94.753906 237.140625 " fill-opacity="1" fill-rule="nonzero"/><path fill="#c5bce4" d="M 94.011719 248.019531 C 95.089844 248.03125 94.898438 246.375 93.835938 246.367188 C 89.292969 246.328125 85.617188 244.957031 81.949219 243.039062 C 81.878906 243.628906 81.804688 244.203125 81.726562 244.773438 C 85.515625 246.691406 89.304688 247.980469 94.011719 248.019531 " fill-opacity="1" fill-rule="nonzero"/><path fill="#c5bce4" d="M 103.074219 258.472656 C 95.070312 257.894531 87.441406 256.355469 80.265625 252.957031 C 80.144531 253.511719 80.03125 254.066406 79.910156 254.628906 C 87.121094 257.996094 94.777344 259.539062 102.804688 260.117188 C 103.867188 260.191406 104.144531 258.550781 103.074219 258.472656 " fill-opacity="1" fill-rule="nonzero"/><path fill="#c5bce4" d="M 127.289062 272.53125 L 127.195312 270.871094 C 110.613281 272.511719 93.410156 268.398438 78.488281 260.886719 C 78.355469 261.445312 78.226562 262 78.089844 262.542969 C 93.175781 270.082031 110.566406 274.175781 127.289062 272.53125 " fill-opacity="1" fill-rule="nonzero"/><path fill="#c5bce4" d="M 127.765625 281.097656 L 127.671875 279.417969 C 117.402344 281.710938 107.042969 279.421875 96.871094 276.9375 C 89.742188 275.195312 82.949219 272.488281 76.523438 269.042969 C 76.382812 269.636719 76.25 270.195312 76.136719 270.703125 C 82.46875 274.054688 89.140625 276.695312 96.148438 278.46875 C 106.570312 281.105469 117.234375 283.351562 127.765625 281.097656 " fill-opacity="1" fill-rule="nonzero"/><path fill="#8174c0" d="M 117.96875 260.917969 C 111.535156 272.394531 94.382812 249.375 93.585938 242.140625 C 93.496094 241.367188 92.304688 241.558594 92.394531 242.324219 C 93.179688 249.191406 113.796875 275.246094 118.347656 261.128906 C 118.417969 260.90625 118.097656 260.699219 117.96875 260.917969 " fill-opacity="1" fill-rule="nonzero"/><path fill="#8174c0" d="M 81.109375 267.183594 C 80.679688 267.882812 80.269531 268.78125 80.480469 269.613281 C 80.566406 269.925781 81.015625 270.027344 81.148438 269.683594 C 81.402344 269.023438 81.492188 268.363281 81.894531 267.75 C 82.242188 267.230469 81.4375 266.65625 81.109375 267.183594 " fill-opacity="1" fill-rule="nonzero"/><path fill="#8174c0" d="M 83.105469 260.304688 C 83.046875 260.738281 82.996094 261.210938 82.648438 261.523438 C 82.335938 261.800781 82.640625 262.339844 83.039062 262.152344 C 83.734375 261.835938 83.988281 261.132812 83.988281 260.402344 C 83.988281 259.84375 83.183594 259.722656 83.105469 260.304688 " fill-opacity="1" fill-rule="nonzero"/><path fill="#8174c0" d="M 84.050781 252.742188 C 83.964844 253.261719 84.03125 253.816406 84.046875 254.34375 C 84.058594 254.878906 84.953125 254.851562 84.988281 254.324219 C 85.015625 253.792969 85.101562 253.25 85.035156 252.722656 C 84.957031 252.148438 84.140625 252.207031 84.050781 252.742188 " fill-opacity="1" fill-rule="nonzero"/><path fill="#8174c0" d="M 84.621094 247.367188 C 84.445312 247.8125 84.410156 248.222656 84.425781 248.695312 C 84.449219 249.414062 85.628906 249.371094 85.679688 248.671875 C 85.71875 248.199219 85.667969 247.796875 85.515625 247.347656 C 85.371094 246.941406 84.765625 247.003906 84.621094 247.367188 " fill-opacity="1" fill-rule="nonzero"/><path fill="#8174c0" d="M 87.214844 263.238281 C 86.785156 263.882812 86.441406 264.9375 87.140625 265.5 C 87.332031 265.660156 87.613281 265.625 87.800781 265.484375 C 88.371094 265.070312 88.175781 264.285156 88.300781 263.664062 C 88.425781 263.070312 87.539062 262.753906 87.214844 263.238281 " fill-opacity="1" fill-rule="nonzero"/><path fill="#8174c0" d="M 85.941406 237.421875 C 85.347656 237.839844 85.441406 238.839844 85.539062 239.476562 C 85.679688 240.363281 86.886719 240.261719 87.050781 239.453125 C 87.183594 238.785156 87.273438 237.851562 86.679688 237.40625 C 86.453125 237.234375 86.160156 237.265625 85.941406 237.421875 " fill-opacity="1" fill-rule="nonzero"/><path fill="#f3a362" d="M 140.617188 217.730469 C 154.554688 199.917969 122.542969 161.421875 143.875 156.625 C 141.898438 139.082031 120.402344 130.316406 106.164062 143.03125 C 73.339844 146.945312 64.539062 172.203125 66.507812 183.171875 C 64.898438 181.84375 59.238281 179.523438 57.851562 181.925781 C 55.511719 185.707031 61.511719 186.394531 63.605469 186.855469 C 61.738281 188.121094 57.480469 191.867188 59.074219 194.363281 C 61.117188 197.503906 66.503906 192.648438 67.890625 191.078125 C 79.140625 233.863281 133.574219 226.539062 140.617188 217.730469 " fill-opacity="1" fill-rule="nonzero"/><path fill="#2aacd3" d="M 132.929688 284.449219 C 132.929688 284.449219 128.800781 297.636719 132.089844 308.15625 C 134.511719 315.921875 140.386719 319.378906 140.386719 319.378906 C 140.386719 319.378906 142.292969 319.238281 150.09375 313.347656 C 150.09375 313.347656 142.917969 305.070312 151.640625 291.882812 C 157.015625 283.75 132.929688 284.449219 132.929688 284.449219 " fill-opacity="1" fill-rule="nonzero"/><path fill="#81d1e5" d="M 141.734375 312.976562 C 139.648438 314.097656 137.828125 316.75 137.828125 318.132812 C 137.828125 319.515625 140.476562 322.160156 141.613281 321.910156 C 142.75 321.65625 151.703125 318.007812 151.957031 316.625 C 152.210938 315.238281 150.445312 311.589844 149.558594 311.210938 C 148.675781 310.835938 146.40625 310.457031 141.734375 312.976562 " fill-opacity="1" fill-rule="nonzero"/><path fill="#c3988a" d="M 146.292969 326.761719 C 146.292969 326.761719 143.917969 322.875 142.160156 320.539062 C 142.160156 320.539062 145.328125 315.277344 150.339844 316.066406 C 150.339844 316.066406 150.867188 318.460938 152.269531 320.21875 C 153.679688 321.972656 157.078125 324.308594 154.148438 327.34375 C 151.214844 330.386719 146.292969 326.761719 146.292969 326.761719 " fill-opacity="1" fill-rule="nonzero"/><path fill="#f2698d" d="M 145.355469 326.238281 C 143.832031 326.585938 140.316406 327.230469 139.082031 328.808594 C 137.855469 330.386719 140.785156 331.671875 143.070312 331.847656 C 145.355469 332.023438 150.75 332.023438 151.804688 331.789062 C 152.859375 331.558594 156.609375 327.875 156.375 325.714844 C 156.136719 323.546875 154.4375 321.210938 153.152344 320.625 C 151.273438 319.773438 150.160156 320.449219 147.757812 324.773438 C 147.210938 325.761719 145.355469 326.238281 145.355469 326.238281 " fill-opacity="1" fill-rule="nonzero"/><path fill="#c3988a" d="M 165.496094 316.988281 C 165.496094 316.988281 165.257812 325.527344 165.984375 326.859375 C 166.710938 328.191406 169.082031 328.738281 171.511719 328.253906 C 173.941406 327.769531 174.125 326.253906 174.125 326.253906 C 174.125 326.253906 173.695312 323.046875 174.910156 318.5625 C 176.125 314.082031 165.496094 316.988281 165.496094 316.988281 " fill-opacity="1" fill-rule="nonzero"/><path fill="#2aacd3" d="M 158.953125 289.359375 C 158.953125 289.359375 168.457031 304.789062 164.722656 315.453125 C 164.722656 315.453125 169.957031 319.238281 176.117188 315.871094 C 176.117188 315.871094 183.996094 294.410156 177.527344 283.746094 C 173.464844 277.0625 158.953125 289.359375 158.953125 289.359375 " fill-opacity="1" fill-rule="nonzero"/><path fill="#81d1e5" d="M 168.617188 314.644531 C 166.667969 314.347656 165.109375 312.890625 164.589844 313.453125 C 164.191406 313.878906 163.71875 317.46875 164.371094 318.550781 C 165.023438 319.636719 169.921875 320.613281 172.96875 320.503906 C 176.015625 320.394531 176.886719 319.527344 177.429688 317.25 C 177.976562 314.972656 177.648438 314.644531 176.125 314.644531 C 175.207031 314.644531 171.558594 315.089844 168.617188 314.644531 " fill-opacity="1" fill-rule="nonzero"/><path fill="#f2698d" d="M 165.984375 331.402344 C 164.550781 331.132812 164.222656 330.496094 164.585938 328.921875 C 164.953125 327.34375 165.136719 325.769531 165.191406 325.042969 C 165.257812 324.316406 168.355469 323.589844 170.355469 324.984375 C 172.359375 326.375 172.96875 326.980469 173.515625 326.496094 C 174.0625 326.011719 173.515625 323.710938 174.609375 323.894531 C 175.699219 324.074219 175.578125 325.527344 176.613281 325.828125 C 177.648438 326.132812 180.984375 326.34375 180.546875 327.65625 C 180.230469 328.601562 176.964844 330.734375 174.113281 331.335938 C 171.257812 331.945312 167.621094 331.703125 165.984375 331.402344 " fill-opacity="1" fill-rule="nonzero"/><path fill="#c3988a" d="M 231.15625 248.839844 C 232.128906 249.292969 238.507812 251.109375 238.925781 250.332031 C 239.933594 248.410156 234.058594 246.695312 232.910156 246.386719 C 234.195312 246.460938 242.785156 247.578125 241.902344 245.148438 C 241.503906 243.976562 233.972656 243.386719 231.765625 243.273438 C 233.164062 243.28125 238.769531 242.683594 238.667969 241.132812 C 238.609375 240.289062 236.90625 240.246094 236.167969 240.238281 C 233.957031 240.222656 231.0625 241.199219 230.722656 241.125 L 230.710938 241.128906 C 231.414062 240.449219 232.082031 239.726562 232.511719 238.976562 C 232.820312 238.441406 232.976562 237.417969 232.34375 237.261719 C 231.613281 237.082031 230.4375 237.890625 229.792969 238.363281 C 229.074219 238.871094 226.585938 241.03125 226.203125 241.457031 C 225.539062 242.195312 223.265625 244.925781 225.574219 248.285156 C 226.445312 249.546875 228.269531 250.65625 229.589844 251.457031 C 230.726562 252.226562 233.882812 253.007812 234.535156 252.324219 C 235.617188 251.207031 232.421875 249.378906 231.15625 248.839844 " fill-opacity="1" fill-rule="nonzero"/><path fill="#c3988a" d="M 89.519531 222.59375 C 89.519531 222.59375 87.988281 214.933594 85.5625 214.183594 C 83.933594 213.679688 84.375 218.054688 84.375 218.054688 C 84.375 218.054688 80.847656 217.542969 79.785156 218.464844 C 78.722656 219.386719 80.304688 222.125 80.304688 222.125 C 80.304688 222.125 79.71875 225.058594 81.390625 227.507812 C 83.054688 229.960938 91.9375 233.824219 89.519531 222.59375 " fill-opacity="1" fill-rule="nonzero"/><path fill="#f2b6c7" d="M 130.960938 229.179688 C 130.960938 229.179688 102.964844 223.148438 92.277344 217.257812 C 92.277344 217.257812 87.914062 215.710938 86.226562 220.339844 C 84.539062 224.96875 85.804688 232.824219 88.339844 235.769531 C 90.867188 238.71875 102.261719 247.273438 124.632812 250.640625 C 124.632812 250.640625 119.988281 284.730469 121.253906 288.9375 C 122.523438 293.144531 136.445312 299.878906 156.703125 299.457031 C 176.960938 299.039062 186.667969 292.304688 187.929688 287.675781 C 189.199219 283.046875 187.929688 260.320312 184.558594 252.742188 C 184.558594 252.742188 196.375 255.691406 209.457031 256.535156 C 222.539062 257.375 227.601562 256.113281 228.867188 253.167969 C 230.136719 250.21875 228.867188 241.800781 225.066406 239.703125 C 221.269531 237.597656 193 240.117188 175.273438 233.808594 C 157.546875 227.496094 137.289062 230.019531 130.960938 229.179688 " fill-opacity="1" fill-rule="nonzero"/><path fill="#d793a6" d="M 91.78125 221.0625 C 92.113281 221.53125 92.34375 221.867188 92.871094 222.160156 C 93.632812 222.582031 94.351562 221.601562 93.652344 221.046875 C 93.25 220.722656 92.835938 220.632812 92.402344 220.382812 C 91.9375 220.109375 91.472656 220.625 91.78125 221.0625 " fill-opacity="1" fill-rule="nonzero"/><path fill="#d793a6" d="M 96.160156 224.464844 C 96.789062 224.933594 97.75 225.566406 98.546875 225.597656 C 99.042969 225.617188 99.523438 224.972656 99.085938 224.5625 C 98.457031 223.960938 97.40625 223.542969 96.550781 223.40625 C 95.945312 223.3125 95.71875 224.136719 96.160156 224.464844 " fill-opacity="1" fill-rule="nonzero"/><path fill="#d793a6" d="M 102.15625 226.90625 C 102.417969 227.027344 102.648438 227.179688 102.894531 227.335938 C 103.175781 227.515625 103.597656 227.542969 103.855469 227.292969 C 104.015625 227.128906 104.085938 226.996094 104.125 226.769531 C 104.195312 226.40625 103.917969 226.105469 103.617188 225.960938 C 103.300781 225.808594 102.988281 225.664062 102.652344 225.558594 C 101.757812 225.265625 101.316406 226.523438 102.15625 226.90625 " fill-opacity="1" fill-rule="nonzero"/><path fill="#d793a6" d="M 93.402344 227.683594 C 93.878906 228.339844 94.785156 229.128906 95.636719 228.914062 C 96.113281 228.792969 96.363281 228.347656 96.171875 227.882812 C 95.878906 227.160156 95.011719 226.988281 94.386719 226.613281 C 93.660156 226.1875 92.914062 227.003906 93.402344 227.683594 " fill-opacity="1" fill-rule="nonzero"/><path fill="#d793a6" d="M 124.804688 270.988281 C 124.667969 271.628906 124.566406 272.183594 125.035156 272.683594 C 125.230469 272.890625 125.625 272.988281 125.84375 272.75 C 126.363281 272.195312 126.292969 271.65625 126.136719 270.9375 C 125.964844 270.152344 124.960938 270.273438 124.804688 270.988281 " fill-opacity="1" fill-rule="nonzero"/><path fill="#d793a6" d="M 123.871094 277.714844 C 123.816406 278.308594 123.695312 278.804688 124.015625 279.339844 C 124.25 279.742188 124.902344 279.917969 125.1875 279.433594 C 125.546875 278.835938 125.445312 278.339844 125.382812 277.65625 C 125.304688 276.78125 123.945312 276.878906 123.871094 277.714844 " fill-opacity="1" fill-rule="nonzero"/><path fill="#d793a6" d="M 123.921875 284.453125 C 123.820312 284.914062 123.507812 285.433594 123.734375 285.902344 C 123.925781 286.3125 124.25 286.433594 124.675781 286.390625 C 125.078125 286.351562 125.332031 285.972656 125.394531 285.613281 C 125.46875 285.191406 125.414062 284.808594 125.332031 284.394531 C 125.160156 283.5625 124.082031 283.699219 123.921875 284.453125 " fill-opacity="1" fill-rule="nonzero"/><path fill="#d793a6" d="M 128.542969 276.019531 C 128.6875 276.585938 128.597656 277.128906 128.839844 277.667969 C 129.03125 278.089844 129.59375 278.195312 129.945312 277.90625 C 130.738281 277.242188 130.605469 275.824219 129.695312 275.285156 C 129.191406 274.984375 128.367188 275.339844 128.542969 276.019531 " fill-opacity="1" fill-rule="nonzero"/><path fill="#f6e0ca" d="M 124.632812 250.640625 C 124.632812 250.640625 135.601562 251.480469 143.199219 248.746094 C 143.199219 248.746094 149.105469 253.167969 146.574219 256.742188 C 146.574219 256.742188 127.792969 272.527344 115.347656 260.742188 C 115.347656 260.742188 116.472656 251.761719 124.632812 250.640625 " fill-opacity="1" fill-rule="nonzero"/><path fill="#f6e0ca" d="M 147.203125 255.570312 C 148.035156 256.246094 153.796875 259.515625 154.386719 258.863281 C 155.824219 257.230469 150.527344 254.175781 149.484375 253.601562 C 150.714844 253.976562 158.792969 257.101562 158.519531 254.527344 C 158.40625 253.296875 151.230469 250.941406 149.109375 250.308594 C 150.472656 250.652344 156.058594 251.398438 156.328125 249.863281 C 156.46875 249.03125 154.824219 248.589844 154.109375 248.398438 C 151.96875 247.863281 148.925781 248.125 148.609375 247.972656 L 148.597656 247.972656 C 149.449219 247.480469 150.265625 246.9375 150.859375 246.308594 C 151.289062 245.867188 151.683594 244.910156 151.105469 244.605469 C 150.441406 244.253906 149.105469 244.769531 148.359375 245.070312 C 147.550781 245.394531 144.613281 246.90625 144.140625 247.226562 C 143.324219 247.785156 140.460938 249.902344 141.90625 253.710938 C 142.457031 255.144531 143.957031 256.652344 145.054688 257.738281 C 145.972656 258.761719 148.859375 260.265625 149.648438 259.757812 C 150.960938 258.925781 148.292969 256.394531 147.203125 255.570312 " fill-opacity="1" fill-rule="nonzero"/><path fill="#f6e0ca" d="M 173.535156 253.460938 C 172.683594 254.101562 166.8125 257.179688 166.242188 256.503906 C 164.859375 254.828125 170.261719 251.953125 171.320312 251.414062 C 170.078125 251.75 161.902344 254.59375 162.269531 252.035156 C 162.414062 250.808594 169.667969 248.695312 171.808594 248.136719 C 170.441406 248.429688 164.824219 248.984375 164.609375 247.445312 C 164.496094 246.609375 166.160156 246.226562 166.875 246.058594 C 169.035156 245.59375 172.066406 245.960938 172.386719 245.816406 L 172.402344 245.820312 C 171.570312 245.300781 170.769531 244.726562 170.199219 244.078125 C 169.789062 243.621094 169.425781 242.652344 170.007812 242.371094 C 170.683594 242.039062 172.003906 242.601562 172.734375 242.925781 C 173.539062 243.28125 176.417969 244.890625 176.878906 245.222656 C 177.683594 245.816406 180.46875 248.023438 178.894531 251.78125 C 178.296875 253.195312 176.738281 254.652344 175.609375 255.699219 C 174.65625 256.6875 171.722656 258.097656 170.945312 257.5625 C 169.660156 256.683594 172.417969 254.246094 173.535156 253.460938 " fill-opacity="1" fill-rule="nonzero"/><path fill="#2785ac" d="M 175.273438 242.644531 C 175.148438 244.203125 178.371094 255.246094 181.179688 255.691406 C 185.191406 256.324219 198.0625 255.132812 214.378906 244.753906 C 223.863281 238.71875 236.292969 220.609375 227.742188 215.558594 C 220.109375 211.050781 214.011719 218.085938 199.46875 229.878906 C 185.574219 241.148438 175.441406 240.453125 175.273438 242.644531 " fill-opacity="1" fill-rule="nonzero"/><path fill="#4d4e4b" d="M 214.101562 207.152344 C 216.351562 205.1875 217.476562 202.945312 217.191406 199.859375 C 216.914062 196.210938 213.535156 195.648438 212.691406 193.125 C 212.132812 191.441406 214.378906 188.359375 213.535156 186.109375 C 212.691406 183.585938 210.160156 181.0625 207.628906 180.5 C 207.628906 174.605469 206.503906 168.996094 198.90625 169.558594 C 199.1875 167.03125 198.0625 164.507812 196.375 162.820312 C 194.40625 160.582031 191.3125 161.703125 189.625 160.296875 C 179.496094 156.792969 177.382812 149.359375 165.144531 150.0625 C 160.359375 150.332031 155.863281 150.199219 153.328125 154.128906 C 153.328125 154.128906 141.792969 143.746094 131.101562 158.054688 C 127.417969 162.988281 115.066406 166.1875 119.847656 174.328125 C 113.660156 175.449219 108.3125 178.816406 111.410156 185.269531 C 106.0625 186.394531 101.5625 193.96875 106.90625 197.894531 C 101.84375 200.980469 97.902344 209.398438 105.5 212.484375 C 102.683594 217.816406 102.683594 226.511719 110.566406 226.511719 C 110.566406 232.402344 118.445312 236.613281 123.507812 233.246094 C 125.195312 236.332031 133.074219 243.628906 135.605469 237.175781 C 137.855469 241.382812 144.605469 239.980469 147.421875 236.894531 C 145.167969 243.90625 156.136719 243.066406 158.671875 238.859375 C 159.238281 245.871094 167.679688 244.75 170.210938 239.980469 C 172.742188 244.1875 180.058594 244.46875 182.867188 240.539062 C 183.996094 243.90625 193.5625 244.75 193.5625 239.140625 C 196.652344 239.417969 198.90625 239.980469 201.71875 239.140625 C 205.9375 237.734375 204.8125 234.652344 207.347656 232.402344 C 211.847656 233.246094 220.285156 226.511719 214.101562 220.902344 C 220.285156 217.816406 217.191406 211.082031 214.101562 207.152344 " fill-opacity="1" fill-rule="nonzero"/><path fill="#f6e0ca" d="M 242.628906 228.585938 C 241.617188 228.234375 235.804688 225.050781 236.058594 224.207031 C 236.695312 222.125 242.082031 225.027344 243.113281 225.617188 C 242.148438 224.765625 235.25 219.539062 237.59375 218.429688 C 238.703125 217.871094 244.476562 222.742188 246.121094 224.207031 C 245.121094 223.230469 241.558594 218.871094 242.726562 217.839844 C 243.363281 217.285156 244.601562 218.453125 245.136719 218.960938 C 246.71875 220.496094 248.089844 223.21875 248.382812 223.410156 L 248.386719 223.421875 C 248.363281 222.441406 248.398438 221.460938 248.625 220.628906 C 248.777344 220.035156 249.390625 219.195312 249.949219 219.527344 C 250.601562 219.90625 250.859375 221.3125 250.992188 222.097656 C 251.140625 222.964844 251.386719 226.25 251.359375 226.8125 C 251.3125 227.808594 251 231.34375 246.992188 232.113281 C 245.480469 232.394531 243.40625 231.902344 241.898438 231.550781 C 240.546875 231.300781 237.75 229.640625 237.769531 228.699219 C 237.796875 227.144531 241.355469 228.089844 242.628906 228.585938 " fill-opacity="1" fill-rule="nonzero"/><path fill="#f07f65" d="M 250.957031 224.828125 C 252.859375 223.960938 257.421875 227.070312 259.394531 228.476562 C 261.367188 229.878906 265.164062 250.851562 261.363281 250.007812 C 257.566406 249.167969 249.265625 244.1875 247.015625 239.28125 C 245.140625 235.1875 247.578125 226.371094 250.957031 224.828125 " fill-opacity="1" fill-rule="nonzero"/><path fill="#df6c51" d="M 260.195312 250.308594 C 272.898438 255.359375 278.496094 240 277.714844 230.140625 C 277.660156 229.445312 276.628906 229.652344 276.664062 230.324219 C 276.910156 235.390625 276.222656 240.46875 273.617188 244.910156 C 270.628906 250 265.679688 250.617188 260.335938 249.691406 C 259.96875 249.628906 259.867188 250.179688 260.195312 250.308594 " fill-opacity="1" fill-rule="nonzero"/><path fill="#df6c51" d="M 266.34375 224.703125 C 266.84375 225.90625 265.964844 227.9375 264.859375 228.574219 C 263.183594 229.550781 260.683594 228.925781 259.003906 228.277344 C 258.574219 228.113281 258.726562 227.375 259.203125 227.480469 C 260.78125 227.824219 262.597656 228.597656 264.214844 227.957031 C 265.675781 227.382812 265.285156 225.734375 265.957031 224.652344 C 266.050781 224.511719 266.285156 224.554688 266.34375 224.703125 " fill-opacity="1" fill-rule="nonzero"/><path fill="#df6c51" d="M 254.949219 230.40625 C 254.496094 230.179688 254.03125 230.761719 254.242188 231.171875 C 254.496094 231.667969 254.855469 231.957031 255.347656 232.199219 C 255.554688 232.296875 255.898438 232.238281 256.058594 232.070312 L 256.152344 231.972656 C 256.320312 231.789062 256.402344 231.566406 256.289062 231.335938 C 256.058594 230.84375 255.417969 230.636719 254.949219 230.40625 " fill-opacity="1" fill-rule="nonzero"/><path fill="#df6c51" d="M 260.761719 230.9375 C 260.351562 230.988281 259.9375 231.078125 259.550781 231.210938 C 259.027344 231.390625 259.121094 232.199219 259.597656 232.355469 C 260.21875 232.5625 261.039062 232.566406 261.390625 231.925781 C 261.65625 231.449219 261.351562 230.859375 260.761719 230.9375 " fill-opacity="1" fill-rule="nonzero"/><path fill="#df6c51" d="M 265.796875 230.285156 C 265.121094 230.285156 264.660156 230.589844 264.070312 230.898438 C 263.0625 231.425781 263.796875 232.996094 264.835938 232.5 C 265.417969 232.226562 265.972656 232.046875 266.367188 231.519531 C 266.699219 231.070312 266.394531 230.289062 265.796875 230.285156 " fill-opacity="1" fill-rule="nonzero"/><path fill="#df6c51" d="M 270.304688 225.964844 C 270.355469 225.734375 270.421875 225.503906 270.496094 225.273438 C 270.75 224.484375 270.007812 223.910156 269.277344 224.164062 C 268.738281 224.355469 268.453125 224.6875 268.21875 225.199219 C 267.613281 226.523438 269.984375 227.339844 270.304688 225.964844 " fill-opacity="1" fill-rule="nonzero"/><path fill="#df6c51" d="M 264.023438 234.191406 C 263.332031 233.882812 262.496094 234.234375 261.796875 234.410156 C 260.984375 234.617188 261.007812 235.753906 261.855469 235.878906 C 262.679688 235.996094 263.851562 235.816406 264.285156 235.039062 C 264.472656 234.710938 264.371094 234.351562 264.023438 234.191406 " fill-opacity="1" fill-rule="nonzero"/><path fill="#df6c51" d="M 271.265625 229.503906 C 271.101562 228.964844 270.449219 228.894531 270.195312 229.40625 C 269.96875 229.871094 269.570312 230.058594 269.496094 230.59375 C 269.453125 230.84375 269.632812 231.132812 269.878906 231.207031 L 270.011719 231.246094 C 270.378906 231.355469 270.65625 231.242188 270.90625 230.96875 C 271.269531 230.5625 271.421875 230.03125 271.265625 229.503906 " fill-opacity="1" fill-rule="nonzero"/><path fill="#f6e0ca" d="M 66.023438 200.566406 C 65.3125 206.261719 67.003906 210.683594 69.382812 212.398438 C 72.945312 214.964844 78.171875 214.917969 84.417969 213.582031 C 90.660156 212.253906 96.238281 211.886719 95.347656 210.105469 C 94.457031 208.324219 82.945312 209.46875 82.945312 209.46875 C 82.945312 209.46875 100.792969 203.703125 99.722656 200.5 C 98.65625 197.300781 81.703125 205.289062 81.703125 205.289062 C 81.703125 205.289062 99.644531 192.675781 96.882812 189.738281 C 94.121094 186.796875 78.941406 201.460938 78.941406 201.460938 C 78.941406 201.460938 87.875 187.679688 84.664062 185.632812 C 81.453125 183.585938 73.769531 202.4375 71.714844 202.523438 C 69.664062 202.605469 72.445312 192.589844 68.160156 190.957031 C 66.289062 190.242188 66.828125 194.144531 66.023438 200.566406 " fill-opacity="1" fill-rule="nonzero"/><path fill="#f6e0ca" d="M 279.355469 208.785156 C 283.960938 207.609375 286.433594 205.433594 290.101562 208.523438 C 296.128906 213.601562 290.3125 217.09375 289.871094 222.34375 C 289.433594 227.589844 289.316406 233.019531 287.757812 232.476562 C 286.203125 231.933594 285.941406 222.402344 285.941406 222.402344 C 285.941406 222.402344 283.0625 237.601562 280.320312 237.0625 C 277.570312 236.523438 282.371094 221.820312 282.371094 221.820312 C 282.371094 221.820312 273.871094 237.816406 271.167969 235.863281 C 268.457031 233.910156 278.933594 219.960938 278.933594 219.960938 C 278.933594 219.960938 268.53125 228.707031 266.515625 226.296875 C 264.496094 223.886719 279.195312 215.628906 279.050781 213.945312 C 278.90625 212.253906 270.957031 215.574219 269.167969 212.242188 C 268.382812 210.785156 274.152344 210.117188 279.355469 208.785156 " fill-opacity="1" fill-rule="nonzero"/></svg>