<svg xmlns="http://www.w3.org/2000/svg" xmlns:xlink="http://www.w3.org/1999/xlink" width="500" zoomAndPan="magnify" viewBox="0 0 375 374.999991" height="500" preserveAspectRatio="xMidYMid meet" version="1.0"><defs><clipPath id="id1"><path d="M 40.441406 244 L 334.558594 244 L 334.558594 277 L 40.441406 277 Z M 40.441406 244 " clip-rule="nonzero"/></clipPath><clipPath id="id2"><path d="M 40.441406 184 L 334.558594 184 L 334.558594 202 L 40.441406 202 Z M 40.441406 184 " clip-rule="nonzero"/></clipPath><clipPath id="id3"><path d="M 40.441406 184 L 334.558594 184 L 334.558594 197 L 40.441406 197 Z M 40.441406 184 " clip-rule="nonzero"/></clipPath><clipPath id="id4"><path d="M 40.441406 184 L 334.558594 184 L 334.558594 192 L 40.441406 192 Z M 40.441406 184 " clip-rule="nonzero"/></clipPath><clipPath id="id5"><path d="M 40.441406 250 L 334.558594 250 L 334.558594 277.390625 L 40.441406 277.390625 Z M 40.441406 250 " clip-rule="nonzero"/></clipPath></defs><path fill="#f67a7a" d="M 187.5 0 C 83.945312 0 0 83.945312 0 187.5 C 0 291.054688 83.945312 375 187.5 375 C 291.054688 375 375 291.054688 375 187.5 C 375 83.945312 291.054688 0 187.5 0 " fill-opacity="1" fill-rule="nonzero"/><path fill="#ff9969" d="M 162.914062 177.316406 C 162.914062 177.316406 172.355469 179.96875 173.929688 182.414062 C 177.101562 187.335938 182.308594 213.46875 182.308594 213.46875 C 182.308594 213.46875 182.914062 217.730469 187.976562 218.078125 C 193.042969 218.429688 193.488281 220.703125 190.933594 222.277344 C 188.382812 223.851562 178.515625 224.824219 176.59375 223.421875 C 174.675781 222.023438 178.355469 217.804688 173.738281 210.351562 C 168.597656 202.050781 168.328125 198.21875 168.503906 194.714844 C 168.679688 191.214844 163.261719 186.238281 156.101562 184.175781 C 148.941406 182.113281 162.914062 177.316406 162.914062 177.316406 " fill-opacity="1" fill-rule="nonzero"/><path fill="#dd7b58" d="M 179.222656 199.421875 C 179.222656 199.421875 172.121094 199.859375 171.738281 202.050781 C 171.359375 204.246094 174.882812 209.683594 176.597656 212.929688 C 178.308594 216.171875 176.5 221.132812 177.261719 222.183594 C 178.023438 223.230469 179.601562 224.601562 186.523438 223.582031 C 186.523438 223.582031 178.023438 225.222656 176.40625 223.941406 C 174.785156 222.660156 176.300781 219.898438 176.195312 218.269531 C 176.09375 216.640625 175.453125 213.273438 173.738281 210.351562 C 172.027344 207.429688 168.597656 202.910156 169.074219 199.285156 L 179.222656 199.421875 " fill-opacity="1" fill-rule="nonzero"/><path fill="#ff9969" d="M 214.207031 190.835938 C 214.207031 190.835938 228.246094 207.269531 231.816406 213.46875 C 235.386719 219.671875 226.398438 222.277344 228.890625 226.570312 C 231.382812 230.863281 239.421875 220.609375 241.949219 217.03125 C 244.472656 213.453125 238.234375 212.492188 236.949219 209.515625 C 235.667969 206.535156 230.402344 194.21875 229.820312 190.835938 C 229.238281 187.457031 220.15625 182.273438 214.207031 190.835938 " fill-opacity="1" fill-rule="nonzero"/><path fill="#dd7c5e" d="M 222.382812 200.707031 C 222.382812 200.707031 230.863281 200.335938 232.101562 202.339844 C 233.339844 204.34375 234.148438 209.027344 236.316406 211.265625 C 238.480469 213.5 240.535156 212.644531 241.242188 214.835938 C 241.949219 217.03125 239.621094 218.9375 238.382812 220.179688 C 237.148438 221.417969 235.71875 222.199219 234.195312 224.097656 C 232.671875 226 230.03125 228.351562 228.542969 225.746094 C 228.542969 225.746094 228.226562 228.875 231.878906 227.292969 C 235.527344 225.710938 239.40625 220.5625 241.371094 218.269531 C 243.335938 215.980469 243.097656 214.882812 241.730469 213.777344 C 240.363281 212.675781 237.484375 210.761719 236.949219 209.515625 C 236.414062 208.269531 232.765625 199.421875 232.765625 199.421875 L 221.34375 199.421875 L 222.382812 200.707031 " fill-opacity="1" fill-rule="nonzero"/><path fill="#aa5e04" d="M 74.90625 220.195312 L 43.0625 125.582031 C 42.675781 124.429688 43.34375 123.1875 44.515625 122.878906 C 45.582031 122.597656 46.683594 123.195312 47.035156 124.242188 L 78.984375 219.558594 L 74.90625 220.195312 " fill-opacity="1" fill-rule="nonzero"/><path fill="#e6e6e6" d="M 45.753906 126.664062 C 45.753906 126.664062 50.972656 119.417969 60.339844 121.808594 C 69.703125 124.203125 77.386719 117.421875 77.386719 117.421875 C 77.386719 117.421875 79.871094 124.816406 79.367188 130.15625 C 78.867188 135.492188 70.355469 138.601562 66.007812 136.136719 C 61.65625 133.675781 50.945312 143.027344 50.945312 143.027344 L 45.753906 126.664062 " fill-opacity="1" fill-rule="nonzero"/><path fill="#c1272d" d="M 48.460938 135.199219 C 48.460938 135.199219 55.191406 126.117188 60.976562 128.746094 C 66.765625 131.375 77.636719 126.054688 79.082031 123.902344 C 79.082031 123.902344 78.671875 119.941406 77.386719 117.421875 C 77.386719 117.421875 71.285156 121.996094 66.128906 122.234375 C 64.730469 122.300781 63.132812 121.972656 61.402344 121.640625 C 56.75 120.753906 51.121094 119.863281 45.753906 126.664062 L 48.460938 135.199219 " fill-opacity="1" fill-rule="nonzero"/><path fill="#c8c8c8" d="M 69.445312 136.527344 C 69.296875 136.527344 69.136719 136.519531 68.96875 136.503906 C 67.601562 136.375 65.238281 132.914062 63.152344 129.355469 C 63.664062 129.429688 64.199219 129.460938 64.746094 129.460938 C 66.34375 129.460938 68.058594 129.175781 69.726562 128.722656 C 69.875 130.210938 70.132812 131.574219 70.578125 132.339844 C 71.871094 134.550781 71.824219 136.527344 69.445312 136.527344 " fill-opacity="1" fill-rule="nonzero"/><path fill="#a8252a" d="M 64.746094 129.460938 C 64.199219 129.460938 63.664062 129.429688 63.152344 129.355469 C 60.902344 125.519531 58.976562 121.574219 58.976562 121.574219 C 61.1875 122.453125 63.234375 122.726562 64.929688 122.726562 C 67.753906 122.726562 69.601562 121.964844 69.601562 121.964844 C 69.601562 121.964844 69.421875 125.621094 69.726562 128.71875 C 68.058594 129.171875 66.34375 129.460938 64.746094 129.460938 " fill-opacity="1" fill-rule="nonzero"/><path fill="#aa5e04" d="M 305.234375 233.097656 L 288.285156 111.445312 C 288.078125 109.964844 289.167969 108.617188 290.65625 108.511719 C 292.011719 108.417969 293.207031 109.390625 293.390625 110.734375 L 310.3125 233.261719 L 305.234375 233.097656 " fill-opacity="1" fill-rule="nonzero"/><path fill="#e6e6e6" d="M 291.292969 113.367188 C 291.292969 113.367188 299.25 105.804688 310.027344 110.839844 C 320.800781 115.871094 331.632812 109.425781 331.632812 109.425781 C 331.632812 109.425781 332.953125 118.933594 331.128906 125.273438 C 329.304688 131.613281 318.316406 133.421875 313.617188 129.453125 C 308.917969 125.480469 293.839844 134.335938 293.839844 134.335938 L 291.292969 113.367188 " fill-opacity="1" fill-rule="nonzero"/><path fill="#626894" d="M 226.214844 172.265625 C 221.644531 179.90625 211.0625 184.027344 211.0625 184.027344 C 211.0625 184.027344 227.421875 191.507812 233.21875 187.429688 C 239.015625 183.351562 246.578125 174.699219 245.175781 171.992188 C 243.777344 169.28125 230.785156 164.621094 226.214844 172.265625 " fill-opacity="1" fill-rule="nonzero"/><path fill="#f7931e" d="M 287.382812 160.34375 L 299.824219 269.140625 L 311.179688 267.847656 L 298.738281 159.054688 L 287.382812 160.34375 " fill-opacity="1" fill-rule="nonzero"/><path fill="#ce7421" d="M 292.992188 160.019531 L 305.375 268.820312 L 311.15625 268.164062 L 298.773438 159.363281 L 292.992188 160.019531 " fill-opacity="1" fill-rule="nonzero"/><path fill="#aa5e04" d="M 55.707031 161.050781 L 80.972656 267.847656 L 91.617188 265.371094 L 66.351562 158.574219 L 55.707031 161.050781 " fill-opacity="1" fill-rule="nonzero"/><path fill="#ff9969" d="M 189.652344 128.976562 C 189.652344 128.976562 203.601562 130.867188 213.070312 132.667969 C 220.378906 134.058594 226.042969 132.292969 226.042969 132.292969 C 226.042969 132.292969 227.355469 143.792969 224.707031 143.910156 C 222.058594 144.027344 215.214844 142.507812 208.429688 139.230469 C 205 137.570312 193.554688 135.722656 191.648438 135.722656 C 189.746094 135.722656 187.128906 137.933594 184.628906 138.230469 C 182.128906 138.523438 175.929688 129.625 189.652344 128.976562 " fill-opacity="1" fill-rule="nonzero"/><path fill="#b3b3b3" d="M 155.515625 109.527344 C 155.515625 109.527344 195.945312 129.960938 200.777344 134.246094 C 205.609375 138.527344 202.808594 147.609375 186.941406 141.621094 C 171.074219 135.636719 160.980469 130.390625 154.273438 124.875 C 147.566406 119.363281 138.574219 105.574219 155.515625 109.527344 " fill-opacity="1" fill-rule="nonzero"/><g clip-path="url(#id1)"><path fill="#c69c6d" d="M 334.5625 245.640625 C 334.5625 245.640625 278.410156 240.261719 248.277344 250.132812 C 218.148438 260.003906 162.011719 255.488281 152.785156 252.945312 C 134.890625 248.003906 116.089844 244.625 83.691406 253.375 C 63.460938 258.835938 40.441406 250.582031 40.441406 250.582031 L 40.441406 276.914062 L 334.5625 276.914062 L 334.5625 245.640625 " fill-opacity="1" fill-rule="nonzero"/></g><path fill="#333333" d="M 152.984375 168.664062 C 152.984375 168.664062 157.839844 174.003906 165.742188 176.578125 C 170.503906 178.132812 168.296875 178.382812 167.644531 182.414062 C 166.992188 186.445312 163.800781 187.171875 163.800781 187.171875 C 163.800781 187.171875 146.035156 185.6875 143.652344 182.1875 C 141.269531 178.6875 140.105469 165.453125 152.984375 168.664062 " fill-opacity="1" fill-rule="nonzero"/><path fill="#85543e" d="M 232.101562 128.890625 C 232.101562 128.890625 224.050781 133.148438 217.207031 132.292969 C 212.648438 131.726562 215.664062 142.78125 217.890625 143.929688 C 222.402344 146.261719 229.734375 148.21875 230.683594 142.566406 C 231.636719 136.917969 237.773438 128.40625 232.101562 128.890625 " fill-opacity="1" fill-rule="nonzero"/><g clip-path="url(#id2)"><path fill="#bb7e36" d="M 334.5625 201.449219 L 40.441406 201.449219 L 40.441406 184.121094 L 334.5625 184.121094 L 334.5625 201.449219 " fill-opacity="1" fill-rule="nonzero"/></g><g clip-path="url(#id3)"><path fill="#f9a94b" d="M 334.5625 196.082031 L 40.441406 196.082031 L 40.441406 184.121094 L 334.5625 184.121094 L 334.5625 196.082031 " fill-opacity="1" fill-rule="nonzero"/></g><g clip-path="url(#id4)"><path fill="#fabe78" d="M 334.5625 191.785156 L 40.441406 191.785156 L 40.441406 184.121094 L 334.5625 184.121094 L 334.5625 191.785156 " fill-opacity="1" fill-rule="nonzero"/></g><path fill="#996b35" d="M 232.761719 201.449219 L 216.640625 201.449219 C 216.613281 201.222656 216.578125 201.011719 216.535156 200.8125 C 216.335938 199.125 216.148438 198.402344 216.398438 198.003906 C 216.417969 197.976562 216.441406 197.945312 216.460938 197.914062 C 216.464844 197.914062 216.46875 197.910156 216.472656 197.90625 C 216.683594 197.679688 217.59375 197.105469 218.515625 196.554688 C 218.816406 196.746094 219.121094 196.917969 219.425781 197.066406 C 220.640625 197.679688 221.519531 197.90625 222.234375 197.90625 C 223.394531 197.90625 224.113281 197.308594 225.105469 196.800781 C 225.1875 196.761719 225.269531 196.722656 225.351562 196.679688 C 225.734375 196.503906 226.175781 196.300781 226.695312 196.082031 L 243.976562 196.082031 C 241.460938 198.003906 237.867188 199.875 232.761719 201.449219 " fill-opacity="1" fill-rule="nonzero"/><path fill="#cccccc" d="M 249.40625 184.121094 L 246.429688 184.121094 C 246.433594 184.089844 246.4375 184.058594 246.4375 184.027344 L 249.378906 184.027344 C 249.378906 184.027344 249.386719 184.058594 249.40625 184.121094 " fill-opacity="1" fill-rule="nonzero"/><path fill="#c78b45" d="M 243.976562 196.082031 L 226.695312 196.082031 C 227.769531 195.625 229.15625 195.105469 230.914062 194.609375 C 231.011719 194.585938 231.109375 194.5625 231.210938 194.542969 C 232.78125 194.199219 234.230469 193.886719 235.558594 193.566406 C 237.585938 193.214844 239.582031 192.691406 241.304688 191.785156 L 247.996094 191.785156 C 247.132812 193.179688 245.855469 194.644531 243.976562 196.082031 " fill-opacity="1" fill-rule="nonzero"/><path fill="#c89b67" d="M 247.996094 191.785156 L 241.304688 191.785156 C 243.957031 190.390625 245.957031 188.09375 246.429688 184.121094 L 249.40625 184.121094 C 249.578125 184.710938 250.355469 187.972656 247.996094 191.785156 " fill-opacity="1" fill-rule="nonzero"/><path fill="#996b35" d="M 204.667969 201.449219 L 203.632812 201.449219 C 203.632812 201.449219 202.871094 199.015625 202.9375 196.082031 L 204.191406 196.082031 C 204.234375 197.609375 204.410156 199.382812 204.667969 201.449219 " fill-opacity="1" fill-rule="nonzero"/><path fill="#565b7c" d="M 214.351562 184.121094 L 213.96875 184.121094 C 214.121094 184.058594 214.207031 184.027344 214.207031 184.027344 L 214.609375 184.027344 C 214.523438 184.058594 214.4375 184.089844 214.351562 184.121094 " fill-opacity="1" fill-rule="nonzero"/><path fill="#c78b45" d="M 204.191406 196.082031 L 202.9375 196.082031 C 202.96875 194.695312 203.1875 193.195312 203.757812 191.785156 L 204.640625 191.785156 C 204.273438 192.933594 204.144531 194.347656 204.191406 196.082031 " fill-opacity="1" fill-rule="nonzero"/><path fill="#c89b67" d="M 204.640625 191.785156 L 203.757812 191.785156 C 203.761719 191.769531 203.769531 191.75 203.777344 191.730469 C 204.640625 189.632812 207.058594 187.777344 209.351562 186.417969 C 209.496094 186.648438 209.6875 186.933594 209.910156 187.265625 C 209 187.734375 208.167969 188.164062 207.460938 188.519531 C 206.011719 189.253906 205.121094 190.300781 204.640625 191.785156 M 212.464844 184.78125 C 213.144531 184.464844 213.679688 184.242188 213.96875 184.121094 L 214.351562 184.121094 C 213.679688 184.371094 213.046875 184.589844 212.464844 184.78125 " fill-opacity="1" fill-rule="nonzero"/><path fill="#c9985e" d="M 68.300781 214.695312 C 68.300781 214.695312 66.035156 213.433594 65.710938 211.257812 C 65.382812 209.078125 66.542969 209.5 66.761719 208.113281 C 66.976562 206.726562 71.203125 208.148438 77.554688 204.332031 C 77.554688 204.332031 79.96875 204.613281 78.566406 208.648438 C 78.566406 208.648438 71.90625 214.542969 68.300781 214.695312 " fill-opacity="1" fill-rule="nonzero"/><path fill="#c9985e" d="M 60.265625 181.585938 C 60.265625 181.585938 57.996094 180.324219 57.671875 178.148438 C 57.347656 175.972656 58.507812 176.390625 58.722656 175.003906 C 58.9375 173.617188 63.167969 175.039062 69.515625 171.222656 C 69.515625 171.222656 71.929688 171.503906 70.527344 175.539062 C 70.527344 175.539062 63.871094 181.433594 60.265625 181.585938 " fill-opacity="1" fill-rule="nonzero"/><path fill="#c9985e" d="M 76.011719 249.054688 C 76.011719 249.054688 73.746094 247.792969 73.421875 245.617188 C 73.09375 243.441406 74.257812 243.859375 74.472656 242.472656 C 74.6875 241.089844 78.914062 242.511719 85.265625 238.691406 C 85.265625 238.691406 87.679688 238.976562 86.277344 243.007812 C 86.277344 243.007812 79.617188 248.902344 76.011719 249.054688 " fill-opacity="1" fill-rule="nonzero"/><path fill="#804703" d="M 57.671875 178.148438 C 57.671875 178.148438 58.15625 179.941406 62.535156 177.695312 C 66.914062 175.449219 70.796875 172.324219 70.796875 172.324219 C 70.796875 172.324219 71.492188 172.902344 70.964844 173.425781 C 70.4375 173.949219 65.433594 178.003906 62.835938 178.710938 C 60.238281 179.421875 58.351562 179.945312 58.109375 179.421875 C 57.867188 178.898438 57.671875 178.148438 57.671875 178.148438 " fill-opacity="1" fill-rule="nonzero"/><path fill="#804703" d="M 65.707031 211.257812 C 65.707031 211.257812 66.597656 212.738281 72.074219 209.667969 C 77.546875 206.601562 78.640625 205.058594 78.640625 205.058594 C 78.640625 205.058594 78.898438 205.375 78.949219 205.851562 C 79 206.332031 75.824219 208.933594 72.699219 210.582031 C 69.574219 212.234375 66.773438 212.785156 66.082031 212.410156 C 65.394531 212.03125 65.707031 211.257812 65.707031 211.257812 " fill-opacity="1" fill-rule="nonzero"/><path fill="#804703" d="M 73.390625 245.375 C 73.390625 245.375 76.277344 245.421875 80.257812 243.394531 C 84.238281 241.367188 86.371094 239.445312 86.371094 239.445312 C 86.371094 239.445312 86.675781 239.71875 86.691406 240.402344 C 86.707031 241.089844 81.714844 244.492188 79.292969 245.378906 C 76.875 246.269531 73.929688 247.105469 73.757812 246.691406 C 73.585938 246.277344 73.203125 245.710938 73.390625 245.375 " fill-opacity="1" fill-rule="nonzero"/><path fill="#ffb18e" d="M 221.804688 181.011719 C 221.804688 181.011719 211.964844 186.242188 207.464844 188.519531 C 202.960938 190.796875 203.878906 196.070312 205.589844 208.09375 C 207.316406 220.183594 205.5625 221.613281 200.742188 222.222656 C 195.917969 222.832031 195.535156 226.515625 195.535156 226.515625 C 195.535156 226.515625 198.742188 229.566406 203.972656 228.550781 C 208.570312 227.652344 213.863281 228.472656 214.207031 224.097656 C 214.832031 216.101562 217.949219 203.074219 216.203125 199.839844 C 214.453125 196.605469 224.65625 193.945312 224.65625 193.945312 L 221.804688 181.011719 " fill-opacity="1" fill-rule="nonzero"/><path fill="#999999" d="M 155.976562 126.214844 C 155.976562 126.214844 161.171875 117.03125 158.898438 111.25 C 156.546875 105.253906 150.890625 121.585938 150.890625 121.585938 C 150.890625 121.585938 152.609375 123.863281 155.976562 126.214844 " fill-opacity="1" fill-rule="nonzero"/><path fill="#ff9969" d="M 210.59375 188.253906 C 210.59375 188.253906 213.070312 193.167969 214.207031 194.652344 C 215.34375 196.136719 214.878906 197.671875 214.207031 197.90625 C 213.535156 198.140625 212.105469 199.09375 213.726562 201.097656 C 215.34375 203.101562 215.164062 208.636719 214.207031 214.453125 C 213.25 220.273438 212.375 222.183594 212.765625 223.710938 C 213.152344 225.234375 212.082031 226.378906 210.097656 226.378906 C 208.109375 226.378906 203.542969 226.773438 201.414062 227.601562 C 199.285156 228.429688 195.535156 226.515625 195.535156 226.515625 C 195.535156 226.515625 196.875 228.082031 200.113281 228.757812 C 203.347656 229.433594 205.097656 228.355469 207.160156 228.121094 C 209.222656 227.890625 213.355469 228 214.207031 225.234375 C 215.058594 222.46875 214.3125 222.171875 214.933594 218.027344 C 215.554688 213.886719 216.964844 206.199219 216.726562 202.8125 C 216.484375 199.421875 216.011719 198.398438 216.472656 197.90625 C 216.933594 197.414062 220.691406 195.285156 220.691406 195.285156 L 210.59375 188.253906 " fill-opacity="1" fill-rule="nonzero"/><path fill="#838bc5" d="M 227.816406 176.027344 C 227.816406 176.027344 245.210938 161.683594 246.464844 176.15625 C 247.753906 191.082031 242.851562 192.007812 231.210938 194.542969 C 227.066406 195.445312 225.101562 197.015625 223.253906 197.59375 C 217.261719 199.464844 208.964844 185.8125 208.964844 185.8125 C 208.964844 185.8125 221.824219 182.722656 227.816406 176.027344 " fill-opacity="1" fill-rule="nonzero"/><path fill="#78696e" d="M 222.234375 197.90625 C 221.519531 197.90625 220.640625 197.679688 219.429688 197.066406 C 220.324219 197.511719 221.214844 197.769531 222.074219 197.769531 C 222.476562 197.769531 222.867188 197.714844 223.253906 197.59375 C 223.835938 197.410156 224.433594 197.128906 225.105469 196.800781 C 224.113281 197.308594 223.394531 197.90625 222.234375 197.90625 M 225.355469 196.679688 C 225.742188 196.488281 226.15625 196.285156 226.605469 196.082031 L 226.695312 196.082031 C 226.175781 196.300781 225.734375 196.503906 225.355469 196.679688 " fill-opacity="1" fill-rule="nonzero"/><path fill="#8a7674" d="M 226.695312 196.082031 L 226.605469 196.082031 C 227.746094 195.5625 229.117188 195.023438 230.914062 194.609375 C 229.15625 195.105469 227.769531 195.625 226.695312 196.082031 " fill-opacity="1" fill-rule="nonzero"/><path fill="#a17c83" d="M 218.261719 196.390625 C 215.523438 194.609375 213.402344 191.886719 213.28125 191.730469 C 214.761719 193.476562 216.492188 195.226562 218.261719 196.390625 " fill-opacity="1" fill-rule="nonzero"/><path fill="#a1a4bf" d="M 246.441406 184.027344 L 246.429688 184.027344 C 246.441406 183.933594 246.457031 183.835938 246.46875 183.738281 C 246.460938 183.835938 246.449219 183.933594 246.441406 184.027344 " fill-opacity="1" fill-rule="nonzero"/><path fill="#8c8faa" d="M 246.429688 184.121094 L 246.414062 184.121094 C 246.417969 184.089844 246.425781 184.058594 246.429688 184.027344 L 246.4375 184.027344 C 246.433594 184.058594 246.433594 184.089844 246.429688 184.121094 " fill-opacity="1" fill-rule="nonzero"/><path fill="#8a7674" d="M 235.558594 193.566406 C 237.6875 193.046875 239.507812 192.507812 241.015625 191.785156 L 241.304688 191.785156 C 239.582031 192.691406 237.585938 193.214844 235.558594 193.566406 " fill-opacity="1" fill-rule="nonzero"/><path fill="#8b7c82" d="M 241.304688 191.785156 L 241.015625 191.785156 C 244.007812 190.355469 245.792969 188.210938 246.414062 184.121094 L 246.429688 184.121094 C 245.957031 188.09375 243.957031 190.390625 241.304688 191.785156 " fill-opacity="1" fill-rule="nonzero"/><path fill="#a1a4bf" d="M 246.65625 181.1875 C 246.691406 179.714844 246.628906 178.046875 246.464844 176.15625 C 246.460938 176.121094 246.457031 176.085938 246.453125 176.046875 C 246.605469 176.601562 246.824219 177.992188 246.65625 181.1875 " fill-opacity="1" fill-rule="nonzero"/><path fill="#6f76a8" d="M 222.074219 197.769531 C 221.214844 197.769531 220.324219 197.511719 219.425781 197.066406 C 219.421875 197.066406 219.417969 197.0625 219.414062 197.058594 C 219.019531 196.859375 218.632812 196.636719 218.257812 196.390625 C 216.492188 195.226562 214.761719 193.476562 213.28125 191.730469 C 213.277344 191.726562 213.273438 191.726562 213.273438 191.726562 C 213.273438 191.726562 214.878906 193.5 219.773438 195.039062 C 220.667969 195.324219 221.445312 195.445312 222.132812 195.445312 C 225.199219 195.441406 226.449219 193.03125 228.203125 191.726562 C 230.351562 190.125 236.625 191.175781 240.992188 189.339844 C 245.363281 187.503906 243.90625 179.5625 243.90625 179.5625 C 243.261719 179.605469 242.632812 179.625 242.027344 179.625 C 234.589844 179.625 230.183594 176.738281 230.183594 176.738281 L 246.335938 175.722656 C 246.335938 175.722656 246.386719 175.800781 246.453125 176.046875 C 246.457031 176.085938 246.460938 176.121094 246.464844 176.15625 C 246.628906 178.046875 246.691406 179.714844 246.65625 181.1875 C 246.617188 181.933594 246.554688 182.777344 246.46875 183.730469 C 246.46875 183.734375 246.46875 183.738281 246.46875 183.738281 C 246.457031 183.835938 246.441406 183.933594 246.429688 184.027344 C 246.425781 184.058594 246.417969 184.089844 246.414062 184.121094 C 245.792969 188.210938 244.007812 190.355469 241.015625 191.785156 C 239.507812 192.507812 237.6875 193.046875 235.558594 193.566406 C 235.554688 193.566406 235.554688 193.566406 235.554688 193.566406 C 233.78125 193.871094 232.242188 194.234375 230.914062 194.609375 C 229.117188 195.023438 227.742188 195.5625 226.605469 196.082031 C 226.15625 196.289062 225.742188 196.488281 225.351562 196.679688 C 225.265625 196.71875 225.183594 196.761719 225.105469 196.800781 C 224.433594 197.128906 223.835938 197.410156 223.253906 197.59375 C 222.867188 197.714844 222.476562 197.769531 222.074219 197.769531 " fill-opacity="1" fill-rule="nonzero"/><path fill="#b27052" d="M 235.207031 128.019531 C 235.207031 128.019531 225.6875 128.734375 224.019531 140.898438 C 222.355469 153.0625 223.972656 163.0625 223.617188 168.070312 C 223.261719 173.078125 223.675781 175.855469 233.21875 177.316406 C 242.761719 178.78125 248.773438 179.777344 247.109375 170.234375 C 245.441406 160.695312 258.773438 127.542969 235.207031 128.019531 " fill-opacity="1" fill-rule="nonzero"/><path fill="#fabe78" d="M 293.128906 218.261719 C 293.128906 218.261719 290.316406 216.871094 293.09375 212.15625 C 293.09375 212.15625 298.699219 213.519531 304.636719 211.277344 C 304.636719 211.277344 307.488281 213.359375 304.664062 216.6875 C 304.664062 216.6875 299.566406 218.476562 293.128906 218.261719 " fill-opacity="1" fill-rule="nonzero"/><path fill="#ff9969" d="M 240.683594 114.902344 C 240.683594 114.902344 239.023438 120.644531 239.015625 124.800781 C 239.011719 126.726562 240.992188 128.753906 240.992188 128.753906 C 232.710938 133.503906 231.039062 129.414062 231.039062 129.414062 C 231.039062 129.414062 231.875 125.480469 231.875 123.171875 C 231.875 120.863281 240.683594 114.902344 240.683594 114.902344 " fill-opacity="1" fill-rule="nonzero"/><path fill="#ea8259" d="M 237.636719 122.976562 C 237.636719 122.976562 235.394531 127.75 231.296875 128.074219 L 231.527344 126.636719 L 237.636719 122.976562 " fill-opacity="1" fill-rule="nonzero"/><path fill="#ff9969" d="M 224.382812 108.222656 C 224.382812 108.222656 223.082031 113.15625 223.675781 117.859375 C 224.308594 122.898438 226.90625 127.726562 229.09375 127.421875 C 236.222656 126.417969 243 119.21875 243 110.828125 C 243 102.441406 223.398438 101.933594 224.382812 108.222656 " fill-opacity="1" fill-rule="nonzero"/><path fill="#cccccc" d="M 146.859375 184.121094 L 130.722656 184.121094 C 130.710938 184.058594 130.707031 184.027344 130.707031 184.027344 L 146.601562 184.027344 C 146.6875 184.058594 146.769531 184.089844 146.859375 184.121094 " fill-opacity="1" fill-rule="nonzero"/><path fill="#cc7f5b" d="M 171.339844 184.121094 L 167.152344 184.121094 C 167.167969 184.089844 167.179688 184.058594 167.195312 184.027344 L 173.023438 184.027344 C 172.722656 184.03125 172.070312 184.046875 171.339844 184.121094 " fill-opacity="1" fill-rule="nonzero"/><path fill="#333333" d="M 167.152344 184.121094 L 146.859375 184.121094 C 146.769531 184.089844 146.6875 184.058594 146.601562 184.027344 L 167.195312 184.027344 C 167.179688 184.058594 167.167969 184.089844 167.152344 184.121094 " fill-opacity="1" fill-rule="nonzero"/><path fill="#996b35" d="M 173.257812 201.449219 L 151.175781 201.449219 C 151.175781 201.449219 151.839844 199.242188 150.128906 197.300781 C 149.78125 196.910156 149.265625 196.5 148.609375 196.082031 L 174.082031 196.082031 C 174.070312 198.972656 173.257812 201.449219 173.257812 201.449219 " fill-opacity="1" fill-rule="nonzero"/><path fill="#c78b45" d="M 174.082031 196.082031 L 148.609375 196.082031 C 146.425781 194.679688 142.742188 193.160156 139.039062 191.785156 L 173.335938 191.785156 C 173.898438 193.15625 174.085938 194.667969 174.082031 196.082031 " fill-opacity="1" fill-rule="nonzero"/><path fill="#c89b67" d="M 173.335938 191.785156 L 139.042969 191.785156 C 138.355469 191.53125 137.667969 191.28125 136.988281 191.039062 C 132 189.25 130.875 184.828125 130.726562 184.121094 L 171.34375 184.121094 C 168.972656 184.375 165.742188 185.289062 170.738281 188.578125 C 172.007812 189.414062 172.828125 190.542969 173.335938 191.785156 " fill-opacity="1" fill-rule="nonzero"/><path fill="#4d4d4d" d="M 133.71875 172.609375 C 133.71875 172.609375 129.207031 179.679688 135.03125 185.511719 C 140.851562 191.347656 148.933594 187.550781 152.550781 192.746094 C 156.167969 197.945312 164.214844 180.527344 159.960938 177.191406 C 155.699219 173.851562 152.265625 171.046875 151.796875 169.179688 C 151.332031 167.3125 135.246094 168.347656 133.71875 172.609375 " fill-opacity="1" fill-rule="nonzero"/><path fill="#999999" d="M 155.640625 123.125 C 155.640625 123.125 172.089844 134.253906 177.039062 135.96875 C 181.988281 137.6875 188.910156 141.359375 189.480469 140.222656 C 190.050781 139.085938 189.070312 136.851562 190.277344 135.332031 C 191.488281 133.8125 198.621094 142.777344 198.621094 142.777344 C 198.621094 142.777344 197.472656 144.960938 189.953125 142.628906 C 182.433594 140.292969 161.257812 131.40625 155.976562 126.214844 L 155.640625 123.125 " fill-opacity="1" fill-rule="nonzero"/><path fill="#838bc5" d="M 151.507812 128.339844 C 151.507812 128.339844 158.949219 133.683594 153.628906 145.839844 C 149.632812 154.964844 154.65625 167.542969 155.003906 170.171875 C 155.351562 172.796875 135.4375 174.71875 132.816406 174.71875 C 130.199219 174.71875 131.730469 160.667969 131.710938 154.542969 C 131.691406 148.417969 123.210938 121.164062 151.507812 128.339844 " fill-opacity="1" fill-rule="nonzero"/><path fill="#ff9969" d="M 138.492188 127.878906 C 138.492188 127.878906 141.449219 125.347656 140.289062 119.207031 C 139.128906 113.0625 148.816406 126.875 148.816406 126.875 L 148.644531 130.90625 C 148.644531 130.90625 141.304688 132.300781 138.492188 127.878906 " fill-opacity="1" fill-rule="nonzero"/><path fill="#dd7b58" d="M 140.894531 119.285156 C 140.894531 119.285156 140.605469 125.921875 148.738281 128.738281 L 148.644531 127.164062 L 140.894531 119.285156 " fill-opacity="1" fill-rule="nonzero"/><path fill="#85543e" d="M 246.183594 141.949219 C 246.183594 141.949219 242.628906 151.679688 238.460938 154.351562 C 234.289062 157.023438 223.519531 165.445312 223.519531 165.445312 C 223.519531 165.445312 222.710938 154 224.21875 150.933594 C 225.722656 147.863281 246.183594 141.949219 246.183594 141.949219 " fill-opacity="1" fill-rule="nonzero"/><path fill="#ffb18e" d="M 139.097656 113.636719 C 139.097656 113.636719 140.519531 122.929688 148.375 126.621094 C 153.289062 128.929688 156.800781 118.714844 157.675781 112.761719 C 158.546875 106.8125 148.710938 107.6875 145.917969 107.160156 C 143.121094 106.636719 138.371094 109.871094 139.097656 113.636719 " fill-opacity="1" fill-rule="nonzero"/><path fill="#aa5e04" d="M 314.789062 160.84375 L 267.042969 269.039062 L 277.429688 273.675781 L 325.175781 165.484375 L 314.789062 160.84375 " fill-opacity="1" fill-rule="nonzero"/><path fill="#f7931e" d="M 77.972656 159.246094 L 51.195312 269.039062 L 61.804688 271.667969 L 88.582031 161.878906 L 77.972656 159.246094 " fill-opacity="1" fill-rule="nonzero"/><path fill="#ce7421" d="M 83.636719 160.640625 L 56.695312 270.390625 L 61.640625 271.613281 L 88.582031 161.867188 L 83.636719 160.640625 " fill-opacity="1" fill-rule="nonzero"/><g clip-path="url(#id5)"><path fill="#a67c52" d="M 40.441406 262.453125 C 40.441406 262.453125 81.378906 249.566406 107.820312 260.304688 C 134.261719 271.042969 163.308594 246.542969 193.109375 251.300781 C 213.273438 254.515625 243.621094 266.753906 267.542969 262.386719 C 295.179688 257.339844 334.5625 257.882812 334.5625 257.882812 L 334.5625 277.335938 L 40.441406 277.335938 L 40.441406 262.453125 " fill-opacity="1" fill-rule="nonzero"/></g><path fill="#626894" d="M 151.957031 152.84375 C 151.957031 152.84375 146.078125 153.191406 143.023438 149.582031 C 143.023438 149.582031 139 155.019531 135.996094 155.351562 C 132.992188 155.6875 132.992188 168.746094 133.941406 170.519531 C 134.894531 172.289062 137.199219 174.402344 137.199219 174.402344 C 137.199219 174.402344 133.519531 175.171875 132.816406 174.71875 C 132.117188 174.269531 131.136719 174.207031 131.285156 168.289062 C 131.429688 162.367188 131.859375 154.65625 131.617188 153.117188 C 131.371094 151.582031 141.613281 146.40625 141.613281 146.40625 L 152.394531 150.144531 C 152.394531 150.144531 151.816406 151.8125 151.957031 152.84375 " fill-opacity="1" fill-rule="nonzero"/><path fill="#ffb18e" d="M 190.933594 138.992188 C 190.933594 138.992188 190.25 139.078125 193.671875 143.132812 C 197.09375 147.1875 195.933594 143.132812 217.5625 159.980469 C 221.535156 163.074219 239.808594 151.871094 238.378906 148.292969 C 236.953125 144.714844 231.035156 140.761719 231.035156 140.761719 C 231.035156 140.761719 224.785156 148.570312 219.976562 148.328125 C 215.167969 148.082031 205.613281 142.042969 203.707031 140.371094 C 201.804688 138.703125 200.082031 132.550781 196.039062 132.3125 C 191.992188 132.074219 188.070312 135.890625 190.933594 138.992188 " fill-opacity="1" fill-rule="nonzero"/><path fill="#603813" d="M 140.289062 119.207031 C 140.289062 119.207031 132.457031 107.117188 137.949219 105.332031 C 139.023438 104.980469 140.277344 102.902344 140.816406 102.324219 C 144.226562 98.675781 150.921875 99.335938 156.78125 101.5 C 157.417969 101.734375 159.394531 102.832031 158.125 106.648438 C 157.996094 107.039062 159.546875 106.640625 160.011719 105.378906 C 160.417969 104.261719 159.835938 102.292969 160.011719 102.453125 C 163.191406 105.425781 160.628906 110.691406 157.730469 112.019531 C 154.160156 113.652344 148.878906 110.25 146.609375 112.21875 C 144.34375 114.1875 144.402344 116.511719 142.855469 116.332031 C 141.308594 116.15625 143.308594 112.578125 141.058594 112.398438 C 139.578125 112.277344 139.023438 114.066406 140.386719 117.324219 C 140.796875 118.316406 140.289062 119.207031 140.289062 119.207031 " fill-opacity="1" fill-rule="nonzero"/><path fill="#333333" d="M 224.078125 109.625 C 224.078125 109.625 219.769531 104.433594 222.550781 101.289062 C 225.335938 98.140625 239.34375 98.03125 242.875 103.875 C 244.332031 106.289062 244.71875 106.238281 244.929688 106.980469 C 246.394531 112.175781 240.902344 118.621094 240.902344 118.621094 C 240.902344 118.621094 241.925781 114.605469 240.136719 113.503906 C 238.34375 112.402344 238.59375 117.921875 237.839844 118.621094 C 237.089844 119.324219 235.683594 118.691406 235.757812 116.492188 C 235.832031 114.289062 236.410156 112.183594 233.53125 110.71875 C 230.652344 109.257812 224.078125 109.625 224.078125 109.625 " fill-opacity="1" fill-rule="nonzero"/><path fill="#fbb03b" d="M 166.191406 107.476562 C 166.191406 107.476562 171.933594 98.464844 175.15625 102.25 C 176.761719 104.132812 166.191406 107.476562 166.191406 107.476562 " fill-opacity="1" fill-rule="nonzero"/><path fill="#fbb03b" d="M 168.449219 112.710938 C 168.449219 112.710938 179.132812 108.691406 179.132812 112.367188 C 179.132812 114.695312 168.449219 112.710938 168.449219 112.710938 " fill-opacity="1" fill-rule="nonzero"/><path fill="#fbb03b" d="M 160.585938 132.667969 C 160.585938 132.667969 166.992188 135 165.609375 138.210938 C 164.917969 139.816406 162.203125 136.714844 160.585938 132.667969 " fill-opacity="1" fill-rule="nonzero"/><path fill="#b5b9dc" d="M 138.492188 127.878906 C 138.492188 127.878906 130.730469 129.210938 125.578125 134.398438 C 120.421875 139.585938 118.996094 146.261719 118.996094 146.261719 C 118.996094 146.261719 124.703125 153.332031 126.429688 152.84375 C 128.160156 152.355469 135.597656 142.628906 136.488281 139.050781 C 137.382812 135.472656 139.597656 132.089844 138.492188 127.878906 " fill-opacity="1" fill-rule="nonzero"/><path fill="#b5b9dc" d="M 151.507812 128.339844 C 151.507812 128.339844 156.871094 130.589844 160.207031 137.320312 C 162.734375 142.425781 163.175781 144.851562 161.167969 147.050781 C 159.164062 149.25 152.734375 143.914062 152.734375 143.914062 C 152.734375 143.914062 156.707031 134.265625 151.507812 128.339844 " fill-opacity="1" fill-rule="nonzero"/><path fill="#e6e6e6" d="M 102.957031 116.777344 C 102.957031 116.777344 122.867188 148.980469 128.808594 152.304688 C 134.746094 155.632812 145.546875 148.316406 139.234375 143.730469 C 123.660156 132.410156 124.375 115.972656 111.914062 108.988281 C 104.757812 104.972656 101.039062 113.714844 102.957031 116.777344 " fill-opacity="1" fill-rule="nonzero"/><path fill="#d9d9d9" d="M 131.621094 153.15625 C 131.355469 153.125 131.101562 153.078125 130.855469 153.023438 C 131.105469 153.070312 131.359375 153.101562 131.613281 153.121094 C 131.617188 153.132812 131.617188 153.144531 131.621094 153.15625 " fill-opacity="1" fill-rule="nonzero"/><path fill="#969bba" d="M 131.621094 153.15625 C 131.617188 153.148438 131.617188 153.132812 131.613281 153.121094 C 131.617188 153.132812 131.617188 153.144531 131.621094 153.15625 " fill-opacity="1" fill-rule="nonzero"/><path fill="#84889f" d="M 132.585938 153.214844 C 132.253906 153.214844 131.933594 153.195312 131.621094 153.15625 C 131.617188 153.144531 131.617188 153.132812 131.613281 153.121094 C 131.832031 153.136719 132.046875 153.144531 132.269531 153.144531 C 134.21875 153.144531 136.25 152.496094 137.878906 151.484375 C 135.972656 152.742188 134.171875 153.214844 132.585938 153.214844 M 140.027344 149.65625 C 140.5625 149.003906 140.9375 148.300781 141.082031 147.582031 C 140.96875 148.222656 140.652344 148.921875 140.027344 149.65625 " fill-opacity="1" fill-rule="nonzero"/><path fill="#d9d9d9" d="M 109.738281 127.398438 C 109.671875 127.296875 109.617188 127.214844 109.574219 127.144531 C 109.574219 127.144531 109.570312 127.144531 109.570312 127.144531 C 109.625 127.226562 109.683594 127.3125 109.738281 127.398438 M 103.371094 117.441406 C 103.371094 117.441406 103.28125 117.316406 103.160156 117.101562 C 103.21875 117.195312 103.289062 117.308594 103.371094 117.441406 M 102.488281 115.335938 C 102.371094 114.726562 102.363281 114.042969 102.601562 113.363281 C 102.460938 114.050781 102.417969 114.730469 102.488281 115.335938 " fill-opacity="1" fill-rule="nonzero"/><path fill="#cccccc" d="M 132.265625 153.144531 C 132.046875 153.144531 131.832031 153.136719 131.617188 153.121094 C 131.359375 153.101562 131.105469 153.066406 130.855469 153.023438 C 129.464844 152.710938 128.324219 152.050781 127.527344 151.351562 C 123.183594 147.511719 111.757812 130.476562 109.738281 127.398438 C 109.683594 127.3125 109.625 127.226562 109.570312 127.144531 C 108.132812 124.933594 103.394531 117.480469 103.371094 117.441406 C 103.289062 117.308594 103.21875 117.195312 103.160156 117.101562 C 102.949219 116.730469 102.636719 116.089844 102.488281 115.335938 C 102.417969 114.730469 102.460938 114.054688 102.601562 113.363281 C 102.605469 113.359375 102.605469 113.359375 102.605469 113.355469 C 102.605469 113.355469 107.25 122.730469 109.695312 124.839844 C 112.144531 126.945312 116.824219 130.769531 117.671875 131.527344 C 118.519531 132.28125 119.089844 134.695312 117.949219 135.332031 C 116.804688 135.96875 121.945312 142.839844 124.992188 146.144531 C 127.742188 149.128906 129.511719 151.90625 132.160156 151.90625 C 132.449219 151.90625 132.742188 151.875 133.054688 151.808594 C 136.226562 151.105469 140.671875 147.976562 140.101562 146.847656 C 139.527344 145.714844 134.515625 144.429688 132.484375 144.109375 C 132.332031 144.089844 132.164062 144.078125 131.988281 144.078125 C 131.539062 144.078125 131.019531 144.140625 130.453125 144.199219 C 129.886719 144.261719 129.273438 144.324219 128.652344 144.324219 C 126.8125 144.324219 124.855469 143.785156 123.597656 141.121094 C 123.023438 139.910156 123.714844 139.445312 125.085938 139.445312 C 129.183594 139.445312 139.378906 143.617188 140.148438 144.535156 C 140.699219 145.191406 141.316406 146.265625 141.082031 147.578125 C 140.9375 148.300781 140.566406 149.003906 140.027344 149.65625 C 139.53125 150.238281 138.84375 150.84375 137.910156 151.464844 C 137.898438 151.472656 137.890625 151.480469 137.878906 151.484375 C 136.253906 152.496094 134.21875 153.144531 132.265625 153.144531 " fill-opacity="1" fill-rule="nonzero"/><path fill="#ff9969" d="M 128.191406 135.808594 C 128.191406 135.808594 130.320312 134.890625 128.894531 133.265625 C 127.46875 131.644531 130.230469 130.785156 131.800781 132.503906 C 133.371094 134.222656 133.570312 135.441406 135.050781 136.042969 C 136.535156 136.648438 128.191406 135.808594 128.191406 135.808594 " fill-opacity="1" fill-rule="nonzero"/><path fill="#ffb18e" d="M 157.9375 143.226562 C 157.9375 143.226562 149.078125 142.121094 136.101562 136.460938 C 128.933594 133.332031 126.496094 137.859375 123.003906 136.460938 C 119.511719 135.058594 124.375 145.433594 128.894531 143.917969 C 134.191406 142.140625 137.675781 144.511719 143.613281 148.1875 C 149.554688 151.863281 158.363281 152.84375 161.171875 147.050781 C 163.332031 142.59375 157.9375 143.226562 157.9375 143.226562 " fill-opacity="1" fill-rule="nonzero"/><path fill="#ffb18e" d="M 111.300781 126.734375 C 111.300781 126.734375 107.4375 128.664062 109.402344 131.527344 C 111.367188 134.390625 112.050781 140.835938 114.042969 146.910156 C 116.839844 155.4375 126.992188 153.785156 126.480469 150.6875 C 125.96875 147.589844 115.703125 138.023438 115.855469 135.402344 C 116.007812 132.777344 118.621094 135.285156 117.671875 131.527344 C 116.722656 127.769531 111.300781 126.734375 111.300781 126.734375 " fill-opacity="1" fill-rule="nonzero"/><path fill="#c18d75" d="M 226.910156 143.917969 C 226.910156 143.917969 234.929688 152.328125 236.496094 152.824219 C 238.0625 153.324219 249.320312 144.015625 246.101562 135.707031 C 242.882812 127.394531 234.136719 132.214844 232.707031 134.875 C 231.28125 137.535156 231.144531 141.050781 226.910156 143.917969 " fill-opacity="1" fill-rule="nonzero"/><path fill="#333333" d="M 245.179688 109.382812 C 245.179688 109.382812 245.96875 108.144531 246.128906 106.585938 C 246.222656 105.644531 246.132812 102.546875 240.992188 100.351562 C 240.992188 100.351562 244.890625 104.519531 244.222656 106.394531 C 243.226562 109.203125 245.179688 109.382812 245.179688 109.382812 " fill-opacity="1" fill-rule="nonzero"/><path fill="#ffb18e" d="M 234.035156 111.59375 C 234.035156 111.59375 234.988281 111.792969 234.859375 115.394531 C 234.734375 119 234.609375 121.933594 233.375 124.375 C 232.136719 126.8125 228.609375 128.902344 226.007812 126.015625 C 221.839844 121.390625 222.929688 113.234375 224.199219 110.089844 C 224.199219 110.089844 231.242188 109.300781 234.035156 111.59375 " fill-opacity="1" fill-rule="nonzero"/><path fill="#f2f2f2" d="M 226.273438 120.570312 L 230.878906 120.21875 C 230.878906 120.21875 230.132812 122.808594 228.433594 123.089844 C 226.121094 123.472656 226.273438 120.570312 226.273438 120.570312 " fill-opacity="1" fill-rule="nonzero"/><path fill="#333333" d="M 226.4375 115.691406 C 226.410156 116.289062 226.15625 116.761719 225.871094 116.746094 C 225.589844 116.730469 225.386719 116.234375 225.417969 115.636719 C 225.449219 115.039062 225.703125 114.566406 225.984375 114.582031 C 226.265625 114.59375 226.46875 115.089844 226.4375 115.691406 " fill-opacity="1" fill-rule="nonzero"/><path fill="#333333" d="M 230.550781 115.414062 C 230.519531 116.011719 230.261719 116.484375 229.980469 116.46875 C 229.699219 116.457031 229.496094 115.957031 229.527344 115.363281 C 229.558594 114.761719 229.8125 114.289062 230.09375 114.304688 C 230.375 114.320312 230.578125 114.816406 230.550781 115.414062 " fill-opacity="1" fill-rule="nonzero"/><path fill="#ff9969" d="M 228.097656 114.917969 C 228.097656 114.917969 228.308594 116.058594 227.3125 117.007812 C 226.316406 117.953125 226.269531 118.6875 227.898438 119.40625 C 227.898438 119.40625 227.363281 118.894531 227.007812 118.382812 C 226.746094 118.011719 227.710938 117.171875 228.164062 116.738281 C 228.621094 116.304688 228.097656 114.917969 228.097656 114.917969 " fill-opacity="1" fill-rule="nonzero"/><path fill="#4d4d4d" d="M 224.214844 113.234375 C 224.214844 113.234375 224.269531 113.632812 224.71875 113.464844 C 225.167969 113.296875 226.140625 113.429688 226.710938 114.066406 C 227.078125 114.476562 226.855469 113.59375 226.363281 113.21875 C 225.867188 112.84375 224.210938 112.757812 224.214844 113.234375 " fill-opacity="1" fill-rule="nonzero"/><path fill="#4d4d4d" d="M 229.027344 113.292969 C 228.90625 113.386719 228.953125 113.59375 229.097656 113.613281 C 229.238281 113.628906 229.449219 113.601562 229.761719 113.453125 C 230.535156 113.078125 231.804688 113.351562 232.0625 113.621094 C 232.320312 113.886719 232.503906 113.558594 232.15625 113.222656 C 231.8125 112.890625 231.160156 112.664062 230.402344 112.6875 C 229.871094 112.707031 229.3125 113.074219 229.027344 113.292969 " fill-opacity="1" fill-rule="nonzero"/><path fill="#c1272d" d="M 292.621094 124.304688 C 292.621094 124.304688 302.824219 114.867188 309.21875 119.367188 C 315.617188 123.871094 329.972656 119.921875 332.210938 117.652344 C 332.210938 117.652344 332.613281 112.765625 331.636719 109.425781 C 331.636719 109.425781 323.214844 113.5625 316.925781 112.675781 C 310.640625 111.785156 302.316406 103.777344 291.292969 113.367188 L 292.621094 124.304688 " fill-opacity="1" fill-rule="nonzero"/><path fill="#aa5e04" d="M 298.734375 159.011719 C 298.839844 159.824219 296.382812 160.816406 293.25 161.226562 C 290.117188 161.632812 287.492188 161.308594 287.382812 160.492188 C 287.277344 159.679688 289.734375 158.6875 292.867188 158.28125 C 296 157.871094 298.628906 158.199219 298.734375 159.011719 " fill-opacity="1" fill-rule="nonzero"/><path fill="#aa5e04" d="M 88.589844 161.925781 C 88.398438 162.722656 85.859375 162.796875 82.917969 162.089844 C 79.980469 161.382812 77.75 160.164062 77.941406 159.363281 C 78.132812 158.566406 80.671875 158.492188 83.609375 159.203125 C 86.550781 159.910156 88.777344 161.128906 88.589844 161.925781 " fill-opacity="1" fill-rule="nonzero"/><path fill="#804703" d="M 66.347656 158.5 C 66.542969 159.296875 64.320312 160.527344 61.382812 161.253906 C 58.449219 161.976562 55.910156 161.917969 55.714844 161.121094 C 55.519531 160.324219 57.738281 159.089844 60.675781 158.367188 C 63.613281 157.644531 66.152344 157.703125 66.347656 158.5 " fill-opacity="1" fill-rule="nonzero"/><path fill="#552f02" d="M 325.148438 165.539062 C 324.816406 166.289062 322.21875 165.851562 319.351562 164.5625 C 316.484375 163.277344 314.433594 161.628906 314.765625 160.878906 C 315.101562 160.128906 317.695312 160.566406 320.566406 161.851562 C 323.429688 163.140625 325.484375 164.789062 325.148438 165.539062 " fill-opacity="1" fill-rule="nonzero"/><path fill="#bb7e36" d="M 314.542969 163.207031 L 271.15625 260.546875 L 278.667969 259.132812 L 318.992188 164.925781 L 314.542969 163.207031 " fill-opacity="1" fill-rule="nonzero"/><path fill="#fabe78" d="M 58.007812 241.117188 C 58.007812 241.117188 57.625 241.292969 58.007812 238.074219 C 58.390625 234.851562 59.628906 234.46875 59.628906 234.46875 C 59.628906 234.46875 63.566406 238.6875 70.21875 237.171875 C 70.21875 237.171875 71.410156 238.558594 69 242.179688 C 69 242.179688 62.929688 244.808594 58.007812 241.117188 " fill-opacity="1" fill-rule="nonzero"/><path fill="#fabe78" d="M 65.011719 212.390625 C 65.011719 212.390625 62.785156 210.328125 66.453125 206.480469 C 66.453125 206.480469 71.238281 209.238281 77.191406 208.59375 C 77.191406 208.59375 79.289062 211.339844 75.910156 213.835938 C 75.910156 213.835938 70.832031 214.253906 65.011719 212.390625 " fill-opacity="1" fill-rule="nonzero"/><path fill="#fabe78" d="M 74.117188 174.625 C 74.117188 174.625 71.890625 172.5625 75.558594 168.714844 C 75.558594 168.714844 80.339844 171.472656 86.292969 170.832031 C 86.292969 170.832031 88.394531 173.574219 85.015625 176.070312 C 85.015625 176.070312 79.9375 176.488281 74.117188 174.625 " fill-opacity="1" fill-rule="nonzero"/><path fill="#fabe78" d="M 288.28125 175.902344 C 288.28125 175.902344 285.46875 174.507812 288.246094 169.796875 C 288.246094 169.796875 293.851562 171.160156 299.789062 168.917969 C 299.789062 168.917969 302.640625 171 299.820312 174.328125 C 299.820312 174.328125 294.71875 176.117188 288.28125 175.902344 " fill-opacity="1" fill-rule="nonzero"/><path fill="#bb7e36" d="M 73.984375 170.839844 C 73.984375 170.839844 76.765625 172.484375 80.695312 173.054688 C 84.625 173.628906 86.910156 172.414062 86.910156 172.414062 C 86.910156 172.414062 87.175781 172.820312 86.839844 173.648438 C 86.839844 173.648438 85.40625 175.5625 80.195312 174.128906 C 74.980469 172.699219 73.664062 171.589844 73.664062 171.589844 C 73.664062 171.589844 73.753906 171.246094 73.984375 170.839844 " fill-opacity="1" fill-rule="nonzero"/><path fill="#bb7e36" d="M 65.019531 208.285156 C 65.019531 208.285156 67.730469 210.171875 71.660156 210.746094 C 75.589844 211.316406 77.820312 210.296875 77.820312 210.296875 C 77.820312 210.296875 77.910156 211.054688 77.570312 211.882812 C 77.570312 211.882812 75.519531 212.730469 71.089844 212.003906 C 65.753906 211.128906 64.363281 210.195312 64.363281 210.195312 C 64.363281 210.195312 64.363281 209.242188 65.019531 208.285156 " fill-opacity="1" fill-rule="nonzero"/><path fill="#bb7e36" d="M 58.242188 236.753906 C 58.242188 236.753906 60.046875 238.878906 64.175781 239.84375 C 68.300781 240.8125 70.511719 238.777344 70.511719 238.777344 C 70.511719 238.777344 70.332031 239.792969 69.890625 240.628906 C 69.890625 240.628906 68.550781 242.027344 63.871094 241.167969 C 59.195312 240.308594 57.953125 238.554688 57.953125 238.554688 C 57.953125 238.554688 58.074219 237.328125 58.242188 236.753906 " fill-opacity="1" fill-rule="nonzero"/><path fill="#1a1a1a" d="M 153.378906 117.441406 C 153.378906 117.441406 154.046875 115.726562 155.3125 116.148438 C 155.972656 116.371094 155.433594 116.765625 155.433594 116.765625 C 155.433594 116.765625 154.507812 116.160156 153.378906 117.441406 " fill-opacity="1" fill-rule="nonzero"/><path fill="#1a1a1a" d="M 149.746094 117.03125 C 149.746094 117.730469 149.441406 118.300781 149.0625 118.300781 C 148.683594 118.300781 148.378906 117.730469 148.378906 117.03125 C 148.378906 116.328125 148.683594 115.757812 149.0625 115.757812 C 149.441406 115.757812 149.746094 116.328125 149.746094 117.03125 " fill-opacity="1" fill-rule="nonzero"/><path fill="#f2f2f2" d="M 152.414062 122.105469 L 148.097656 121.085938 C 148.097656 121.085938 148.289062 122.488281 149.746094 123.121094 C 151.207031 123.757812 152.414062 122.105469 152.414062 122.105469 " fill-opacity="1" fill-rule="nonzero"/><path fill="#ff9969" d="M 152.09375 116.515625 C 152.09375 116.515625 152.039062 117.421875 152.957031 118.300781 C 153.871094 119.179688 153.808594 119.878906 152.414062 120.261719 C 151.015625 120.640625 153.503906 119.371094 152.832031 118.863281 C 152.160156 118.351562 151.714844 117.605469 152.09375 116.515625 " fill-opacity="1" fill-rule="nonzero"/><path fill="#ff9969" d="M 122.613281 139.648438 C 122.613281 139.648438 125.6875 143.15625 128.894531 142.585938 C 132.101562 142.011719 137.050781 141.113281 140.035156 143.917969 C 143.019531 146.71875 154.949219 153.171875 161.171875 147.054688 C 161.171875 147.054688 159.898438 150.925781 153.871094 151.171875 C 148.367188 151.394531 143.035156 147.960938 143.035156 147.960938 C 143.035156 147.960938 135.503906 142.304688 131.027344 143.460938 C 127.628906 144.335938 125.898438 144.90625 122.613281 139.648438 " fill-opacity="1" fill-rule="nonzero"/><path fill="#ff9969" d="M 109.328125 128.433594 C 109.328125 128.433594 109.425781 130.726562 110.902344 132.113281 C 112.378906 133.496094 112.996094 136.5 113.28125 139.171875 C 113.566406 141.84375 114.664062 148.035156 118.328125 150.710938 C 121.992188 153.386719 124.105469 152.980469 124.105469 152.980469 C 124.105469 152.980469 119.859375 154.597656 115.953125 150.34375 C 112.042969 146.089844 112.085938 137.546875 111.019531 135.378906 C 109.949219 133.210938 107.746094 129.90625 109.328125 128.433594 " fill-opacity="1" fill-rule="nonzero"/><path fill="#f0f0f0" d="M 103.953125 114.0625 C 103.953125 114.0625 103.570312 109.664062 107.855469 108.824219 C 112.140625 107.984375 119.945312 117.03125 121.28125 120.332031 C 122.613281 123.632812 126.449219 130.589844 126.449219 130.589844 C 126.449219 130.589844 127.085938 133.734375 121.804688 131.113281 C 116.519531 128.496094 112.902344 124.933594 109.855469 121.085938 C 106.808594 117.238281 104.429688 115.46875 103.953125 114.0625 " fill-opacity="1" fill-rule="nonzero"/><path fill="#c2c2c2" d="M 160.011719 124.011719 C 160.011719 124.011719 174.417969 133.007812 182.496094 133.914062 C 190.578125 134.816406 196.996094 132.988281 189.652344 128.976562 C 182.308594 124.96875 162.730469 114.917969 162.730469 114.917969 C 162.730469 114.917969 163.148438 121.148438 160.011719 124.011719 " fill-opacity="1" fill-rule="nonzero"/><path fill="#ff9969" d="M 115.960938 136.019531 C 115.960938 136.019531 117.375 139.722656 118.582031 141.375 C 119.789062 143.03125 124.359375 148.246094 124.992188 149.390625 C 125.628906 150.535156 125.183594 153.351562 119.820312 151.6875 C 119.820312 151.6875 121.378906 153.832031 124.105469 152.980469 C 126.832031 152.125 126.929688 151.046875 125.75 149.050781 C 123.597656 145.414062 116.894531 138.863281 115.960938 136.019531 " fill-opacity="1" fill-rule="nonzero"/><path fill="#603813" d="M 147.617188 114.824219 C 147.617188 114.824219 147.304688 115.265625 147.746094 114.980469 C 148.191406 114.691406 149.554688 114.5 150.0625 114.917969 C 150.570312 115.332031 150.597656 115.414062 150.949219 115.449219 C 151.296875 115.484375 151.523438 115.320312 150.519531 114.554688 C 149.484375 113.769531 148.1875 114.347656 147.617188 114.824219 " fill-opacity="1" fill-rule="nonzero"/><path fill="#603813" d="M 153.460938 115.1875 C 153.460938 115.1875 153.355469 115.527344 153.945312 115.429688 C 154.539062 115.332031 155.292969 114.6875 155.925781 115.246094 C 156.257812 115.546875 156.257812 115.355469 156.21875 115.140625 C 156.164062 114.847656 155.609375 114.378906 154.910156 114.539062 C 154.582031 114.617188 153.578125 114.894531 153.460938 115.1875 " fill-opacity="1" fill-rule="nonzero"/><path fill="#754c24" d="M 151.246094 109.023438 C 151.246094 109.023438 155.976562 108.769531 156.539062 105.125 C 156.882812 102.875 154.378906 100.859375 150.253906 100.351562 C 146.128906 99.84375 143.652344 101.878906 143.652344 101.878906 C 143.652344 101.878906 151.476562 101.082031 149.738281 103.960938 C 148.816406 105.488281 140.894531 104.996094 151.246094 109.023438 " fill-opacity="1" fill-rule="nonzero"/><path fill="#754c24" d="M 138.179688 112.039062 C 138.179688 112.039062 135.847656 108.085938 137.75 107.105469 C 139.65625 106.125 143.652344 108.824219 143.652344 108.824219 C 143.652344 108.824219 137.839844 107.964844 138.179688 112.039062 " fill-opacity="1" fill-rule="nonzero"/><path fill="#754c24" d="M 148.816406 107.949219 C 148.816406 107.949219 154.261719 110.59375 156.917969 110.59375 C 159.574219 110.589844 160.855469 107.769531 160.792969 106.253906 C 160.792969 106.253906 159.710938 108.648438 156.980469 108.824219 C 154.253906 109.003906 150.890625 107.105469 150.890625 107.105469 L 148.816406 107.949219 " fill-opacity="1" fill-rule="nonzero"/><path fill="#4d4d4d" d="M 224.90625 107.183594 C 224.90625 107.183594 219.339844 102.636719 224.542969 101.160156 C 229.746094 99.679688 233.683594 105.410156 233.929688 106.578125 C 234.175781 107.75 227.257812 109.140625 224.90625 107.183594 " fill-opacity="1" fill-rule="nonzero"/><path fill="#333333" d="M 134.226562 174.480469 C 134.226562 174.480469 133.371094 180.300781 135.273438 182.878906 C 137.179688 185.453125 139.351562 186.261719 143.027344 187.429688 C 146.699219 188.601562 151.515625 188.695312 152.394531 189.9375 C 153.269531 191.175781 151.554688 181.832031 158.410156 178.253906 C 158.410156 178.253906 161.457031 177.4375 159.742188 182.6875 C 158.03125 187.933594 158.246094 191.109375 156.140625 192.71875 C 154.03125 194.324219 153.492188 193.824219 152.550781 192.75 C 151.609375 191.671875 149.992188 189.984375 144.394531 189.339844 C 138.796875 188.695312 133.925781 186.683594 132.363281 181.011719 C 130.800781 175.339844 133.277344 174.003906 133.277344 174.003906 L 134.226562 174.480469 " fill-opacity="1" fill-rule="nonzero"/><path fill="#ffb18e" d="M 158.242188 179.5625 C 158.242188 179.5625 166.011719 183.839844 171.890625 189.039062 C 177.773438 194.234375 162.054688 216.667969 159.085938 221.394531 C 156.117188 226.121094 163.453125 229.269531 162.578125 234.871094 C 161.707031 240.472656 153.496094 233.121094 149.828125 230.320312 C 146.160156 227.519531 146.160156 221.742188 151.050781 218.417969 C 155.941406 215.09375 156.785156 198.992188 160.207031 195.492188 C 163.625 191.988281 155.632812 193.761719 154.058594 189.714844 C 153.300781 187.757812 154.25 184.488281 155.4375 182.496094 C 156.707031 180.359375 158.242188 179.5625 158.242188 179.5625 " fill-opacity="1" fill-rule="nonzero"/><path fill="#ff9969" d="M 190.933594 134.355469 C 190.933594 134.355469 193.066406 141.734375 196.207031 143.917969 C 199.351562 146.097656 212.488281 152.679688 216.203125 155.972656 C 219.914062 159.265625 230.355469 154.511719 232.347656 152.871094 C 234.34375 151.226562 228.960938 146.027344 228.960938 146.027344 L 236.015625 152.320312 C 236.015625 152.320312 233.515625 155.210938 225.929688 158.738281 C 218.34375 162.269531 218.421875 160.621094 215.960938 158.738281 C 213.503906 156.859375 199.972656 147.425781 197.859375 146.246094 C 195.75 145.066406 193.476562 144.722656 191.402344 140.519531 C 189.320312 136.316406 189.535156 135.710938 190.933594 134.355469 " fill-opacity="1" fill-rule="nonzero"/><path fill="#ff9969" d="M 153.875 186.90625 C 153.875 186.90625 155.203125 189.140625 159.457031 191.242188 C 163.710938 193.339844 163.203125 194.355469 161.871094 195.566406 C 160.535156 196.773438 157.554688 204.699219 156.984375 208.242188 C 156.410156 211.785156 154.886719 217.507812 153.492188 218.144531 C 152.09375 218.78125 148.351562 222.789062 148.476562 224.503906 C 148.605469 226.222656 149.175781 227.9375 152.601562 230.671875 C 156.03125 233.410156 157.574219 235.882812 159.277344 236.679688 C 160.980469 237.480469 162.132812 236.144531 162.132812 236.144531 C 162.132812 236.144531 161.105469 239.140625 158.125 237.386719 C 155.140625 235.632812 153.109375 231.945312 151.078125 230.484375 C 149.046875 229.019531 146.4375 225.203125 147.519531 222.996094 C 148.605469 220.789062 150.507812 218.527344 152.09375 217.445312 C 153.679688 216.363281 154.644531 213.007812 155.863281 208.242188 C 157.078125 203.476562 158.476562 197.417969 160.203125 195.492188 C 161.933594 193.5625 160.289062 193.175781 159.269531 192.882812 C 158.25 192.59375 155.625 192.25 154.308594 190.226562 C 153.484375 188.953125 153.875 186.90625 153.875 186.90625 " fill-opacity="1" fill-rule="nonzero"/><path fill="#626894" d="M 154.15625 137.320312 C 154.15625 137.320312 152.441406 142.117188 151.507812 141.867188 L 153.273438 142.308594 C 153.273438 142.308594 154.179688 139.671875 154.15625 137.320312 " fill-opacity="1" fill-rule="nonzero"/><path fill="#c9985e" d="M 288.257812 220.960938 C 288.257812 220.960938 287.210938 218.582031 288.257812 216.652344 C 289.308594 214.71875 289.984375 215.753906 290.988281 214.777344 C 291.992188 213.800781 294.511719 217.488281 301.875 218.277344 C 301.875 218.277344 303.632812 219.960938 300.085938 222.332031 C 300.085938 222.332031 291.226562 223.015625 288.257812 220.960938 " fill-opacity="1" fill-rule="nonzero"/><path fill="#c9985e" d="M 301.761719 189.6875 C 301.761719 189.6875 300.710938 187.308594 301.761719 185.375 C 302.8125 183.445312 303.484375 184.480469 304.488281 183.503906 C 305.496094 182.527344 308.011719 186.214844 315.378906 187.003906 C 315.378906 187.003906 317.132812 188.6875 313.589844 191.058594 C 313.589844 191.058594 304.730469 191.742188 301.761719 189.6875 " fill-opacity="1" fill-rule="nonzero"/><path fill="#c9985e" d="M 273.746094 253.035156 C 273.746094 253.035156 272.695312 250.660156 273.746094 248.726562 C 274.792969 246.792969 275.46875 247.828125 276.472656 246.855469 C 277.480469 245.878906 279.996094 249.566406 287.359375 250.355469 C 287.359375 250.355469 289.117188 252.039062 285.570312 254.410156 C 285.570312 254.410156 276.714844 255.09375 273.746094 253.035156 " fill-opacity="1" fill-rule="nonzero"/><path fill="#c8c8c8" d="M 318.453125 130.785156 C 318.066406 130.785156 317.621094 130.71875 317.117188 130.570312 C 315.492188 130.101562 313.421875 125.375 311.710938 120.601562 C 313.445312 121.1875 315.445312 121.429688 317.511719 121.429688 C 318.269531 121.429688 319.035156 121.398438 319.800781 121.335938 C 319.640625 123.171875 319.640625 124.878906 320.007812 125.90625 C 320.964844 128.585938 320.644531 130.785156 318.453125 130.785156 " fill-opacity="1" fill-rule="nonzero"/><path fill="#a8252a" d="M 317.507812 121.429688 C 315.445312 121.429688 313.441406 121.1875 311.710938 120.601562 C 309.863281 115.449219 308.433594 110.242188 308.433594 110.242188 C 312.527344 112.832031 316.457031 113.324219 318.84375 113.324219 C 320.304688 113.324219 321.1875 113.140625 321.1875 113.140625 C 321.1875 113.140625 320.136719 117.519531 319.800781 121.335938 C 319.035156 121.398438 318.269531 121.429688 317.507812 121.429688 " fill-opacity="1" fill-rule="nonzero"/><path fill="#804703" d="M 301.761719 185.378906 C 301.761719 185.378906 301.066406 187.101562 305.914062 187.953125 C 310.757812 188.804688 315.734375 188.65625 315.734375 188.65625 C 315.734375 188.65625 315.941406 189.539062 315.207031 189.636719 C 314.472656 189.734375 308.042969 189.949219 305.542969 188.949219 C 303.042969 187.945312 301.21875 187.222656 301.34375 186.660156 C 301.464844 186.09375 301.761719 185.378906 301.761719 185.378906 " fill-opacity="1" fill-rule="nonzero"/><path fill="#804703" d="M 288.257812 216.652344 C 288.257812 216.652344 288.074219 218.371094 294.289062 219.226562 C 300.503906 220.085938 302.304688 219.515625 302.304688 219.515625 C 302.304688 219.515625 302.320312 219.925781 302.074219 220.335938 C 301.828125 220.75 297.730469 220.90625 294.242188 220.335938 C 290.753906 219.765625 288.1875 218.511719 287.863281 217.796875 C 287.539062 217.082031 288.257812 216.652344 288.257812 216.652344 " fill-opacity="1" fill-rule="nonzero"/><path fill="#804703" d="M 273.863281 248.515625 C 273.863281 248.515625 276.144531 250.296875 280.539062 251.082031 C 284.933594 251.871094 287.789062 251.621094 287.789062 251.621094 C 287.789062 251.621094 287.871094 252.027344 287.46875 252.582031 C 287.070312 253.136719 281.039062 252.835938 278.574219 252.085938 C 276.109375 251.332031 273.253906 250.222656 273.367188 249.789062 C 273.480469 249.355469 273.511719 248.667969 273.863281 248.515625 " fill-opacity="1" fill-rule="nonzero"/><path fill="#bb7e36" d="M 287.382812 171.601562 C 287.382812 171.601562 289.679688 173.570312 295.078125 172.417969 C 300.472656 171.265625 300.929688 170.574219 300.929688 170.574219 C 300.929688 170.574219 301.371094 171.015625 301.007812 172.0625 C 301.007812 172.0625 296.953125 174.222656 292.042969 174.273438 C 287.128906 174.324219 287.019531 173.628906 287.019531 173.628906 C 287.019531 173.628906 286.84375 172.5 287.382812 171.601562 " fill-opacity="1" fill-rule="nonzero"/></svg>