<svg xmlns="http://www.w3.org/2000/svg" xmlns:xlink="http://www.w3.org/1999/xlink" width="500" zoomAndPan="magnify" viewBox="0 0 375 374.999991" height="500" preserveAspectRatio="xMidYMid meet" version="1.0"><defs><clipPath id="id1"><path d="M 238 84 L 334.558594 84 L 334.558594 163 L 238 163 Z M 238 84 " clip-rule="nonzero"/></clipPath><clipPath id="id2"><path d="M 315 130 L 334.558594 130 L 334.558594 134 L 315 134 Z M 315 130 " clip-rule="nonzero"/></clipPath></defs><path fill="#ff6100" d="M 187.5 0 C 83.945312 0 0 83.945312 0 187.5 C 0 291.054688 83.945312 375 187.5 375 C 291.054688 375 375 291.054688 375 187.5 C 375 83.945312 291.054688 0 187.5 0 " fill-opacity="1" fill-rule="nonzero"/><path fill="#efbb00" d="M 268.078125 169.8125 L 275.945312 185.667969 L 285.183594 171.832031 L 268.078125 169.8125 " fill-opacity="1" fill-rule="nonzero"/><path fill="#bca4c8" d="M 68.75 136.898438 C 75.449219 161.953125 89.898438 160.335938 76.738281 181.179688 C 63.246094 202.550781 40.449219 221.945312 70.660156 242.695312 C 100.875 263.449219 166.46875 227.390625 176.371094 220.859375 C 200.285156 205.082031 221.859375 170.535156 193.589844 157.773438 C 176.988281 150.273438 160.644531 148.195312 159.328125 126.007812 C 158.011719 103.820312 142.613281 82.835938 124.820312 83.976562 C 107.027344 85.121094 60.832031 107.28125 68.75 136.898438 " fill-opacity="1" fill-rule="nonzero"/><path fill="#71cedc" d="M 247.3125 144.0625 C 211.296875 118.46875 153.921875 124.003906 128.386719 161.664062 C 114.628906 181.960938 109.28125 207.644531 114.527344 231.78125 C 119.234375 253.460938 133.71875 271.425781 152.679688 282.035156 C 172.6875 293.230469 196.707031 295.03125 218.65625 289.453125 C 241.15625 283.726562 259.339844 271.050781 271.347656 250.558594 C 292.054688 215.214844 279.996094 167.292969 247.3125 144.0625 " fill-opacity="1" fill-rule="nonzero"/><path fill="#05a973" d="M 247.316406 144.0625 C 238.914062 138.09375 229.34375 133.839844 219.296875 131.269531 C 217.179688 131.589844 215.070312 131.929688 213.011719 132.472656 C 205.25 134.519531 198.300781 139.621094 194.195312 146.527344 C 190.09375 153.4375 188.9375 162.082031 191.285156 169.769531 C 192.425781 173.5 194.652344 177.25 198.304688 178.605469 C 201.0625 179.632812 204.132812 179.113281 207.003906 178.472656 C 214.078125 176.886719 221.179688 174.59375 228.40625 175.148438 C 235.640625 175.699219 243.230469 180.035156 244.800781 187.125 C 245.683594 191.117188 244.5625 195.421875 245.847656 199.300781 C 246.617188 201.628906 248.191406 203.59375 249.847656 205.402344 C 256.953125 213.15625 266.164062 218.964844 276.21875 222.023438 C 277.203125 222.320312 278.253906 222.59375 279.238281 222.308594 C 279.964844 222.097656 280.542969 221.605469 281.058594 221.035156 C 284.355469 191.921875 271.484375 161.238281 247.316406 144.0625 " fill-opacity="1" fill-rule="nonzero"/><path fill="#05a973" d="M 178.90625 279.148438 C 177.808594 274.976562 176.640625 270.664062 173.90625 267.332031 C 171.191406 264.019531 166.886719 261.511719 166.28125 257.269531 C 165.84375 254.246094 167.503906 251.339844 167.878906 248.308594 C 168.785156 241.023438 161.859375 234.691406 154.648438 233.375 C 147.4375 232.058594 140.121094 234.328125 133.054688 236.277344 C 129.832031 237.167969 125.976562 237.863281 123.476562 235.636719 C 121.6875 234.042969 121.230469 231.441406 121.09375 229.039062 C 120.734375 222.8125 121.785156 216.503906 124.144531 210.730469 C 125.679688 206.972656 127.761719 203.429688 128.882812 199.53125 C 130.003906 195.628906 130.023438 191.128906 127.65625 187.835938 C 125.664062 185.066406 122.273438 183.582031 118.894531 183.15625 C 118.488281 183.105469 118.082031 183.105469 117.679688 183.078125 C 112.28125 198.605469 110.996094 215.542969 114.527344 231.78125 C 119.234375 253.457031 133.71875 271.425781 152.679688 282.035156 C 161.871094 287.175781 171.910156 290.316406 182.207031 291.6875 C 181.105469 287.507812 180.003906 283.328125 178.90625 279.148438 " fill-opacity="1" fill-rule="nonzero"/><path fill="#05a973" d="M 267.042969 257.175781 C 259.925781 255.472656 251.9375 257.238281 246.484375 262.179688 C 243.839844 264.574219 241.765625 267.605469 238.855469 269.679688 C 235.632812 271.976562 231.492188 273.011719 228.828125 275.945312 C 226.050781 279.007812 225.507812 283.40625 225.148438 287.542969 C 242.21875 281.941406 256.488281 271.964844 267.042969 257.175781 " fill-opacity="1" fill-rule="nonzero"/><path fill="#33210f" d="M 189.503906 179.769531 C 185.460938 179.890625 182.074219 176.699219 181.949219 172.648438 C 181.9375 172.183594 182.300781 171.796875 182.761719 171.78125 C 183.222656 171.769531 183.609375 172.132812 183.625 172.597656 C 183.71875 175.71875 186.335938 178.183594 189.453125 178.085938 C 192.570312 177.992188 195.03125 175.375 194.933594 172.25 C 194.921875 171.789062 195.285156 171.402344 195.746094 171.386719 C 196.210938 171.371094 196.59375 171.734375 196.609375 172.199219 C 196.734375 176.25 193.546875 179.644531 189.503906 179.769531 " fill-opacity="1" fill-rule="nonzero"/><path fill="#33210f" d="M 174.003906 168.820312 C 174.160156 173.984375 170.109375 178.296875 164.953125 178.453125 C 159.800781 178.613281 155.492188 174.554688 155.335938 169.390625 C 155.179688 164.226562 159.230469 159.914062 164.386719 159.757812 C 169.539062 159.597656 173.847656 163.65625 174.003906 168.820312 " fill-opacity="1" fill-rule="nonzero"/><path fill="#ffffff" d="M 163.410156 165.15625 C 163.460938 166.804688 162.167969 168.183594 160.519531 168.230469 C 158.875 168.285156 157.5 166.984375 157.449219 165.335938 C 157.398438 163.6875 158.691406 162.308594 160.339844 162.257812 C 161.984375 162.210938 163.359375 163.507812 163.410156 165.15625 " fill-opacity="1" fill-rule="nonzero"/><path fill="#ffffff" d="M 163.335938 169.710938 C 163.355469 170.332031 162.867188 170.851562 162.246094 170.867188 C 161.628906 170.886719 161.109375 170.398438 161.089844 169.777344 C 161.074219 169.160156 161.558594 168.640625 162.179688 168.621094 C 162.800781 168.601562 163.316406 169.089844 163.335938 169.710938 " fill-opacity="1" fill-rule="nonzero"/><path fill="#ffffff" d="M 165.296875 166.65625 C 165.3125 167.046875 165.003906 167.371094 164.617188 167.382812 C 164.230469 167.398438 163.902344 167.089844 163.890625 166.699219 C 163.878906 166.3125 164.1875 165.988281 164.574219 165.972656 C 164.960938 165.964844 165.285156 166.269531 165.296875 166.65625 " fill-opacity="1" fill-rule="nonzero"/><path fill="#ec6f80" d="M 168.1875 178.359375 C 168.222656 179.507812 164.59375 180.554688 160.082031 180.6875 C 155.570312 180.828125 151.886719 180.007812 151.851562 178.855469 C 151.816406 177.707031 155.445312 176.660156 159.957031 176.523438 C 164.464844 176.382812 168.152344 177.207031 168.1875 178.359375 " fill-opacity="1" fill-rule="nonzero"/><path fill="#33210f" d="M 223.339844 167.316406 C 223.496094 172.480469 219.445312 176.792969 214.289062 176.949219 C 209.132812 177.105469 204.828125 173.046875 204.671875 167.882812 C 204.515625 162.71875 208.566406 158.40625 213.722656 158.25 C 218.875 158.09375 223.179688 162.152344 223.339844 167.316406 " fill-opacity="1" fill-rule="nonzero"/><path fill="#ffffff" d="M 212.746094 163.648438 C 212.796875 165.296875 211.503906 166.675781 209.855469 166.726562 C 208.210938 166.777344 206.835938 165.480469 206.785156 163.832031 C 206.734375 162.183594 208.027344 160.804688 209.675781 160.753906 C 211.320312 160.703125 212.695312 162 212.746094 163.648438 " fill-opacity="1" fill-rule="nonzero"/><path fill="#ffffff" d="M 212.671875 168.203125 C 212.691406 168.824219 212.203125 169.34375 211.582031 169.363281 C 210.964844 169.382812 210.445312 168.894531 210.425781 168.273438 C 210.40625 167.652344 210.894531 167.132812 211.515625 167.113281 C 212.132812 167.09375 212.652344 167.582031 212.671875 168.203125 " fill-opacity="1" fill-rule="nonzero"/><path fill="#ffffff" d="M 214.636719 165.152344 C 214.648438 165.539062 214.339844 165.867188 213.953125 165.878906 C 213.566406 165.890625 213.238281 165.585938 213.230469 165.195312 C 213.214844 164.804688 213.519531 164.480469 213.910156 164.46875 C 214.300781 164.457031 214.625 164.761719 214.636719 165.152344 " fill-opacity="1" fill-rule="nonzero"/><path fill="#ec6f80" d="M 227.03125 176.558594 C 227.066406 177.710938 223.4375 178.757812 218.925781 178.894531 C 214.414062 179.03125 210.730469 178.210938 210.695312 177.058594 C 210.660156 175.910156 214.289062 174.863281 218.800781 174.726562 C 223.308594 174.589844 226.996094 175.410156 227.03125 176.558594 " fill-opacity="1" fill-rule="nonzero"/><path fill="#bca4c8" d="M 73.613281 149.667969 C 74.796875 151.8125 76.289062 153.757812 77.640625 155.804688 C 79 157.835938 80.246094 160.007812 80.863281 162.429688 C 81.480469 164.839844 81.40625 167.417969 80.753906 169.8125 C 80.140625 172.230469 79.046875 174.480469 77.800781 176.605469 C 76.542969 178.730469 75.09375 180.734375 73.546875 182.648438 C 71.992188 184.5625 70.386719 186.394531 68.820312 188.277344 C 65.683594 192.027344 62.582031 195.8125 59.742188 199.773438 C 56.894531 203.722656 54.296875 207.878906 52.566406 212.402344 C 52.460938 212.683594 52.332031 212.960938 52.242188 213.246094 L 51.980469 214.113281 C 51.8125 214.691406 51.617188 215.265625 51.472656 215.851562 C 51.25 217.035156 50.933594 218.203125 50.871094 219.410156 C 50.566406 221.804688 50.753906 224.230469 51.121094 226.609375 C 51.378906 227.792969 51.574219 228.988281 51.980469 230.132812 C 52.171875 230.707031 52.320312 231.296875 52.542969 231.859375 L 53.242188 233.535156 C 54.265625 235.722656 55.476562 237.851562 57.054688 239.703125 C 60.132812 243.445312 64.171875 246.464844 68.75 248.210938 C 66.414062 247.457031 64.222656 246.292969 62.199219 244.902344 C 60.171875 243.511719 58.320312 241.859375 56.703125 239.992188 C 55.0625 238.140625 53.792969 235.992188 52.710938 233.777344 L 51.964844 232.078125 C 51.726562 231.507812 51.566406 230.910156 51.363281 230.328125 C 50.925781 229.164062 50.703125 227.945312 50.421875 226.738281 L 50.316406 226.285156 L 50.261719 225.824219 L 50.03125 223.976562 L 49.976562 223.515625 L 49.964844 223.050781 L 49.941406 221.1875 C 49.921875 220.566406 50.03125 219.949219 50.074219 219.328125 C 50.132812 218.085938 50.449219 216.878906 50.671875 215.65625 C 50.816406 215.054688 51.011719 214.464844 51.183594 213.867188 L 51.449219 212.976562 C 51.539062 212.679688 51.667969 212.398438 51.773438 212.109375 C 53.519531 207.464844 56.136719 203.230469 58.988281 199.234375 C 61.878906 195.253906 65.011719 191.476562 68.175781 187.738281 C 69.75 185.863281 71.382812 184.019531 72.925781 182.144531 C 74.457031 180.253906 75.917969 178.304688 77.191406 176.238281 C 78.453125 174.175781 79.558594 171.992188 80.191406 169.664062 C 80.863281 167.351562 80.96875 164.882812 80.421875 162.535156 C 79.894531 160.175781 78.730469 158 77.4375 155.933594 C 76.140625 153.867188 74.710938 151.859375 73.613281 149.667969 " fill-opacity="1" fill-rule="nonzero"/><path fill="#f5cdae" d="M 135.070312 191.15625 C 135.070312 191.15625 141.382812 183.410156 142.296875 184.601562 C 143.210938 185.792969 142.800781 187.578125 140.238281 194.222656 C 140.238281 194.222656 147.007812 185.882812 147.511719 187.625 C 148.015625 189.367188 144.949219 196.925781 144.949219 196.925781 C 144.949219 196.925781 147.605469 191.75 148.425781 192.757812 C 149.25 193.765625 151.082031 195.757812 142.296875 210.429688 C 142.296875 210.429688 128.226562 207.160156 128.1875 196.652344 C 128.1875 196.652344 131.066406 192.253906 131.652344 190.238281 C 132.234375 188.222656 135.40625 182.480469 135.070312 191.15625 " fill-opacity="1" fill-rule="nonzero"/><path fill="#dc6d8d" d="M 100.398438 157.246094 C 100.398438 157.246094 80.089844 207.097656 102.777344 221.210938 C 125.464844 235.324219 142.296875 210.429688 142.296875 210.429688 C 142.296875 210.429688 130.179688 206.734375 128.1875 196.652344 C 128.1875 196.652344 122.457031 204.03125 113.21875 202.289062 C 113.21875 202.289062 114.488281 185.335938 124.238281 168.402344 L 100.398438 157.246094 " fill-opacity="1" fill-rule="nonzero"/><path fill="#f5cdae" d="M 159.542969 135.957031 C 159.210938 135.050781 158.78125 134.269531 158.296875 133.652344 C 150.261719 123.371094 145.203125 105.761719 145.203125 105.761719 C 145.203125 105.761719 137.429688 92.539062 123.5625 95.757812 C 100.226562 101.171875 70.289062 125.230469 97.628906 157.148438 C 97.628906 157.148438 101.574219 161.621094 103.417969 163.640625 C 105.453125 165.867188 112.234375 170.179688 124.25 168.390625 C 125.53125 166.09375 126.90625 163.847656 128.386719 161.664062 C 136.261719 150.046875 147.171875 141.492188 159.542969 135.957031 " fill-opacity="1" fill-rule="nonzero"/><path fill="#f3b5ae" d="M 116.441406 154.945312 C 115.636719 154.945312 114.917969 154.691406 114.496094 153.992188 C 113.976562 153.125 113.746094 151.628906 116.367188 149.972656 C 117.871094 149.023438 119.265625 148.519531 120.355469 148.519531 C 121.164062 148.519531 121.804688 148.796875 122.199219 149.363281 C 123.136719 150.703125 121.574219 152.828125 120.320312 153.644531 C 119.523438 154.164062 117.851562 154.945312 116.441406 154.945312 " fill-opacity="1" fill-rule="nonzero"/><path fill="#f3b5ae" d="M 153.359375 134.058594 C 152.582031 134.058594 151.878906 133.71875 151.597656 132.957031 C 151.390625 132.398438 151.441406 131.183594 152.871094 130.425781 C 153.539062 130.070312 154.136719 129.890625 154.617188 129.890625 C 155.167969 129.890625 155.570312 130.121094 155.773438 130.589844 C 156.160156 131.464844 156.890625 132.523438 154.835938 133.664062 C 154.378906 133.917969 153.851562 134.058594 153.359375 134.058594 " fill-opacity="1" fill-rule="nonzero"/><path fill="#86709b" d="M 112.542969 133.722656 C 112.542969 133.722656 114.261719 128.058594 115.984375 129.394531 C 117.710938 130.730469 113.75 133.046875 112.542969 133.722656 " fill-opacity="1" fill-rule="nonzero"/><path fill="#86709b" d="M 141.714844 119.582031 C 141.714844 119.582031 137.734375 122.886719 137.117188 121.078125 C 136.503906 119.269531 140.507812 119.492188 141.714844 119.582031 " fill-opacity="1" fill-rule="nonzero"/><path fill="#9e4d4d" d="M 131.554688 146.976562 C 131.554688 146.976562 135.121094 143.789062 137.777344 142.789062 C 140.433594 141.789062 143.09375 141.460938 143.09375 141.460938 C 143.09375 141.460938 145.148438 149.242188 140.132812 151.277344 C 135.117188 153.3125 130.839844 147.585938 131.554688 146.976562 " fill-opacity="1" fill-rule="nonzero"/><path fill="#f2848a" d="M 137.878906 146.5625 C 139.945312 145.527344 143.242188 147.414062 143.242188 147.414062 C 143.242188 147.414062 142.910156 151.117188 139.257812 151.632812 C 135.90625 152.105469 134.339844 150.578125 134.339844 150.578125 C 134.339844 150.578125 135.148438 147.933594 137.878906 146.5625 " fill-opacity="1" fill-rule="nonzero"/><path fill="#f5cdae" d="M 97.480469 149.886719 C 100.628906 154.308594 100.746094 159.632812 97.738281 161.78125 C 94.730469 163.933594 89.742188 162.089844 86.59375 157.671875 C 83.445312 153.253906 83.332031 147.925781 86.335938 145.78125 C 89.34375 143.628906 94.332031 145.46875 97.480469 149.886719 " fill-opacity="1" fill-rule="nonzero"/><path fill="#f4ba90" d="M 94.300781 161.164062 C 93.179688 161.164062 92.074219 160.472656 91.117188 159.882812 C 89.511719 158.894531 87.71875 157.542969 86.742188 155.902344 C 85.84375 154.390625 85.015625 152.84375 85.273438 151.015625 C 85.332031 150.601562 85.46875 150.160156 85.8125 149.921875 C 86.011719 149.785156 86.25 149.738281 86.492188 149.738281 C 86.648438 149.738281 86.804688 149.757812 86.957031 149.785156 C 87.9375 149.980469 88.808594 150.523438 89.660156 151.054688 C 90.332031 151.472656 91.007812 151.898438 91.566406 152.460938 C 92.0625 152.957031 92.449219 153.542969 92.820312 154.132812 C 94.046875 156.085938 95.125 158.125 96.046875 160.234375 L 95.691406 160.75 C 95.230469 161.046875 94.765625 161.164062 94.300781 161.164062 " fill-opacity="1" fill-rule="nonzero"/><path fill="#eaaa75" d="M 90.992188 154.011719 C 91.617188 153.988281 92.183594 154.101562 92.640625 154.253906 C 92.507812 154.074219 92.386719 153.890625 92.246094 153.714844 C 90.972656 152.097656 89.464844 150.972656 88.261719 150.382812 C 87.070312 149.738281 86.226562 149.792969 86.210938 149.683594 C 86.203125 149.636719 86.414062 149.539062 86.820312 149.527344 C 87.230469 149.511719 87.824219 149.617188 88.484375 149.878906 C 89.820312 150.367188 91.511719 151.515625 92.855469 153.226562 C 94.207031 154.933594 94.9375 156.769531 95.378906 158.082031 C 95.816406 159.410156 95.992188 160.253906 95.992188 160.253906 C 95.992188 160.253906 95.511719 159.253906 95.019531 158.234375 C 94.546875 157.289062 93.910156 156.070312 93.0625 154.832031 L 93.023438 154.824219 C 92.496094 154.777344 91.792969 154.761719 91.027344 154.792969 C 89.484375 154.84375 88.292969 155.359375 88.179688 155.164062 C 88.054688 155 89.230469 154.082031 90.992188 154.011719 " fill-opacity="1" fill-rule="nonzero"/><path fill="#bca4c8" d="M 105.53125 158.632812 C 105.53125 158.632812 106.699219 154.257812 99.644531 143.207031 C 92.589844 132.164062 93.144531 115.054688 101.320312 106.785156 C 109.496094 98.515625 132.984375 93.273438 138.847656 95.683594 C 144.707031 98.09375 152.007812 116.933594 152.007812 116.933594 C 152.007812 116.933594 153.964844 112.082031 147.316406 99.910156 C 143.777344 93.4375 134.394531 80.324219 107.382812 91.789062 C 80.484375 103.207031 77.535156 114.480469 80.9375 130.402344 C 84.339844 146.324219 92.199219 156.378906 105.53125 158.632812 " fill-opacity="1" fill-rule="nonzero"/><path fill="#b298be" d="M 142.636719 115.476562 C 144.882812 114.507812 153.035156 114.390625 153.035156 114.390625 C 153.035156 114.390625 149.71875 102.519531 141.847656 93.488281 C 133.980469 84.457031 117.972656 90.921875 110.683594 94.140625 C 104.039062 97.078125 94.640625 102.558594 91.800781 115.355469 C 88.964844 128.148438 94.578125 137.6875 97.351562 141.371094 C 98.800781 139.644531 105.234375 135.726562 107.28125 133.566406 L 103.539062 126.417969 C 103.539062 126.417969 109.515625 131.859375 110.304688 131.613281 C 111.09375 131.371094 142.636719 115.476562 142.636719 115.476562 " fill-opacity="1" fill-rule="nonzero"/><path fill="#161311" d="M 149.390625 124.28125 C 149.390625 124.28125 147.558594 127.316406 147.039062 127.503906 C 146.519531 127.695312 143.316406 127.609375 142.257812 128.527344 C 141.199219 129.445312 140.0625 132.414062 140.0625 132.414062 C 140.0625 132.414062 139.84375 127.652344 140.792969 127.160156 C 141.746094 126.667969 147.078125 125.960938 147.269531 125.828125 C 147.460938 125.695312 149.390625 124.28125 149.390625 124.28125 " fill-opacity="1" fill-rule="nonzero"/><path fill="#161311" d="M 112.636719 144.878906 C 112.636719 144.878906 116.164062 144.554688 116.5625 144.167969 C 116.957031 143.78125 118.277344 140.859375 119.5625 140.304688 C 120.851562 139.75 124.015625 140.023438 124.015625 140.023438 C 124.015625 140.023438 119.832031 137.75 118.976562 138.390625 C 118.117188 139.03125 115.15625 143.53125 114.953125 143.644531 C 114.75 143.757812 112.636719 144.878906 112.636719 144.878906 " fill-opacity="1" fill-rule="nonzero"/><path fill="#05a973" d="M 128.386719 161.664062 C 127.996094 162.238281 127.640625 162.832031 127.265625 163.414062 C 131.777344 163.5625 136.304688 162.496094 140.121094 160.046875 C 144.296875 157.363281 147.484375 153.429688 150.992188 149.914062 C 155.1875 145.710938 159.996094 141.933594 162.867188 136.730469 C 163.324219 135.90625 163.707031 135.023438 164.023438 134.109375 C 149.8125 139.496094 137.199219 148.664062 128.386719 161.664062 " fill-opacity="1" fill-rule="nonzero"/><path fill="#ffffff" d="M 97.171875 157.691406 C 96.664062 157.902344 96.421875 158.484375 96.628906 158.992188 C 96.839844 159.5 97.421875 159.742188 97.929688 159.535156 C 98.4375 159.324219 98.679688 158.742188 98.46875 158.230469 C 98.261719 157.726562 97.679688 157.480469 97.171875 157.691406 " fill-opacity="1" fill-rule="nonzero"/><path fill="#7c3b4b" d="M 110.886719 201.457031 C 112.386719 202.046875 113.96875 202.320312 115.539062 202.335938 C 117.109375 202.339844 118.664062 202.09375 120.152344 201.617188 C 120.886719 201.347656 121.628906 201.09375 122.324219 200.71875 C 123.050781 200.414062 123.695312 199.953125 124.386719 199.566406 C 125.066406 199.15625 125.675781 198.644531 126.332031 198.1875 C 126.953125 197.6875 127.546875 197.148438 128.1875 196.652344 C 127.671875 197.269531 127.121094 197.863281 126.574219 198.464844 C 125.957031 198.988281 125.375 199.5625 124.714844 200.042969 C 123.410156 201.023438 121.945312 201.804688 120.386719 202.335938 C 118.8125 202.824219 117.148438 203.0625 115.511719 202.914062 C 114.691406 202.859375 113.882812 202.683594 113.097656 202.46875 C 112.328125 202.203125 111.5625 201.910156 110.886719 201.457031 " fill-opacity="1" fill-rule="nonzero"/><path fill="#f5cdae" d="M 272.835938 196.003906 C 272.835938 196.003906 258.199219 214.257812 247.832031 215.480469 C 247.832031 215.480469 238.011719 214.871094 239.230469 217.070312 C 240.453125 219.269531 244.355469 220.613281 244.355469 220.613281 C 244.355469 220.613281 232.21875 224.523438 235.023438 226.296875 C 237.828125 228.066406 245.328125 227.027344 245.816406 226.664062 C 245.816406 226.664062 235.296875 226.722656 235.511719 229.320312 C 235.722656 231.914062 246 231.488281 246 231.488281 C 246 231.488281 238.316406 230.5625 237.953125 231.515625 C 237.585938 232.464844 237.765625 235.613281 248.714844 235.277344 C 259.664062 234.941406 285.371094 226.265625 291.863281 202.347656 L 272.835938 196.003906 " fill-opacity="1" fill-rule="nonzero"/><path fill="#fbcc02" d="M 269.296875 194.648438 C 269.296875 194.648438 269.054688 195.933594 275.214844 198.5 C 281.375 201.0625 292.472656 203.445312 293.082031 202.589844 C 293.695312 201.734375 304.253906 175.035156 285.1875 168.441406 C 285.1875 168.441406 271.34375 177.695312 269.296875 194.648438 " fill-opacity="1" fill-rule="nonzero"/><path fill="#f5cdae" d="M 281.949219 104.132812 C 269.363281 96.640625 257.859375 105.921875 257.859375 105.921875 C 257.859375 105.921875 247.703125 120.050781 236.8125 126.601562 C 234.589844 127.941406 232.4375 131.128906 232.261719 135.683594 C 237.5625 137.953125 242.621094 140.730469 247.3125 144.0625 C 257.824219 151.53125 266.191406 161.554688 272.03125 172.894531 C 276.703125 173.382812 279.992188 172.515625 281.527344 171.75 C 283.925781 170.550781 289.101562 167.847656 289.101562 167.847656 C 325.25 148.285156 303.136719 116.746094 281.949219 104.132812 " fill-opacity="1" fill-rule="nonzero"/><path fill="#4f2a01" d="M 253.804688 120.445312 C 253.804688 120.445312 259.6875 119.871094 259.113281 121.976562 C 258.539062 124.085938 254.890625 121.300781 253.804688 120.445312 " fill-opacity="1" fill-rule="nonzero"/><path fill="#4f2a01" d="M 279.359375 140.074219 C 279.359375 140.074219 274.792969 137.65625 276.222656 136.394531 C 277.65625 135.132812 278.980469 138.925781 279.359375 140.074219 " fill-opacity="1" fill-rule="nonzero"/><path fill="#f3b5ae" d="M 275.183594 156.269531 C 273.992188 156.269531 272.546875 155.289062 271.925781 154.710938 C 271.0625 153.914062 270.132812 152.0625 271.035156 151.152344 C 271.332031 150.851562 271.71875 150.707031 272.167969 150.707031 C 273.082031 150.707031 274.253906 151.304688 275.46875 152.394531 C 277.277344 154.023438 276.902344 155.148438 276.386719 155.75 C 276.0625 156.125 275.644531 156.269531 275.183594 156.269531 " fill-opacity="1" fill-rule="nonzero"/><path fill="#f3b5ae" d="M 242.28125 134.488281 C 241.449219 134.488281 240.554688 134.007812 239.945312 133.28125 C 238.214844 131.226562 239.429688 130.390625 240.199219 129.613281 C 240.460938 129.347656 240.769531 129.21875 241.109375 129.21875 C 241.773438 129.21875 242.5625 129.707031 243.367188 130.625 C 244.589844 132.019531 244.148438 133.339844 243.699219 133.851562 C 243.308594 134.296875 242.808594 134.488281 242.28125 134.488281 " fill-opacity="1" fill-rule="nonzero"/><path fill="#9e4d4d" d="M 262.625 145.898438 C 262.625 145.898438 259.867188 142.617188 257.636719 141.394531 C 255.410156 140.167969 253.089844 139.535156 253.089844 139.535156 C 253.089844 139.535156 250.277344 146.179688 254.46875 148.625 C 258.664062 151.070312 263.183594 146.53125 262.625 145.898438 " fill-opacity="1" fill-rule="nonzero"/><path fill="#f2848a" d="M 257.070312 144.726562 C 255.367188 143.542969 252.203125 144.804688 252.203125 144.804688 C 252.203125 144.804688 252.027344 148.128906 255.203125 149.050781 C 258.117188 149.894531 259.703125 148.738281 259.703125 148.738281 C 259.703125 148.738281 259.320312 146.292969 257.070312 144.726562 " fill-opacity="1" fill-rule="nonzero"/><path fill="#161311" d="M 275.730469 146.097656 C 274.027344 144.867188 271.605469 141.183594 271.605469 141.183594 C 271.605469 141.183594 272.730469 146.824219 274.164062 147.53125 C 275.59375 148.242188 283.800781 148.921875 284.027344 148.972656 C 284.347656 149.050781 277.433594 147.324219 275.730469 146.097656 " fill-opacity="1" fill-rule="nonzero"/><path fill="#161311" d="M 250.621094 127.105469 C 251.964844 128.378906 255.683594 129.742188 255.683594 129.742188 C 255.683594 129.742188 250.273438 130.003906 249.449219 128.863281 C 248.628906 127.722656 247.078125 120.402344 247.003906 120.207031 C 246.898438 119.929688 249.28125 125.835938 250.621094 127.105469 " fill-opacity="1" fill-rule="nonzero"/><g clip-path="url(#id1)"><path fill="#593200" d="M 286.789062 85.859375 C 270.902344 81.597656 253.691406 85.089844 245.75 101.886719 C 242.0625 109.695312 238.875 120.542969 238.6875 129.214844 C 244.152344 115.964844 264.730469 107.988281 265.707031 100.40625 C 263.355469 120.652344 275.988281 132.886719 276.042969 132.675781 L 279.132812 120.621094 C 279.132812 120.621094 280.796875 134.503906 289.695312 143.253906 L 292.214844 129.007812 C 313.683594 139.625 292.484375 163.25 294.222656 162.625 C 299.257812 160.808594 308.671875 161.792969 316.566406 153.511719 L 310.253906 149.660156 C 310.253906 149.660156 319.34375 150.070312 328.210938 141.699219 L 318.296875 133.515625 C 318.296875 133.515625 328.914062 135.4375 334.570312 131.738281 C 334.570312 131.738281 320.554688 122.761719 316.246094 118.171875 C 317.988281 119.996094 328.457031 115.46875 330.304688 114.449219 C 323.8125 118.019531 316.804688 107.132812 313.648438 103.066406 C 307.371094 94.980469 297.375 88.699219 286.789062 85.859375 " fill-opacity="1" fill-rule="nonzero"/></g><path fill="#f5cdae" d="M 291.847656 158.125 C 286.878906 162.308594 285.15625 168.453125 288.003906 171.847656 C 290.851562 175.242188 297.191406 174.601562 302.160156 170.414062 C 307.132812 166.230469 308.855469 160.082031 306.007812 156.6875 C 303.15625 153.296875 296.820312 153.9375 291.847656 158.125 " fill-opacity="1" fill-rule="nonzero"/><path fill="#f4ba90" d="M 293.257812 172.652344 C 292.480469 172.652344 291.726562 172.429688 291.0625 171.816406 L 290.75 171.132812 C 292.28125 168.835938 293.984375 166.660156 295.839844 164.617188 C 296.40625 164 296.988281 163.386719 297.671875 162.910156 C 298.453125 162.367188 299.339844 162.007812 300.21875 161.652344 C 301.332031 161.207031 302.476562 160.75 303.675781 160.730469 C 303.699219 160.730469 303.722656 160.730469 303.742188 160.730469 C 304.195312 160.730469 304.675781 160.816406 304.996094 161.132812 C 305.347656 161.484375 305.417969 162.035156 305.398438 162.535156 C 305.320312 164.746094 304.015625 166.394531 302.640625 167.988281 C 301.144531 169.714844 298.742188 170.929688 296.640625 171.761719 C 295.589844 172.175781 294.394531 172.652344 293.257812 172.652344 " fill-opacity="1" fill-rule="nonzero"/><path fill="#eaaa75" d="M 298.019531 164.863281 C 297.292969 164.699219 296.597656 164.714844 296.027344 164.800781 C 296.222656 164.617188 296.402344 164.425781 296.609375 164.246094 C 298.449219 162.605469 300.464844 161.597656 302.007812 161.160156 C 303.550781 160.648438 304.535156 160.890625 304.574219 160.769531 C 304.59375 160.714844 304.367188 160.554688 303.886719 160.453125 C 303.410156 160.351562 302.6875 160.347656 301.855469 160.519531 C 300.171875 160.8125 297.9375 161.808594 295.992188 163.542969 C 294.035156 165.269531 292.789062 167.28125 291.992188 168.738281 C 291.195312 170.207031 290.8125 171.164062 290.8125 171.164062 C 290.8125 171.164062 291.589844 170.089844 292.382812 168.988281 C 293.140625 167.976562 294.148438 166.675781 295.410156 165.390625 C 295.425781 165.390625 295.4375 165.390625 295.453125 165.390625 C 296.085938 165.449219 296.921875 165.578125 297.820312 165.773438 C 299.628906 166.160156 300.925781 167.023438 301.097656 166.8125 C 301.277344 166.648438 300.085938 165.316406 298.019531 164.863281 " fill-opacity="1" fill-rule="nonzero"/><g clip-path="url(#id2)"><path fill="#4f2a01" d="M 315.859375 133.332031 C 328.582031 134.6875 332.230469 133.269531 334.570312 131.738281 L 333.203125 130.851562 C 330.054688 130.796875 316.566406 132.773438 315.859375 133.332031 " fill-opacity="1" fill-rule="nonzero"/></g><path fill="#4f2a01" d="M 328.210938 141.699219 L 326.953125 140.660156 C 318.453125 147.964844 310.03125 147.074219 310.03125 147.074219 C 302.136719 155.359375 313.703125 130.066406 292.238281 119.449219 L 289.71875 133.695312 C 280.820312 124.945312 279.152344 111.0625 279.152344 111.0625 L 276.066406 123.117188 C 276.011719 123.328125 267.03125 110.449219 269.386719 90.207031 C 268.5 97.082031 248.480469 104.8125 240.6875 116.078125 C 239.53125 120.578125 238.773438 125.136719 238.6875 129.214844 C 244.152344 115.964844 264.734375 107.988281 265.707031 100.40625 C 263.355469 120.648438 275.988281 132.886719 276.042969 132.675781 L 279.132812 120.621094 C 279.132812 120.621094 280.796875 134.503906 289.695312 143.253906 L 292.214844 129.007812 C 313.683594 139.625 292.484375 163.25 294.222656 162.625 C 299.261719 160.808594 308.671875 161.792969 316.566406 153.511719 L 310.257812 149.660156 C 310.257812 149.660156 319.34375 150.066406 328.210938 141.699219 " fill-opacity="1" fill-rule="nonzero"/><path fill="#eaaa75" d="M 278.054688 217.640625 C 278.097656 217.414062 277.898438 217.113281 277.636719 217.164062 C 277.453125 217.199219 277.285156 217.226562 277.132812 217.339844 C 276.992188 217.441406 276.855469 217.550781 276.730469 217.675781 C 276.523438 217.878906 276.328125 218.085938 276.125 218.292969 C 275.71875 218.707031 275.3125 219.117188 274.910156 219.53125 C 274.710938 219.734375 274.734375 220.113281 274.953125 220.292969 C 275.191406 220.492188 275.492188 220.460938 275.710938 220.25 C 276.121094 219.855469 276.53125 219.460938 276.945312 219.066406 C 277.144531 218.871094 277.347656 218.675781 277.550781 218.480469 C 277.65625 218.378906 277.746094 218.269531 277.835938 218.152344 C 277.917969 218.046875 277.984375 217.953125 278.019531 217.820312 C 278.035156 217.761719 278.042969 217.699219 278.054688 217.640625 " fill-opacity="1" fill-rule="nonzero"/><path fill="#eaaa75" d="M 277.78125 219.632812 C 277.65625 219.492188 277.433594 219.410156 277.25 219.484375 C 277.039062 219.570312 276.816406 219.671875 276.621094 219.792969 C 276.535156 219.84375 276.464844 219.917969 276.390625 219.980469 C 276.308594 220.050781 276.226562 220.117188 276.144531 220.1875 C 275.960938 220.34375 275.792969 220.515625 275.621094 220.683594 C 275.46875 220.828125 275.339844 221 275.207031 221.160156 C 275.035156 221.363281 275.03125 221.65625 275.203125 221.855469 C 275.378906 222.058594 275.667969 222.097656 275.894531 221.957031 C 276.066406 221.847656 276.25 221.75 276.410156 221.628906 C 276.605469 221.476562 276.808594 221.332031 276.992188 221.167969 C 277.070312 221.105469 277.144531 221.035156 277.21875 220.972656 C 277.289062 220.90625 277.375 220.84375 277.441406 220.773438 C 277.507812 220.695312 277.566406 220.601562 277.625 220.515625 C 277.703125 220.40625 277.78125 220.292969 277.851562 220.175781 C 277.949219 220.003906 277.902344 219.773438 277.78125 219.632812 " fill-opacity="1" fill-rule="nonzero"/></svg>