<svg xmlns="http://www.w3.org/2000/svg" xmlns:xlink="http://www.w3.org/1999/xlink" width="500" zoomAndPan="magnify" viewBox="0 0 375 374.999991" height="500" preserveAspectRatio="xMidYMid meet" version="1.0"><defs><clipPath id="id1"><path d="M 49.335938 17 L 325.335938 17 L 325.335938 195 L 49.335938 195 Z M 49.335938 17 " clip-rule="nonzero"/></clipPath></defs><path fill="#b5b9c4" d="M 206.421875 227.871094 L 206.421875 196.148438 L 168.253906 196.148438 L 168.253906 227.871094 C 168.253906 257.535156 151.664062 264.292969 151.664062 264.292969 L 223.011719 264.292969 C 223.011719 264.292969 206.421875 257.535156 206.421875 227.871094 Z M 206.421875 227.871094 " fill-opacity="1" fill-rule="nonzero"/><path fill="#2d3444" d="M 107.894531 359.199219 L 266.785156 359.199219 L 266.785156 374.910156 L 107.894531 374.910156 Z M 107.894531 359.199219 " fill-opacity="1" fill-rule="nonzero"/><path fill="#464d5d" d="M 257.308594 349.710938 L 117.371094 349.710938 C 116.75 349.710938 116.132812 349.769531 115.523438 349.890625 C 114.914062 350.011719 114.320312 350.195312 113.746094 350.433594 C 113.171875 350.671875 112.625 350.964844 112.105469 351.308594 C 111.589844 351.65625 111.109375 352.050781 110.671875 352.488281 C 110.230469 352.929688 109.839844 353.410156 109.492188 353.929688 C 109.148438 354.445312 108.855469 354.992188 108.617188 355.570312 C 108.378906 356.144531 108.199219 356.738281 108.078125 357.347656 C 107.957031 357.960938 107.894531 358.578125 107.894531 359.199219 L 266.785156 359.199219 C 266.785156 358.578125 266.726562 357.960938 266.601562 357.347656 C 266.480469 356.738281 266.300781 356.144531 266.066406 355.570312 C 265.828125 354.992188 265.535156 354.445312 265.1875 353.925781 C 264.84375 353.410156 264.449219 352.929688 264.011719 352.488281 C 263.570312 352.046875 263.089844 351.65625 262.574219 351.308594 C 262.054688 350.960938 261.511719 350.671875 260.933594 350.429688 C 260.359375 350.191406 259.765625 350.011719 259.15625 349.890625 C 258.546875 349.769531 257.929688 349.710938 257.308594 349.710938 Z M 257.308594 349.710938 " fill-opacity="1" fill-rule="nonzero"/><path fill="#2d3444" d="M 240.878906 284.148438 L 133.796875 284.148438 C 133.257812 284.148438 132.722656 284.175781 132.1875 284.226562 C 131.652344 284.28125 131.121094 284.359375 130.59375 284.464844 C 130.0625 284.570312 129.542969 284.699219 129.027344 284.855469 C 128.515625 285.011719 128.007812 285.195312 127.511719 285.402344 C 127.015625 285.605469 126.527344 285.835938 126.054688 286.089844 C 125.578125 286.34375 125.117188 286.621094 124.671875 286.921875 C 124.222656 287.21875 123.792969 287.539062 123.378906 287.882812 C 122.960938 288.222656 122.5625 288.585938 122.183594 288.964844 C 121.800781 289.34375 121.441406 289.742188 121.101562 290.160156 C 120.757812 290.578125 120.4375 291.007812 120.140625 291.457031 C 119.839844 291.902344 119.566406 292.367188 119.3125 292.839844 C 119.058594 293.316406 118.828125 293.800781 118.621094 294.300781 C 118.417969 294.796875 118.234375 295.304688 118.078125 295.820312 C 117.921875 296.332031 117.792969 296.855469 117.6875 297.382812 C 117.582031 297.910156 117.503906 298.445312 117.453125 298.980469 C 117.398438 299.515625 117.371094 300.054688 117.371094 300.589844 L 117.371094 349.71875 L 257.308594 349.71875 L 257.308594 300.589844 C 257.308594 300.054688 257.28125 299.515625 257.226562 298.980469 C 257.175781 298.445312 257.097656 297.910156 256.992188 297.382812 C 256.886719 296.855469 256.757812 296.332031 256.601562 295.816406 C 256.445312 295.300781 256.261719 294.796875 256.058594 294.296875 C 255.851562 293.800781 255.621094 293.3125 255.367188 292.839844 C 255.113281 292.363281 254.835938 291.902344 254.539062 291.453125 C 254.238281 291.007812 253.917969 290.574219 253.578125 290.160156 C 253.238281 289.742188 252.875 289.34375 252.496094 288.960938 C 252.113281 288.582031 251.714844 288.222656 251.300781 287.878906 C 250.882812 287.539062 250.453125 287.21875 250.003906 286.917969 C 249.558594 286.617188 249.097656 286.34375 248.621094 286.089844 C 248.148438 285.835938 247.664062 285.605469 247.164062 285.398438 C 246.667969 285.191406 246.164062 285.011719 245.648438 284.855469 C 245.132812 284.699219 244.609375 284.570312 244.082031 284.464844 C 243.554688 284.359375 243.023438 284.28125 242.488281 284.226562 C 241.953125 284.175781 241.417969 284.148438 240.878906 284.148438 Z M 240.878906 284.148438 " fill-opacity="1" fill-rule="nonzero"/><path fill="#9ca2b0" d="M 151.667969 264.292969 L 223.011719 264.292969 L 223.011719 275.0625 L 151.667969 275.0625 Z M 151.667969 264.292969 " fill-opacity="1" fill-rule="nonzero"/><g clip-path="url(#id1)"><path fill="#b5b9c4" d="M 277.402344 38.03125 L 277.402344 17.816406 L 97.277344 17.816406 L 97.277344 38.03125 L 49.363281 38.03125 L 49.363281 78.195312 C 49.363281 80.1875 49.449219 82.175781 49.625 84.15625 C 49.800781 86.140625 50.0625 88.113281 50.414062 90.074219 C 50.765625 92.035156 51.203125 93.976562 51.726562 95.894531 C 52.25 97.816406 52.855469 99.710938 53.550781 101.578125 C 54.242188 103.445312 55.015625 105.277344 55.871094 107.074219 C 56.722656 108.875 57.65625 110.628906 58.667969 112.34375 C 59.679688 114.058594 60.765625 115.726562 61.925781 117.34375 C 63.082031 118.964844 64.3125 120.527344 65.609375 122.035156 C 66.910156 123.542969 68.273438 124.992188 69.699219 126.378906 C 71.125 127.765625 72.613281 129.085938 74.15625 130.34375 C 75.699219 131.597656 77.296875 132.78125 78.949219 133.890625 C 80.597656 135.003906 82.292969 136.042969 84.035156 137.003906 C 85.777344 137.964844 87.558594 138.84375 89.378906 139.648438 C 91.199219 140.449219 93.050781 141.167969 94.9375 141.808594 C 96.820312 142.445312 98.730469 142.996094 100.664062 143.464844 C 102.597656 143.929688 104.546875 144.308594 106.515625 144.605469 C 121.203125 174.433594 151.878906 194.953125 187.339844 194.953125 C 222.804688 194.953125 253.476562 174.433594 268.167969 144.605469 C 270.136719 144.308594 272.085938 143.929688 274.019531 143.464844 C 275.953125 142.996094 277.859375 142.445312 279.746094 141.808594 C 281.628906 141.167969 283.480469 140.449219 285.304688 139.648438 C 287.125 138.84375 288.90625 137.964844 290.644531 137.003906 C 292.386719 136.039062 294.085938 135.003906 295.734375 133.890625 C 297.382812 132.78125 298.980469 131.597656 300.527344 130.339844 C 302.070312 129.085938 303.554688 127.765625 304.984375 126.378906 C 306.410156 124.992188 307.773438 123.542969 309.070312 122.035156 C 310.367188 120.527344 311.597656 118.960938 312.757812 117.34375 C 313.917969 115.726562 315 114.058594 316.011719 112.34375 C 317.023438 110.628906 317.957031 108.875 318.8125 107.074219 C 319.667969 105.277344 320.441406 103.445312 321.132812 101.578125 C 321.824219 99.710938 322.429688 97.816406 322.953125 95.894531 C 323.476562 93.972656 323.914062 92.035156 324.265625 90.074219 C 324.617188 88.113281 324.878906 86.140625 325.054688 84.15625 C 325.230469 82.175781 325.316406 80.1875 325.316406 78.195312 L 325.316406 38.03125 Z M 66.078125 78.195312 L 66.078125 54.765625 L 97.277344 54.765625 L 97.277344 104.796875 C 97.273438 111.878906 98.089844 118.867188 99.722656 125.757812 C 80.148438 118.832031 66.078125 100.128906 66.078125 78.195312 Z M 308.601562 78.195312 C 308.601562 100.128906 294.535156 118.832031 274.953125 125.742188 C 276.589844 118.855469 277.40625 111.875 277.402344 104.796875 L 277.402344 54.765625 L 308.601562 54.765625 Z M 308.601562 78.195312 " fill-opacity="1" fill-rule="nonzero"/></g><path fill="#9ca2b0" d="M 249.875 17.8125 L 249.875 95.199219 C 249.875 145 209.550781 185.371094 159.808594 185.371094 C 154.628906 185.371094 149.488281 184.933594 144.386719 184.050781 C 150.980469 187.640625 157.910156 190.355469 165.183594 192.203125 C 172.457031 194.046875 179.847656 194.964844 187.351562 194.953125 C 237.089844 194.953125 277.414062 154.582031 277.414062 104.78125 L 277.414062 17.8125 Z M 249.875 17.8125 " fill-opacity="1" fill-rule="nonzero"/><path fill="#9ca2b0" d="M 163.085938 187.863281 L 163.085938 195.023438 C 163.085938 195.363281 163.121094 195.699219 163.1875 196.035156 C 163.253906 196.367188 163.351562 196.691406 163.480469 197.003906 C 163.609375 197.320312 163.769531 197.617188 163.957031 197.898438 C 164.144531 198.183594 164.359375 198.445312 164.601562 198.683594 C 164.839844 198.925781 165.101562 199.140625 165.382812 199.328125 C 165.664062 199.515625 165.964844 199.675781 166.277344 199.808594 C 166.589844 199.9375 166.914062 200.035156 167.246094 200.101562 C 167.578125 200.167969 167.914062 200.203125 168.253906 200.203125 L 206.417969 200.203125 C 206.757812 200.203125 207.09375 200.167969 207.425781 200.101562 C 207.757812 200.035156 208.082031 199.9375 208.394531 199.808594 C 208.710938 199.679688 209.007812 199.519531 209.289062 199.328125 C 209.574219 199.140625 209.832031 198.925781 210.074219 198.683594 C 210.3125 198.445312 210.527344 198.183594 210.714844 197.902344 C 210.90625 197.617188 211.066406 197.320312 211.195312 197.003906 C 211.324219 196.691406 211.421875 196.367188 211.488281 196.035156 C 211.554688 195.699219 211.589844 195.363281 211.589844 195.023438 L 211.589844 187.863281 Z M 163.085938 187.863281 " fill-opacity="1" fill-rule="nonzero"/><path fill="#b5b9c4" d="M 282.003906 0.0820312 L 92.679688 0.0820312 C 92.097656 0.0820312 91.523438 0.136719 90.953125 0.25 C 90.382812 0.363281 89.828125 0.53125 89.292969 0.753906 C 88.753906 0.976562 88.246094 1.25 87.761719 1.574219 C 87.277344 1.898438 86.832031 2.265625 86.417969 2.675781 C 86.007812 3.089844 85.640625 3.535156 85.316406 4.019531 C 84.996094 4.503906 84.722656 5.015625 84.5 5.554688 C 84.277344 6.089844 84.109375 6.644531 83.996094 7.21875 C 83.882812 7.789062 83.824219 8.363281 83.824219 8.945312 C 83.824219 9.527344 83.882812 10.105469 83.996094 10.675781 C 84.109375 11.246094 84.277344 11.800781 84.5 12.339844 C 84.722656 12.878906 84.996094 13.386719 85.316406 13.871094 C 85.640625 14.355469 86.007812 14.804688 86.417969 15.214844 C 86.832031 15.628906 87.277344 15.996094 87.761719 16.316406 C 88.246094 16.640625 88.753906 16.914062 89.292969 17.136719 C 89.828125 17.359375 90.382812 17.527344 90.953125 17.640625 C 91.523438 17.753906 92.097656 17.8125 92.679688 17.8125 L 282.003906 17.8125 C 282.582031 17.8125 283.160156 17.753906 283.730469 17.640625 C 284.300781 17.527344 284.855469 17.359375 285.390625 17.136719 C 285.929688 16.914062 286.4375 16.640625 286.921875 16.316406 C 287.40625 15.996094 287.851562 15.628906 288.265625 15.214844 C 288.675781 14.804688 289.042969 14.355469 289.367188 13.871094 C 289.6875 13.386719 289.960938 12.878906 290.183594 12.339844 C 290.40625 11.800781 290.574219 11.246094 290.6875 10.675781 C 290.800781 10.105469 290.859375 9.527344 290.859375 8.945312 C 290.859375 8.363281 290.800781 7.789062 290.6875 7.21875 C 290.574219 6.644531 290.40625 6.089844 290.183594 5.554688 C 289.960938 5.015625 289.6875 4.503906 289.367188 4.019531 C 289.042969 3.535156 288.675781 3.089844 288.265625 2.675781 C 287.851562 2.265625 287.40625 1.898438 286.921875 1.574219 C 286.4375 1.25 285.929688 0.976562 285.390625 0.753906 C 284.855469 0.53125 284.300781 0.363281 283.730469 0.25 C 283.160156 0.136719 282.582031 0.0820312 282.003906 0.0820312 Z M 282.003906 0.0820312 " fill-opacity="1" fill-rule="nonzero"/><path fill="#ffffff" d="M 108.648438 6.390625 L 94.128906 6.390625 C 93.785156 6.378906 93.449219 6.433594 93.125 6.558594 C 92.800781 6.683594 92.515625 6.867188 92.265625 7.109375 C 92.019531 7.347656 91.828125 7.628906 91.691406 7.949219 C 91.554688 8.269531 91.488281 8.601562 91.488281 8.949219 C 91.488281 9.292969 91.554688 9.628906 91.691406 9.945312 C 91.828125 10.265625 92.019531 10.546875 92.265625 10.789062 C 92.515625 11.027344 92.800781 11.210938 93.125 11.335938 C 93.449219 11.460938 93.785156 11.519531 94.128906 11.507812 L 108.648438 11.507812 C 108.992188 11.519531 109.328125 11.460938 109.652344 11.335938 C 109.972656 11.210938 110.261719 11.027344 110.507812 10.789062 C 110.757812 10.546875 110.949219 10.265625 111.085938 9.945312 C 111.222656 9.628906 111.289062 9.292969 111.289062 8.949219 C 111.289062 8.601562 111.222656 8.269531 111.085938 7.949219 C 110.949219 7.628906 110.757812 7.347656 110.507812 7.109375 C 110.261719 6.867188 109.972656 6.683594 109.652344 6.558594 C 109.328125 6.433594 108.992188 6.378906 108.648438 6.390625 Z M 108.648438 6.390625 " fill-opacity="1" fill-rule="nonzero"/><path fill="#ffffff" d="M 126.605469 6.390625 L 121.527344 6.390625 C 121.195312 6.398438 120.878906 6.472656 120.574219 6.609375 C 120.273438 6.742188 120.003906 6.929688 119.773438 7.167969 C 119.542969 7.40625 119.367188 7.679688 119.242188 7.988281 C 119.117188 8.296875 119.054688 8.617188 119.054688 8.949219 C 119.054688 9.28125 119.117188 9.601562 119.242188 9.90625 C 119.367188 10.214844 119.542969 10.488281 119.773438 10.726562 C 120.003906 10.96875 120.273438 11.152344 120.574219 11.289062 C 120.878906 11.421875 121.195312 11.496094 121.527344 11.507812 L 126.605469 11.507812 C 126.953125 11.519531 127.289062 11.460938 127.609375 11.335938 C 127.933594 11.210938 128.21875 11.027344 128.46875 10.789062 C 128.71875 10.546875 128.910156 10.265625 129.046875 9.945312 C 129.179688 9.628906 129.25 9.292969 129.25 8.949219 C 129.25 8.601562 129.179688 8.269531 129.046875 7.949219 C 128.910156 7.628906 128.71875 7.347656 128.46875 7.109375 C 128.21875 6.867188 127.933594 6.683594 127.609375 6.558594 C 127.289062 6.433594 126.953125 6.378906 126.605469 6.390625 Z M 126.605469 6.390625 " fill-opacity="1" fill-rule="nonzero"/><path fill="#b5b9c4" d="M 229.03125 275.0625 L 145.648438 275.0625 C 145.050781 275.0625 144.460938 275.121094 143.878906 275.234375 C 143.292969 275.351562 142.726562 275.523438 142.175781 275.753906 C 141.625 275.980469 141.101562 276.261719 140.605469 276.59375 C 140.109375 276.921875 139.648438 277.300781 139.230469 277.722656 C 138.808594 278.144531 138.429688 278.601562 138.097656 279.097656 C 137.769531 279.59375 137.488281 280.121094 137.261719 280.671875 C 137.03125 281.222656 136.859375 281.789062 136.742188 282.375 C 136.628906 282.960938 136.570312 283.550781 136.570312 284.148438 L 238.109375 284.148438 C 238.109375 283.550781 238.050781 282.960938 237.933594 282.375 C 237.816406 281.789062 237.644531 281.222656 237.417969 280.671875 C 237.1875 280.121094 236.910156 279.597656 236.578125 279.101562 C 236.246094 278.605469 235.871094 278.144531 235.449219 277.722656 C 235.027344 277.300781 234.570312 276.925781 234.074219 276.59375 C 233.578125 276.261719 233.054688 275.980469 232.503906 275.753906 C 231.953125 275.523438 231.386719 275.351562 230.800781 275.234375 C 230.21875 275.121094 229.628906 275.0625 229.03125 275.0625 Z M 229.03125 275.0625 " fill-opacity="1" fill-rule="nonzero"/><path fill="#464d5d" d="M 239.566406 288.691406 L 239.566406 304.824219 C 239.566406 305.90625 239.511719 306.984375 239.40625 308.058594 C 239.300781 309.132812 239.144531 310.199219 238.933594 311.257812 C 238.722656 312.320312 238.460938 313.367188 238.148438 314.398438 C 237.832031 315.433594 237.472656 316.449219 237.058594 317.445312 C 236.644531 318.445312 236.183594 319.417969 235.675781 320.371094 C 235.167969 321.324219 234.613281 322.25 234.011719 323.148438 C 233.414062 324.046875 232.773438 324.914062 232.085938 325.746094 C 231.402344 326.582031 230.679688 327.382812 229.917969 328.144531 C 229.152344 328.910156 228.355469 329.632812 227.519531 330.320312 C 226.6875 331.003906 225.820312 331.648438 224.925781 332.246094 C 224.027344 332.847656 223.101562 333.402344 222.152344 333.910156 C 221.199219 334.421875 220.226562 334.882812 219.230469 335.296875 C 218.230469 335.707031 217.21875 336.070312 216.183594 336.386719 C 215.152344 336.699219 214.105469 336.960938 213.046875 337.171875 C 211.992188 337.382812 210.925781 337.542969 209.851562 337.648438 C 208.777344 337.753906 207.699219 337.804688 206.621094 337.804688 L 117.371094 337.804688 L 117.371094 300.589844 C 117.371094 300.054688 117.398438 299.515625 117.453125 298.980469 C 117.503906 298.445312 117.585938 297.910156 117.6875 297.382812 C 117.792969 296.855469 117.925781 296.332031 118.082031 295.816406 C 118.238281 295.304688 118.417969 294.796875 118.625 294.296875 C 118.832031 293.800781 119.058594 293.316406 119.3125 292.839844 C 119.566406 292.363281 119.84375 291.902344 120.140625 291.457031 C 120.441406 291.007812 120.761719 290.578125 121.101562 290.160156 C 121.445312 289.742188 121.804688 289.34375 122.183594 288.964844 C 122.566406 288.582031 122.964844 288.222656 123.378906 287.882812 C 123.792969 287.539062 124.226562 287.21875 124.671875 286.917969 C 125.121094 286.621094 125.582031 286.34375 126.054688 286.089844 C 126.53125 285.835938 127.015625 285.605469 127.511719 285.398438 C 128.007812 285.195312 128.515625 285.011719 129.03125 284.855469 C 129.542969 284.699219 130.066406 284.570312 130.59375 284.464844 C 131.121094 284.359375 131.652344 284.28125 132.1875 284.226562 C 132.722656 284.175781 133.257812 284.148438 133.796875 284.148438 L 238.929688 284.148438 C 239.355469 285.632812 239.566406 287.148438 239.566406 288.691406 Z M 239.566406 288.691406 " fill-opacity="1" fill-rule="nonzero"/><path fill="#000000" d="M 97.277344 17.8125 L 277.402344 17.8125 L 277.402344 27.824219 L 97.277344 27.824219 Z M 97.277344 17.8125 " fill-opacity="0.098" fill-rule="nonzero"/><path fill="#b5b9c4" d="M 222.089844 326.195312 L 222.089844 307.667969 C 221.761719 307.667969 221.433594 307.632812 221.105469 307.570312 C 220.78125 307.503906 220.464844 307.410156 220.160156 307.28125 C 219.855469 307.15625 219.5625 307 219.289062 306.816406 C 219.011719 306.628906 218.757812 306.421875 218.523438 306.1875 C 218.289062 305.953125 218.078125 305.695312 217.894531 305.421875 C 217.710938 305.144531 217.554688 304.851562 217.429688 304.546875 C 217.300781 304.238281 217.207031 303.925781 217.140625 303.597656 C 217.078125 303.273438 217.042969 302.945312 217.042969 302.613281 L 157.648438 302.613281 C 157.648438 302.945312 157.613281 303.273438 157.550781 303.597656 C 157.484375 303.925781 157.390625 304.238281 157.261719 304.546875 C 157.136719 304.851562 156.980469 305.144531 156.796875 305.421875 C 156.613281 305.695312 156.402344 305.953125 156.167969 306.1875 C 155.933594 306.421875 155.679688 306.628906 155.402344 306.816406 C 155.128906 307 154.835938 307.15625 154.53125 307.28125 C 154.226562 307.410156 153.910156 307.503906 153.585938 307.570312 C 153.257812 307.632812 152.929688 307.667969 152.601562 307.667969 L 152.601562 326.195312 C 152.929688 326.195312 153.257812 326.226562 153.585938 326.292969 C 153.910156 326.355469 154.226562 326.453125 154.53125 326.578125 C 154.835938 326.707031 155.128906 326.863281 155.402344 327.046875 C 155.679688 327.230469 155.933594 327.441406 156.167969 327.675781 C 156.402344 327.910156 156.613281 328.164062 156.796875 328.441406 C 156.980469 328.714844 157.136719 329.007812 157.261719 329.3125 C 157.390625 329.621094 157.484375 329.9375 157.550781 330.261719 C 157.613281 330.585938 157.648438 330.917969 157.648438 331.246094 L 217.042969 331.246094 C 217.042969 330.917969 217.078125 330.585938 217.140625 330.261719 C 217.207031 329.9375 217.300781 329.621094 217.429688 329.3125 C 217.554688 329.007812 217.710938 328.714844 217.894531 328.441406 C 218.078125 328.164062 218.289062 327.910156 218.523438 327.675781 C 218.757812 327.441406 219.011719 327.230469 219.289062 327.046875 C 219.5625 326.863281 219.855469 326.707031 220.160156 326.578125 C 220.464844 326.453125 220.78125 326.355469 221.105469 326.292969 C 221.433594 326.226562 221.761719 326.195312 222.089844 326.195312 Z M 222.089844 326.195312 " fill-opacity="1" fill-rule="nonzero"/><path fill="#9ca2b0" d="M 219.425781 316.929688 C 219.425781 317.175781 219.378906 317.414062 219.285156 317.640625 C 219.191406 317.871094 219.054688 318.070312 218.882812 318.246094 C 218.707031 318.417969 218.507812 318.554688 218.277344 318.648438 C 218.050781 318.742188 217.816406 318.789062 217.570312 318.789062 C 217.324219 318.789062 217.085938 318.742188 216.859375 318.648438 C 216.632812 318.554688 216.429688 318.417969 216.257812 318.246094 C 216.082031 318.070312 215.949219 317.871094 215.855469 317.640625 C 215.757812 317.414062 215.710938 317.175781 215.710938 316.929688 C 215.710938 316.683594 215.757812 316.445312 215.855469 316.21875 C 215.949219 315.992188 216.082031 315.789062 216.257812 315.617188 C 216.429688 315.441406 216.632812 315.308594 216.859375 315.214844 C 217.085938 315.117188 217.324219 315.070312 217.570312 315.070312 C 217.816406 315.070312 218.050781 315.117188 218.277344 315.214844 C 218.507812 315.308594 218.707031 315.441406 218.882812 315.617188 C 219.054688 315.789062 219.191406 315.992188 219.285156 316.21875 C 219.378906 316.445312 219.425781 316.683594 219.425781 316.929688 Z M 219.425781 316.929688 " fill-opacity="1" fill-rule="nonzero"/><path fill="#9ca2b0" d="M 158.988281 316.929688 C 158.988281 317.175781 158.941406 317.414062 158.847656 317.640625 C 158.753906 317.871094 158.621094 318.070312 158.445312 318.246094 C 158.273438 318.417969 158.070312 318.554688 157.84375 318.648438 C 157.617188 318.742188 157.378906 318.789062 157.132812 318.789062 C 156.886719 318.789062 156.652344 318.742188 156.421875 318.648438 C 156.195312 318.554688 155.996094 318.417969 155.820312 318.246094 C 155.648438 318.070312 155.511719 317.871094 155.417969 317.640625 C 155.324219 317.414062 155.277344 317.175781 155.277344 316.929688 C 155.277344 316.683594 155.324219 316.445312 155.417969 316.21875 C 155.511719 315.992188 155.648438 315.789062 155.820312 315.617188 C 155.996094 315.441406 156.195312 315.308594 156.421875 315.214844 C 156.652344 315.117188 156.886719 315.070312 157.132812 315.070312 C 157.378906 315.070312 157.617188 315.117188 157.84375 315.214844 C 158.070312 315.308594 158.273438 315.441406 158.445312 315.617188 C 158.621094 315.789062 158.753906 315.992188 158.847656 316.21875 C 158.941406 316.445312 158.988281 316.683594 158.988281 316.929688 Z M 158.988281 316.929688 " fill-opacity="1" fill-rule="nonzero"/></svg>